<svg width="120" height="120" viewBox="0 0 120 120" fill="none" xmlns="http://www.w3.org/2000/svg">
<rect width="120" height="120" rx="60" fill="#0CC7BC" fill-opacity="0.1"/>
<path fill-rule="evenodd" clip-rule="evenodd" d="M72.547 45.696C70.0782 43.8617 67.7664 42.3654 64.7785 41.587C64.6216 39.5475 65.69 37.0495 65.9918 36.7418C67.6396 37.2366 69.3418 37.3754 71.9555 39.1674C72.034 39.3967 71.032 40.157 71.032 40.4406C69.6376 39.8553 69.1004 39.3907 67.3922 38.8838C67.0179 39.3726 66.9153 39.801 66.8972 40.4828C68.7563 41.2612 71.2312 42.3231 72.704 43.4877C74.0561 42.2326 74.7683 40.9836 75.8367 39.451C72.3418 36.4582 66.867 34.8894 61.4526 34.1231C61.362 36.772 61.3077 39.5113 61.2232 42.8239C67.531 43.8376 69.4082 45.7141 72.1607 47.9768C75.1788 45.696 77.708 43.3006 80.9795 41.5085C84.8186 45.0504 86.895 51.0119 87.7823 56.6354C87.5529 57.1121 81.6315 57.1 78.8428 57.1603C78.5832 54.5899 77.5329 52.4057 76.1808 50.143C77.4424 49.4008 78.4081 48.3992 80.5389 47.6148C81.4202 48.7552 82.5007 50.9696 82.9353 52.5867C82.718 53.3108 82.1264 53.4194 81.3538 53.353C81.1425 52.3091 80.557 50.6921 79.9534 49.7568C79.1144 49.9861 78.9152 50.1913 78.3961 50.7584C79.1506 52.4479 79.7542 53.3409 80.1526 55.3804C81.3357 55.5553 83.7381 55.2838 85.4705 55.0726C84.9031 50.3723 83.1888 47.2829 80.4122 44.1755C77.9132 45.6598 75.4866 47.4881 73.4766 49.4672C75.1607 52.3574 76.7905 55.4769 76.9836 59.2179C80.4604 59.1756 85.0359 58.9584 87.9574 59.2179C88.4825 67.6291 84.0218 74.4413 82.0781 77.2591C79.9896 74.9179 77.4303 73.5543 75.4504 71.1227C77.0078 68.8057 77.7925 66.7904 78.6194 64.0027C80.1164 63.7915 81.8065 64.1656 83.5751 64.6966C83.1707 66.3318 82.5671 68.9867 81.4866 70.7848C81.3176 70.8149 80.3518 69.9762 80.1405 69.9521C80.9132 68.5281 81.2874 67.442 81.6737 66.0482C81.0882 65.5353 80.5027 65.3543 79.7059 65.5353C79.0601 67.3153 78.7401 68.7755 77.4484 70.8994C79.2774 72.4682 79.8448 72.8604 81.716 74.218C84.5711 69.747 85.6093 65.9698 85.9352 61.0341C82.7904 61.022 80.0621 60.7988 76.9655 61.0341C76.4524 64.1294 75.3418 69.0169 72.8187 71.1649C74.9374 74.1577 77.9615 76.529 80.1285 79.4735C76.8086 83.7093 69.0762 87.2029 64.8026 87.5709C64.4224 84.7592 63.9274 80.9699 63.6497 78.665C66.7101 78.0616 68.3761 77.0057 71.0259 75.5093C72.3237 76.5893 73.1929 78.1581 73.869 79.5399C72.879 80.3363 70.4706 81.6216 68.6235 82.418C68.1769 82.3698 68.3097 81.3983 67.9475 80.994C69.2453 80.2277 70.4283 80.2277 71.6477 79.1537C71.3941 78.4236 71.3398 78.2245 70.8629 77.5728C68.8469 78.4357 67.5913 79.4011 65.6718 80.0165C65.859 82.2491 65.9978 83.0516 66.4626 85.1212C69.3539 85.0246 75.4202 81.35 77.5691 79.0934C75.2935 76.9695 73.8508 74.5439 71.3096 72.6854C68.5571 75.1231 65.3278 76.4445 61.531 76.9152C61.4164 80.626 61.7785 84.6324 61.531 87.9631C54.4567 88.3433 47.4004 85.7306 43.6942 82.593C45.5714 80.7165 47.334 77.9952 49.7304 75.992C52.0241 77.5668 54.686 78.2607 57.3661 78.8339C56.8591 80.6682 56.5995 82.1827 55.9295 83.6188C53.9255 83.0697 52.3621 82.8887 50.2132 81.8508C50.1951 81.5491 50.9798 80.7647 50.9134 80.4088C52.2112 80.9639 52.839 81.4285 54.8551 81.7724C55.3319 81.3319 55.4526 80.7406 55.5432 79.9864C53.3943 79.4313 51.9215 78.8943 49.8269 77.9168C48.499 79.383 47.6358 80.4993 46.4165 82.0741C50.4366 84.3609 53.9798 85.5979 59.527 85.9177C59.7323 82.7318 59.6176 79.7209 59.5934 77.0358C55.4526 76.7341 52.1448 74.7852 49.0784 73.0837C46.4708 75.1352 43.5252 78.2426 41.2495 80.626C38.2435 78.8822 33.2275 71.2554 32.3462 64.0148C35.2677 63.8398 38.7928 63.6709 41.3401 63.5804C42.0041 66.1749 43.2173 69.3306 44.7867 71.2976C44.4185 71.6898 42.2576 73.2586 40.8995 74.3146C39.0765 72.3837 38.4669 70.64 37.5192 68.6488C37.5796 68.2566 38.7264 67.6351 39.0886 67.8765C39.7284 69.8978 40.489 70.7063 41.0866 72.0217C41.6419 71.5511 42.1489 71.3097 42.668 70.7787C41.4668 69.1556 40.9658 67.1041 40.1389 65.1069C38.2918 65.3905 36.9759 65.3965 34.7546 65.5896C35.8351 71.2795 37.7727 74.4051 41.1771 77.7116C43.6338 75.7144 45.6559 73.7655 47.841 71.5511C45.2334 69.3004 43.2173 65.5595 43.163 61.1004C39.5534 60.9858 35.5514 61.4806 32.0504 61.203C31.5675 54.071 34.6279 46.8485 37.9719 42.7757C39.7647 44.3988 42.988 46.764 44.7022 48.6828C43.1992 51.1808 41.8713 53.9503 41.2556 57.0517C38.8773 57.1784 38.2918 57.0879 36.2758 56.5751C36.7224 53.9745 37.0484 52.4057 38.1047 50.149C38.654 50.2395 39.3361 50.6981 39.4689 50.9636C39.1188 51.8928 38.5031 53.4314 38.1651 55.0063C38.7506 55.2476 39.0705 55.3381 39.9276 55.3804C40.3743 53.5581 41.7445 50.9093 42.7103 49.0026C41.5514 47.8803 39.7405 46.5589 38.4005 45.6176C35.6118 49.1896 34.3864 54.4692 34.1148 59.1213C37.0967 59.1636 39.988 59.1998 43.0664 59.067C43.2475 55.3321 45.2636 51.2653 47.5634 48.6044C45.8853 45.684 41.9135 43.2946 39.9638 40.6517C43.1932 37.3814 47.7263 33.8094 56.6659 32.2406C56.6659 34.6119 56.69 40.6879 56.7504 41.2672C53.5995 42.3955 52.344 42.6188 49.676 44.3686C48.2455 43.2282 47.2012 41.8947 46.4889 40.1751C47.8954 39.3002 49.5493 37.9969 52.5191 37.3392C52.7062 37.4176 52.6579 38.4373 52.8269 38.6002C50.9497 39.6019 50.3823 39.5174 48.9457 40.5612C49.0422 41.3336 49.4889 42.0456 50.0684 42.3412C51.9577 41.0439 52.7001 41.0017 54.9637 40.0846C54.8792 38.1236 54.8128 36.4039 54.8128 34.6601C48.7706 35.7643 45.9336 38.1658 42.8129 40.7121C44.7264 42.8058 46.9416 45.0504 49 47.1562C51.7766 45.0806 55.2776 42.842 59.3822 43.0411C59.3822 41.6594 59.3822 34.5636 59.4425 32.0113C69.1728 31.7518 74.714 36.0238 78.547 39.2097C77.889 40.6336 73.1024 45.5633 72.5651 45.696H72.547ZM45.1127 60.0204C45.1127 67.617 51.5231 74.8878 60.2514 74.8878C68.9797 74.8878 74.9675 67.0679 74.9675 60.3522C74.9675 55.8208 71.7985 45.1168 59.8288 45.1168C51.2998 45.1168 45.1127 53.2082 45.1127 60.0264V60.0204Z" fill="url(#paint0_radial_84_101)"/>
<path fill-rule="evenodd" clip-rule="evenodd" d="M61.6823 54.2099C57.9278 51.8687 53.3222 55.658 53.3222 60.1049C53.3222 65.469 58.3805 67.8705 61.2658 67.8705C71.642 67.8705 72.3904 60.2498 72.6741 59.6102C73.326 58.4275 73.5554 59.8395 73.5554 60.2015C73.5554 63.5684 70.5011 73.494 59.8775 73.494C53.4128 73.494 46.4772 67.4904 46.4772 59.6826C46.4772 53.8056 52.0969 46.5348 59.2558 46.5348C65.3583 46.5348 69.6983 49.1837 70.8754 54.3064C71.2496 56.6898 69.8311 63.9425 63.3543 63.9425C60.5656 63.9425 57.9882 62.5849 57.9882 58.7594C57.9882 56.3157 59.6119 55.0486 61.6823 54.2099Z" fill="url(#paint1_radial_84_101)"/>
<defs>
<radialGradient id="paint0_radial_84_101" cx="0" cy="0" r="1" gradientUnits="userSpaceOnUse" gradientTransform="translate(78.125 47.3991) rotate(135) scale(29.8411 905.459)">
<stop stop-color="#19C5FB"/>
<stop offset="1" stop-color="#0CC7BC"/>
</radialGradient>
<radialGradient id="paint1_radial_84_101" cx="0" cy="0" r="1" gradientUnits="userSpaceOnUse" gradientTransform="translate(78.125 47.3991) rotate(135) scale(29.8411 905.459)">
<stop stop-color="#19C5FB"/>
<stop offset="1" stop-color="#0CC7BC"/>
</radialGradient>
</defs>
</svg>
