<svg width="120" height="120" viewBox="0 0 120 120" fill="none" xmlns="http://www.w3.org/2000/svg">
<rect width="120" height="120" rx="60" fill="#0CC7BC" fill-opacity="0.1"/>
<path fill-rule="evenodd" clip-rule="evenodd" d="M87.2205 53.6208C83.358 57.2521 83.7045 56.6234 80.798 59.1127C79.534 58.3171 77.0445 56.9377 76.4029 56.7004C72.0528 57.6306 71.0198 57.7012 66.413 58.593C71.9501 56.88 73.83 56.2449 75.9987 55.6033C76.775 54.1854 77.6797 52.3441 78.4881 50.6439C81.0674 50.9583 82.5175 51.3753 86.8163 51.895C85.3983 47.2051 82.896 43.2851 80.4066 40.8599C79.0463 44.0806 78.2957 47.0447 77.4423 48.8283C75.2288 48.9309 74.369 48.7962 72.5212 49.0143C68.2224 52.3377 67.9465 52.8509 64.8796 55.2761C67.5551 52.1901 68.3635 51.0353 71.501 47.9621C71.4817 46.0118 71.6678 45.4536 71.4176 42.7718C73.5413 41.6683 78.8282 39.8912 79.1554 39.5896C75.5047 36.6191 72.765 34.5148 68.1004 33.2124C68.941 37.6777 69.1527 38.8711 69.6917 41.7517C68.1133 42.6371 66.7146 43.176 65.303 44.2282C63.8786 48.5139 62.0116 53.7427 61.7677 53.5502C63.0574 49.2581 63.1151 47.7633 64.2764 43.8433C62.6788 41.8415 62.4671 41.3603 60.8246 39.3779C62.6467 37.4852 64.7384 34.8355 66.5157 32.898C62.82 31.7496 57.2508 31.6662 53.7412 32.8595C56.5643 36.6255 57.3406 36.9912 58.9575 39.3715C57.9116 41.0332 57.1096 42.5473 56.1601 43.8368C56.9492 47.9814 57.1738 48.1354 58.3608 53.6144C56.2948 48.4497 55.8328 47.7248 54.8512 44.1576C52.227 42.8937 52.2911 42.8809 50.1995 41.7517C50.7705 38.6722 51.4506 35.9647 51.919 33.238C47.2673 34.7586 44.3159 36.4266 40.864 39.6153C43.1482 40.6354 44.502 41.1101 48.6981 42.7654C48.5826 44.8056 48.4415 46.0503 48.2875 48.052C50.2893 49.5404 52.49 52.158 55.2361 55.2632C52.15 52.8381 51.1298 51.9784 47.6074 48.8603C45.567 48.6165 44.9511 48.5716 42.6156 48.4626C41.2169 45.6396 41.1078 44.626 39.6386 41.0396C36.4369 43.7662 34.7174 47.7697 33.1839 51.8886C36.7321 51.324 38.9007 50.9391 41.4928 50.6375C42.4103 52.5879 42.9108 53.3385 43.9181 55.5135C47.524 56.4694 53.677 58.4904 53.6321 58.6508C53.5808 58.824 47.37 57.2585 43.5716 56.7004C43.0455 56.8094 40.3892 58.6828 39.2664 59.055C36.8924 56.9378 35.8851 56.4309 32.722 53.6208C31.9264 57.2265 31.6056 63.1033 32.722 66.3817C35.5387 64.303 36.0006 63.7128 39.337 61.1978C40.601 62.0896 41.5377 62.6349 43.8796 64.2132C51.194 62.0768 48.4928 62.9814 53.6449 61.7431C50.084 63.3856 48.1014 64.072 44.2132 65.4578C43.3984 67.2671 42.5964 68.2872 41.7623 69.8526C39.0354 69.827 36.6486 68.8774 33.1647 68.1268C34.1528 71.2384 36.8925 76.6661 39.5359 79.1811C41.0308 75.7679 41.4415 73.6122 42.8081 71.6939C44.502 71.5464 45.875 71.6939 48.0437 71.7004C48.3131 71.4437 53.0161 66.5485 55.4222 64.8291C53.4075 67.4339 48.7879 72.2778 48.5698 72.3034C48.1335 73.9523 48.5826 76.0631 48.5954 77.3205C45.5414 78.4176 44.611 79.1105 40.8127 80.4514C43.3342 82.8894 48.0565 85.8342 51.7843 86.8287C51.5212 84.2367 50.6678 80.9262 50.4112 78.4625C52.259 77.5515 53.1573 76.9164 54.8961 75.9412C54.8704 74.9275 57.4946 68.2679 58.7265 66.4908C58.8805 66.4651 56.1408 74.6708 55.9098 76.2684C56.9813 77.5964 57.809 78.8475 59.0601 80.7979C57.4048 82.9151 55.5249 85.3723 53.7219 87.3419C58.1555 87.9835 62.358 88.4518 66.4964 87.2842C63.8979 84.3137 62.7751 83.1653 60.9337 80.7915C62.7045 78.4433 64.0583 76.2619 64.0583 76.2619C64.0583 76.2619 62.4093 71.6169 61.2031 66.3817C62.9419 69.6152 64.0519 72.5601 65.2068 75.9347C66.8493 76.8843 68.0876 77.3847 69.7237 78.4561C69.4158 80.8749 68.71 84.5254 68.0748 86.8222C72.9189 85.507 76.852 82.6456 79.1169 80.4193C75.2608 78.6871 73.4643 78.0712 71.5459 77.3141C71.4047 75.2868 71.4689 73.9843 71.2379 72.297C68.062 69.2303 66.8942 66.741 64.4946 64.4313C67.8823 67.0425 69.5954 68.5181 71.9822 71.6939C74.138 71.726 75.325 71.5271 77.2049 71.6875C78.0647 73.439 79.4185 76.5057 80.4258 79.1619C83.2489 76.2812 85.2122 72.682 86.7842 68.1268C83.7044 68.7812 82.0491 68.871 78.2507 69.8398C77.3782 67.9087 76.05 65.8877 75.8062 65.445C71.1802 63.7192 66.0409 61.7816 66.2975 61.7303C69.9675 62.2243 72.5725 63.4305 76.1398 64.3351C78.1417 63.2444 78.7833 62.282 80.7338 61.1465C82.633 62.744 84.6797 63.7128 87.1948 66.3753C88.1316 63.0006 88.3946 57.2521 87.2012 53.6144L87.2205 53.6208ZM73.2269 50.0023C74.4267 50.1307 75.3571 50.1178 77.1664 50.3745C76.3901 52.312 76.0885 52.9023 75.5175 54.0763C72.2966 55.4685 69.0565 55.8471 65.7842 57.0468C68.8768 53.8454 69.7045 53.191 73.2269 49.9959V50.0023ZM66.2719 44.5875C67.2984 44.2153 68.7741 43.5289 70.006 43.1311C70.4231 44.4784 70.2563 45.7038 70.4744 47.0575C67.6834 50.1242 65.4313 52.0361 63.468 54.256C64.7384 49.8227 65.4698 47.7376 66.2783 44.5875H66.2719ZM43.5588 63.0327C41.9291 61.679 42.2692 61.7239 40.4726 60.0237C41.9099 59.0229 41.8329 59.1255 43.4241 57.8167C47.5689 58.4583 49.9813 59.1897 53.4974 60.0943C50.2187 61.0823 46.9786 62.1986 43.5588 63.0327ZM47.0748 70.3915C45.3617 70.4621 44.8484 70.2953 42.9557 70.321C43.6871 68.9223 43.9438 68.2359 44.765 66.7153C49.7311 65.028 49.3461 65.0472 54.4085 63.5139C50.5973 66.8693 49.0125 68.454 47.0748 70.398V70.3915ZM44.4378 54.0828C44.0079 52.7547 43.6294 52.0618 43.0776 50.2397C44.8164 49.9574 45.1564 50.0408 46.7989 50.0023C49.6477 52.8445 50.0391 53.0242 54.2673 56.6619C49.0702 55.4814 48.1527 55.1478 44.4378 54.0828ZM57.2957 43.593C58.303 42.2329 60.0033 40.0195 60.0033 40.0195C60.8631 41.2513 62.0308 42.5023 62.9868 43.6443C61.7998 47.6542 61.5111 48.5845 60.0033 53.4733C59.0473 49.3608 58.6495 48.3407 57.2957 43.593ZM50.0455 43.1375C52.073 43.8946 52.381 43.8368 53.7604 44.5875C54.9153 48.3086 55.5954 50.2141 56.9236 54.2432C54.2481 51.5678 52.4964 50.4771 49.436 47.1538C49.622 45.2419 49.8787 44.472 50.0455 43.1439V43.1375ZM53.8887 75.46C52.4195 75.8578 51.7714 76.4544 50.0262 77.2051C49.7119 75.2803 49.7824 74.3501 49.4809 73.0541C53.0547 69.3971 54.3186 68.2679 56.9749 65.8877C56.0125 69.3009 55.3709 71.0267 53.8887 75.46ZM62.8136 76.5506C61.4598 78.1482 61.1325 78.6422 60.0418 79.8932C58.6752 78.2829 58.348 77.8851 57.1032 76.5314C58.1683 72.9963 59.1243 70.3659 60.0097 66.6255C61.7613 73.3428 61.5367 72.9963 62.82 76.5506H62.8136ZM60.029 63.3022C58.4121 63.3022 56.9172 62.1024 56.9172 60.0494C56.9172 58.3235 58.7522 57.0853 60.029 57.0853C61.6715 57.0853 63.051 58.5866 63.051 60.1007C63.051 61.756 61.9282 63.3022 60.029 63.3022ZM70.3589 73.0477C70.468 74.8441 70.3204 76.0502 70.0638 77.1986C68.7036 76.5442 67.7219 75.8257 66.5413 75.4536C64.7641 70.8278 63.8081 69.5382 63.3846 66.0032C66.028 68.4412 67.6513 70.661 70.3589 73.0477ZM75.3314 66.7089C76.0115 68.4155 76.4799 68.8389 76.9162 70.3146C75.0491 70.5263 74.5358 70.244 72.9382 70.3851C70.2242 67.6007 69.0244 66.3753 65.7265 63.392C70.7503 64.8933 70.4616 65.2782 75.3314 66.7025V66.7089ZM76.4029 63.0327C73.0729 61.8843 70.3332 61.2684 66.6889 60.0943C72.4121 58.9523 71.9309 58.8432 76.6082 57.8167C78.1353 58.5994 78.3534 59.2667 79.8484 60.0879C78.6229 61.294 77.9043 61.8137 76.4093 63.0327H76.4029Z" fill="url(#paint0_radial_84_105)"/>
<defs>
<radialGradient id="paint0_radial_84_105" cx="0" cy="0" r="1" gradientUnits="userSpaceOnUse" gradientTransform="translate(78.125 47.3991) rotate(135) scale(29.8411 905.459)">
<stop stop-color="#19C5FB"/>
<stop offset="1" stop-color="#0CC7BC"/>
</radialGradient>
</defs>
</svg>
