<svg width="120" height="120" viewBox="0 0 120 120" fill="none" xmlns="http://www.w3.org/2000/svg">
<rect width="120" height="120" rx="60" fill="#0CC7BC" fill-opacity="0.1"/>
<path d="M72.872 42.7842C72.6066 42.7842 72.2085 42.8708 71.6777 43.0441C71.1912 43.2173 70.8152 43.3039 70.5498 43.3039C70.1959 43.3039 69.6872 43.0441 69.0237 42.5244C68.4044 42.0046 67.9179 41.7448 67.564 41.7448C66.0158 41.7448 64.9763 42.2212 64.4455 43.174C64.1801 43.6071 63.9368 44.6249 63.7156 46.2274C63.5387 47.6133 63.1627 48.5661 62.5877 49.0858C62.0569 48.4795 61.7915 47.5267 61.7915 46.2274C61.7915 44.6249 62.3665 43.0874 63.5166 41.6148C64.6667 40.1423 66.0158 39.406 67.564 39.406C68.0948 39.406 69.8641 40.5321 72.872 42.7842ZM69.3554 44.2784C68.6477 45.751 67.6525 46.4872 66.3697 46.4872C66.0158 46.4872 65.6177 46.4006 65.1754 46.2274C65.2196 45.751 65.3965 45.123 65.7062 44.3434C66.06 43.5205 66.3918 43.0441 66.7014 42.9142H68.4265C68.6477 43.0874 68.8468 43.2606 69.0237 43.4339C69.2449 43.6071 69.3554 43.8886 69.3554 44.2784ZM88 46.7471C88 47.0936 87.9337 47.57 87.8009 48.1763C87.6682 48.7394 87.6019 49.1508 87.6019 49.4107C87.248 49.5839 86.7836 49.8654 86.2085 50.2552C85.3681 48.7827 84.8594 47.9381 84.6825 47.7216C83.9747 46.8121 83.1564 46.3573 82.2275 46.3573C79.5735 46.3573 77.1406 46.5739 74.9289 47.007C76.7425 47.4834 79.1975 47.7216 82.2938 47.7216C82.9131 47.7216 83.6208 48.6094 84.4171 50.3851C82.3823 50.6017 80.3697 50.8182 78.3791 51.0348C76.2117 51.3813 74.6193 52.0526 73.6019 53.0487C72.3633 54.2614 71.7441 56.1237 71.7441 58.6357C71.7441 59.5885 72.0095 61.0611 72.5403 63.0534C73.0711 65.0023 73.3365 66.4532 73.3365 67.406C73.3365 67.7092 73.049 68.3589 72.4739 69.355C72.2528 68.3155 71.7441 66.843 70.9479 64.9374C70.1959 62.9884 69.7093 61.5159 69.4882 60.5197C69.4882 60.4764 69.4882 59.7185 69.4882 58.2459C69.4882 57.1199 69.3554 56.1454 69.09 55.3225C68.4708 56.1021 68.1611 57.1632 68.1611 58.5058C68.1611 58.809 67.8073 59.0472 67.0995 59.2204C66.8341 58.9606 66.6572 58.8306 66.5687 58.8306C66.4803 58.8306 66.436 58.8956 66.436 59.0255C66.436 59.5885 66.7457 60.1299 67.3649 60.6497C66.7899 60.693 66.1043 60.9745 65.3081 61.4942C64.5561 61.9706 64.0695 62.447 63.8483 62.9234C64.5561 62.9234 65.3523 62.7069 66.237 62.2738C67.1659 61.7974 67.763 61.5592 68.0284 61.5592C68.6035 62.1222 68.891 62.6203 68.891 63.0534C67.4313 63.5731 66.1043 63.8329 64.91 63.8329C64.91 63.9629 64.8657 64.1361 64.7773 64.3527C64.6888 64.5692 64.6446 64.7425 64.6446 64.8724C64.6446 65.0889 64.7109 65.2838 64.8436 65.4571C65.9052 64.9374 67.0774 64.6775 68.3602 64.6775C68.4929 64.6342 68.6477 64.6125 68.8246 64.6125C69.6651 64.6125 70.3507 65.1106 70.8815 66.1067H69.7536C68.2496 66.0634 66.6351 66.3233 64.91 66.8863L65.3081 68.6404C65.5292 68.3372 65.861 67.9258 66.3033 67.406H71.2796V69.29C70.1295 69.2034 68.515 68.9652 66.436 68.5754C65.9494 68.9652 65.7062 69.2467 65.7062 69.4199C66.9889 69.6798 68.8468 70.1779 71.2796 70.9142C71.2796 71.5638 70.7267 72.7115 69.6209 74.3573C69.2228 74.2274 68.5371 73.6643 67.564 72.6682C66.7235 71.802 66.06 71.3689 65.5735 71.3689V71.6937C65.5735 72.3867 65.9937 73.1879 66.8341 74.0974C67.7188 74.9636 68.1611 75.5267 68.1611 75.7865C68.1611 76.0897 67.8515 76.5228 67.2322 77.0858H65.0427V76.826C65.0427 75.9165 64.91 74.7904 64.6446 73.4478C64.3791 72.3217 64.1359 71.2173 63.9147 70.1346C63.3839 70.6543 63.1185 71.6504 63.1185 73.123C63.1185 74.5522 63.3175 75.9814 63.7156 77.4107L61.8578 77.4756C61.8578 76.3063 61.9684 74.5522 62.1896 72.2135C62.455 69.8747 62.5877 68.1423 62.5877 67.0162C62.5877 66.0634 62.2117 65.1106 61.4597 64.1578C60.752 63.2049 59.9336 62.7285 59.0047 62.7285C58.1643 62.7285 56.0853 63.3782 52.7678 64.6775C52.1485 63.5947 50.8436 59.9783 48.8531 53.8283C46.8626 47.6783 45.8673 44.1052 45.8673 43.109C45.8673 42.6759 46.1327 42.2212 46.6635 41.7448C47.2385 41.2684 47.7251 41.0085 48.1232 40.9652C48.2117 41.0518 48.2559 41.1601 48.2559 41.29C48.2559 41.42 48.1896 41.8314 48.0569 42.5244C47.9242 43.2173 47.8578 43.867 47.8578 44.4733C48.3886 44.2568 48.7646 43.867 48.9858 43.3039C49.3397 42.3944 49.5608 41.8747 49.6493 41.7448C49.8262 42.0046 49.9147 42.2862 49.9147 42.5893C49.9147 42.9791 49.8041 43.5205 49.5829 44.2135C49.406 44.8631 49.3175 45.3612 49.3175 45.7077C49.3175 46.1408 49.4281 46.4872 49.6493 46.7471C49.9589 46.0974 50.2907 45.4261 50.6446 44.7332C51.0869 43.7804 51.5292 43.3256 51.9716 43.3689H52.237C52.237 44.6682 51.8389 45.8809 51.0427 47.007L51.3081 49.9304C51.6177 49.5839 52.0379 48.6744 52.5687 47.2019C52.9668 45.9459 53.4534 45.1879 54.0284 44.9281C54.0727 45.1013 54.0948 45.2746 54.0948 45.4478C54.0948 46.0541 53.7852 47.0719 53.1659 48.5012C52.5908 49.9304 52.3033 51.0781 52.3033 51.9443C52.3033 52.2042 52.3254 52.4424 52.3697 52.6589C53.0332 52.4424 53.6524 51.5329 54.2275 49.9304C54.8025 48.2846 55.4439 47.3751 56.1517 47.2019C56.0632 47.7649 55.6872 48.9559 55.0237 50.7749C54.4929 52.2042 54.2275 53.3952 54.2275 54.348C54.2275 54.6079 54.316 54.8028 54.4929 54.9327C55.1122 54.5862 55.643 53.6551 56.0853 52.1392C56.5719 50.3635 57.0142 49.2158 57.4123 48.6961C57.4566 48.7827 57.6998 48.9992 58.1422 49.3457C58.4518 49.5623 58.6066 49.8654 58.6066 50.2552C58.6066 50.7749 58.1864 51.9227 57.346 53.6984C56.5498 55.4741 56.1517 56.86 56.1517 57.8561C56.1517 58.116 56.2844 58.3109 56.5498 58.4408C57.169 56.795 58.1864 54.3264 59.6019 51.0348C59.8231 51.208 60.0442 51.3813 60.2654 51.5545C60.4866 51.7278 60.5972 52.0093 60.5972 52.3991C60.5972 52.6156 59.5355 54.6945 57.4123 58.6357C57.6335 58.7223 57.9652 58.9172 58.4076 59.2204C59.1596 58.0077 60.4202 56.2537 62.1896 53.9582C62.1896 55.041 61.7915 56.3186 60.9953 57.7912C60.1991 59.2204 59.8009 60.2815 59.8009 60.9745C59.8009 61.5808 60.1106 62.0356 60.7299 62.3387C61.3049 60.8662 62.2338 58.6574 63.5166 55.7123C64.2243 56.3619 64.5782 56.9466 64.5782 57.4664C64.5782 57.8128 64.1137 58.4192 63.1848 59.2854C62.3002 60.1083 61.8578 60.8229 61.8578 61.4292C61.8578 61.5592 61.8799 61.7107 61.9242 61.884C62.9415 61.6674 64.0253 60.9312 65.1754 59.6752C66.3697 58.4192 66.9668 57.2931 66.9668 56.297V55.9722C66.9226 55.9288 66.8784 55.9072 66.8341 55.9072C66.6572 55.9072 66.3697 56.3619 65.9716 57.2715C65.7062 56.8384 65.5513 55.0193 65.5071 51.8144V50.645C65.0648 51.0781 64.7551 51.7711 64.5782 52.7239C64.2686 54.0665 64.0916 54.8028 64.0474 54.9327C63.8705 54.7595 63.6935 54.3264 63.5166 53.6334C63.4281 53.1137 63.0079 52.7455 62.2559 52.529C62.2559 51.7494 62.5434 50.9049 63.1185 49.9954C63.7378 49.0858 64.4234 48.4578 65.1754 48.1114C67.8294 46.8121 70.218 45.2096 72.3412 43.3039C72.4739 43.4339 72.5403 43.6288 72.5403 43.8886C72.5403 44.365 72.4076 44.7548 72.1422 45.058C72.3633 45.1446 72.673 45.3395 73.0711 45.6427C73.5134 44.9064 73.7346 43.9319 73.7346 42.7193C73.7346 41.8531 72.8942 40.9002 71.2133 39.8608C69.5324 38.778 68.2496 38.2367 67.3649 38.2367C65.684 38.2367 64.158 38.9513 62.7867 40.3805C61.5924 41.6365 60.7299 43.1307 60.1991 44.8631C59.3586 44.8198 57.921 44.1268 55.8863 42.7842V40.9652C56.1959 41.0085 56.6161 41.2251 57.1469 41.6148C57.8989 42.1346 58.3191 42.4377 58.4076 42.5244L60.1991 42.2645C60.1991 42.2212 59.5798 41.7231 58.3412 40.7703C57.4566 40.0773 57.0142 39.5576 57.0142 39.2111C57.0142 38.778 57.1248 38.3882 57.346 38.0418C57.5671 37.6953 57.7883 37.3705 58.0095 37.0673C58.5403 37.9335 59.3586 39.2328 60.4645 40.9652L61.7915 40.6404C61.1722 39.5576 60.2433 37.8902 59.0047 35.6381C59.5355 35.1183 60.4202 34.4254 61.6588 33.5592C61.9242 33.8623 62.0569 34.7069 62.0569 36.0928C62.0569 37.4787 62.4771 38.4532 63.3175 39.0162C63.4945 38.3666 63.5829 37.5654 63.5829 36.6125C63.5829 36.2227 63.5608 35.5947 63.5166 34.7285C63.4724 33.8623 63.4502 33.2343 63.4502 32.8445C63.8483 32.8445 64.5782 32.563 65.6398 32C65.6398 32.4331 65.6177 33.0611 65.5735 33.884C65.5292 34.6636 65.5071 35.2483 65.5071 35.6381C65.5071 36.4609 65.5956 37.1972 65.7725 37.8469C66.0379 37.2405 66.4581 35.4432 67.0332 32.4548L69.2891 32.065C68.7583 33.2343 68.0948 35.0534 67.2986 37.522C68.0063 37.4354 68.7362 36.7208 69.4882 35.3782C69.9747 34.3821 70.4834 33.3859 71.0142 32.3898C71.6777 32.4331 72.3191 32.7363 72.9384 33.2993C72.8057 33.5592 72.2528 34.1872 71.2796 35.1833C70.3065 36.1361 69.842 36.959 69.8863 37.652V37.8469C70.4613 37.8036 71.2133 37.2405 72.1422 36.1578C73.2923 34.9018 74.0221 34.1655 74.3318 33.949L75.6588 35.2483C75.6145 35.3782 75.0174 35.9412 73.8673 36.9374C72.7615 37.8902 72.2085 38.6481 72.2085 39.2111V39.406C73.2701 39.0162 74.2212 38.3666 75.0616 37.4571L77.6493 37.9118V39.7309C76.7646 39.9041 75.4597 40.3155 73.7346 40.9652C74.1327 41.1384 74.5529 41.2251 74.9953 41.2251C75.3934 41.2251 75.8578 41.1168 76.3886 40.9002C76.9637 40.6837 77.3175 40.5754 77.4502 40.5754C79.5735 40.5754 81.763 41.0951 84.019 42.1346C86.673 43.3906 88 44.9281 88 46.7471ZM60.9289 47.9165H59.2701C56.9257 46.4872 55.6651 45.3395 55.4882 44.4733C56.3286 44.7332 57.169 44.993 58.0095 45.2529C59.0269 45.5128 59.8673 45.6427 60.5308 45.6427C60.5308 45.9025 60.5972 46.2923 60.7299 46.8121C60.8626 47.2885 60.9289 47.6566 60.9289 47.9165ZM61.3934 49.4756L61.1943 50.0603L59.0711 49.1508V48.5661L61.3934 49.4756ZM48.9858 57.0766V57.2065C46.8183 57.0333 44.2306 56.6651 41.2227 56.1021C41.0458 55.8855 40.9573 55.5607 40.9573 55.1276C40.9573 54.6079 41.0679 54.1531 41.2891 53.7633C42.7488 54.2397 44.2085 54.6945 45.6682 55.1276C47.9242 55.8206 49.03 56.4702 48.9858 57.0766ZM60.9953 69.5499C60.9953 71.7154 60.5529 74.0974 59.6682 76.696C58.6951 76.133 58.2085 75.4401 58.2085 74.6172C58.2085 74.0108 58.7615 72.9497 59.8673 71.4339V70.0696C59.1153 70.8492 57.9431 71.8886 56.3507 73.1879L55.8863 71.3689C56.4171 71.2823 57.0363 70.8492 57.7441 70.0696C58.4518 69.2467 58.7836 68.5754 58.7393 68.0557V67.7309C58.2528 67.9041 57.5671 68.3588 56.6825 69.0951C55.7978 69.8314 55.1564 70.2861 54.7583 70.4594C54.7583 70.0696 55.2449 69.3983 56.218 68.4455C57.2354 67.4926 57.7883 66.6048 57.8768 65.7819C56.9036 66.0418 55.6209 66.9729 54.0284 68.5754C53.8515 67.9691 53.5419 67.1029 53.0995 65.9768C53.4534 65.8469 54.4044 65.4571 55.9526 64.8074C57.3681 64.2011 58.2528 63.8979 58.6066 63.8979C59.4471 63.8979 60.0885 64.6558 60.5308 66.1717C60.8404 67.2544 60.9953 68.3805 60.9953 69.5499ZM50.2464 61.4292L49.1848 61.4942C46.4866 61.5375 43.6777 61.0827 40.7583 60.1299C42.4392 60.1732 44.872 60.3898 48.0569 60.7796L49.0521 60.2599C47.5482 59.7401 44.7836 59.2421 40.7583 58.7657L41.2227 56.9466C44.0537 57.9428 46.6414 58.4625 48.9858 58.5058C49.1627 59.1988 49.5829 60.1732 50.2464 61.4292ZM74.1327 85.0766L73.6019 87.6102C72.8499 87.4803 72.2306 86.9822 71.7441 86.116C71.3017 85.2498 70.8594 84.8167 70.4171 84.8167L70.0853 84.8817C69.8641 85.5746 69.4439 86.6141 68.8246 88C68.2054 87.8268 67.7409 87.4153 67.4313 86.7657C67.1659 86.116 66.9005 85.488 66.6351 84.8817H65.2417C65.109 85.5746 64.8657 86.6141 64.5118 88C63.8483 88 63.0079 86.8306 61.9905 84.4919C61.1058 82.3264 60.6635 80.8322 60.6635 80.0093V77.9304C61.1501 78.1903 62.3002 78.3202 64.1137 78.3202C64.6446 79.9227 64.91 81.3519 64.91 82.6079C66.6351 82.6945 68.3602 82.7595 70.0853 82.8028C72.3855 83.0626 73.7346 83.8206 74.1327 85.0766ZM51.0427 63.703C49.1406 63.6164 45.9336 63.5298 41.4218 63.4432H40.8246V63.2483C40.7804 62.3821 41.2227 61.949 42.1517 61.949C43.8325 61.949 46.7962 62.5336 51.0427 63.703ZM51.7725 65.1322C51.7725 66.1284 51.3965 66.6264 50.6446 66.6264C49.981 66.6264 48.9637 66.5398 47.5924 66.3666C46.2212 66.1933 45.2038 66.1067 44.5403 66.1067C43.9652 66.1067 43.4123 66.15 42.8815 66.2367L40.9573 65.652C41.8863 65.0456 43.0363 64.7425 44.4076 64.7425C45.1596 64.7425 46.3981 64.8074 48.1232 64.9374C49.6714 65.1106 50.8878 65.1756 51.7725 65.1322ZM40.2938 54.2831C40.2938 55.0193 40.1611 56.0155 39.8957 57.2715C39.5419 58.8306 39.1659 59.6102 38.7678 59.6102C37.5292 59.6102 36.2022 59.2421 34.7867 58.5058C33.1943 57.6396 32.3981 56.6435 32.3981 55.5174C32.3981 54.9544 32.7077 54.3264 33.327 53.6334C33.9905 52.9404 34.6098 52.594 35.1848 52.594C36.3349 52.594 38.0379 53.157 40.2938 54.2831ZM53.8294 70.7842C52.8562 70.7842 51.3965 70.8275 49.4502 70.9142C47.5039 71.0008 46.0442 71.0441 45.0711 71.0441C43.6556 71.0441 42.3949 71.0008 41.2891 70.9142C40.891 70.6976 40.6919 70.5027 40.6919 70.3295C40.6919 69.9397 41.6872 69.7448 43.6777 69.7448H45.2038C47.7251 69.7448 49.8262 69.6365 51.5071 69.4199C51.3302 68.8569 50.7109 68.5754 49.6493 68.5754C49.3839 68.5754 48.9858 68.6404 48.455 68.7703C47.9684 68.9002 47.5703 68.9652 47.2607 68.9652C46.9953 68.9652 46.6635 68.8353 46.2654 68.5754C45.9115 68.3155 45.5798 68.1856 45.2701 68.1856C44.4739 68.1856 43.2796 68.4455 41.6872 68.9652C41.1122 68.4022 40.8246 67.9041 40.8246 67.471C41.5766 67.471 42.7046 67.406 44.2085 67.2761C45.7567 67.1029 46.9068 67.0162 47.6588 67.0162C48.455 67.0162 49.9589 67.2761 52.1706 67.7958C52.5245 68.5321 53.0774 69.5282 53.8294 70.7842ZM54.5592 72.5383L41.2227 73.7076V73.123L54.5592 71.9536V72.5383ZM39.8957 64.5476C39.5861 64.894 39.0774 65.0673 38.3697 65.0673C37.9716 65.0673 36.8657 64.8507 35.0521 64.4176C33.2828 63.9412 32.2654 63.6164 32 63.4432V61.2343C32.5308 60.4548 33.4597 60.065 34.7867 60.065C35.1406 60.065 35.6714 60.1083 36.3791 60.1949C37.1311 60.2382 37.684 60.2599 38.0379 60.2599C38.613 60.2599 39.0774 60.1949 39.4313 60.065C39.4313 60.4548 39.4976 61.1694 39.6303 62.2088C39.8073 63.2049 39.8957 63.9845 39.8957 64.5476ZM55.4218 73.7076C54.891 74.314 52.812 75.1152 49.1848 76.1114C46.7962 76.6744 44.4076 77.2591 42.019 77.8654L41.6209 74.8121H41.8863C43.346 74.8121 44.2306 74.942 44.5403 75.2019C44.8057 74.942 45.4692 74.8121 46.5308 74.8121C47.6367 74.8121 49.1185 74.6605 50.9763 74.3573C53.5419 73.9675 55.0237 73.751 55.4218 73.7076ZM61.3934 87.0255C61.128 87.3287 60.9731 87.6319 60.9289 87.935H59.0711C58.5845 87.1121 58.2528 86.5924 58.0758 86.3759C57.5893 85.8128 57.0585 85.4447 56.4834 85.2715C56.3949 85.8778 56.1517 86.7657 55.7536 87.935H53.4976V87.3503C53.5419 86.5274 53.4092 85.7046 53.0995 84.8817H51.3744C50.8878 85.5746 50.0695 86.4841 48.9194 87.6102C48.5656 87.3503 48.2338 87.1988 47.9242 87.1554V85.1415C47.9242 85.0116 48.5213 83.9722 49.7156 82.0232C50.91 80.0742 51.5071 78.4718 51.5071 77.2158C52.8784 76.3496 54.5814 75.9598 56.6161 76.0464H57.4123C57.2796 76.4362 56.6825 77.5839 55.6209 79.4896C54.6919 81.222 54.2275 82.2397 54.2275 82.5429C54.2275 83.0626 54.6477 83.3658 55.4882 83.4524C56.1517 83.4957 56.8373 83.5391 57.545 83.5824C59.5798 84.0155 60.8626 85.1632 61.3934 87.0255ZM40.2938 70.7842C39.6303 71.1307 38.5908 71.3039 37.1754 71.3039C35.7599 71.3039 34.1675 70.8925 32.3981 70.0696V67.0162C33.9905 66.2367 35.9147 65.8469 38.1706 65.8469C39.5861 65.8469 40.2938 66.4099 40.2938 67.536V70.7842ZM40.6919 78.1903C39.5861 78.4934 37.8831 78.645 35.5829 78.645C33.4597 78.645 32.3981 77.5623 32.3981 75.3967C32.3981 74.0108 32.9731 73.123 34.1232 72.7332C34.6983 72.5599 35.9147 72.4733 37.7725 72.4733C38.5245 72.4733 39.4755 72.495 40.6256 72.5383C40.3602 73.1446 40.2275 74.0108 40.2275 75.1369C40.2275 76.3496 40.3823 77.3674 40.6919 78.1903ZM70.6161 48.3063L70.218 47.7865L68.8246 48.8909L69.2228 49.4756L70.6161 48.3063ZM72.1422 50.58C71.6556 50.2769 71.0142 49.9304 70.218 49.5406C70.218 49.8005 70.1517 50.1903 70.019 50.71C69.8863 51.1864 69.8199 51.5545 69.8199 51.8144C69.8641 51.8144 70.2401 51.5545 70.9479 51.0348C71.3902 50.7316 71.7883 50.58 72.1422 50.58ZM71.8768 53.3086V51.4896H71.2133V53.3086H71.8768ZM70.2844 54.8677V52.2691H69.5545V54.8677H70.2844ZM68.891 49.9304C67.6967 50.017 67.188 50.7749 67.3649 52.2042L66.5687 53.5684L67.3649 55.1276C67.7188 54.3047 68.2275 52.5723 68.891 49.9304ZM63.9147 50.0603L63.3175 49.8654L62.455 51.6195L62.9858 51.8793L63.9147 50.0603ZM60.3318 69.29V67.471H59.6682V69.29H60.3318Z" fill="#59F5FF"/>
</svg>
