<svg width="96" height="140" viewBox="0 0 96 140" fill="none" xmlns="http://www.w3.org/2000/svg">
<path d="M89.2786 29.7082L89.2784 29.708C87.4837 27.2753 84.9628 25.1713 81.4016 24.1068C80.8359 24.7996 80.2124 25.4429 79.5369 26.0267C82.1858 27.161 85.7668 29.6232 87.7612 34.8899C88.4492 36.7021 88.9434 38.8372 89.1481 41.3477C90.6099 40.1525 91.8447 38.7612 92.7354 37.1361C92.1009 34.802 91.0405 32.0946 89.2786 29.7082Z" stroke="url(#paint0_radial_524_770)" stroke-width="1.5"/>
<path d="M81.5687 3.19541C83.0242 4.21592 84.7099 5.55577 86.38 7.23148C89.9708 10.8341 93.4661 15.9631 94.4814 22.7972C93.5042 21.6173 92.4504 20.7223 91.3597 20.058L81.5687 3.19541ZM81.5687 3.19541C84.2226 6.89945 85.2665 10.9136 85.0443 14.6819C84.9685 15.9658 84.7457 17.2177 84.392 18.4156C84.6622 18.4 84.9385 18.3915 85.2198 18.3915C87.1274 18.3915 89.283 18.7906 91.3594 20.0578L81.5687 3.19541Z" stroke="url(#paint1_radial_524_770)" stroke-width="1.5"/>
<path d="M89.784 22.637L89.7839 22.6369C88.4595 21.8291 86.9301 21.4121 85.2205 21.4121C84.7065 21.4121 84.1708 21.4501 83.6279 21.5259L83.6266 21.526L83.3345 21.5663C86.6922 22.7924 89.5102 24.9252 91.7146 27.9146C92.7024 29.2526 93.5529 30.7473 94.2646 32.3784C94.4844 31.1576 94.6293 29.9773 94.707 28.8355L93.519 26.7324C93.519 26.7323 93.519 26.7323 93.519 26.7323C92.4636 24.8645 91.2008 23.5008 89.784 22.637Z" stroke="url(#paint2_radial_524_770)" stroke-width="1.5"/>
<path d="M6.72394 29.7078L6.72363 29.7082C4.96182 32.0945 3.90135 34.8018 3.26565 37.1361C4.1573 38.7612 5.39216 40.1525 6.85335 41.3476C7.05876 38.8371 7.55303 36.7019 8.24115 34.8895C10.2355 29.6234 13.8161 27.1612 16.4649 26.0268C15.7891 25.4428 15.1657 24.7995 14.5997 24.1068C11.0393 25.1712 8.51736 27.2753 6.72394 29.7078Z" stroke="url(#paint3_radial_524_770)" stroke-width="1.5"/>
<path d="M10.957 14.6819L10.957 14.6819C11.0327 15.9654 11.2548 17.2173 11.6093 18.4156C11.3396 18.4 11.0639 18.3915 10.7827 18.3915C8.87382 18.3915 6.71814 18.7907 4.64165 20.0579L10.957 14.6819ZM10.957 14.6819C10.7347 10.9134 11.7788 6.89895 14.4331 3.19472M10.957 14.6819L14.4331 3.19472M14.4331 3.19472C12.9775 4.21532 11.2915 5.5554 9.6209 7.23148C6.02985 10.8344 2.53405 15.9639 1.51857 22.7987C2.49672 21.6182 3.55109 20.7227 4.64127 20.0581L14.4331 3.19472Z" stroke="url(#paint4_radial_524_770)" stroke-width="1.5"/>
<path d="M2.48415 26.7326L2.48402 26.7328L1.29594 28.836C1.37371 29.978 1.51859 31.1585 1.73849 32.3795C2.44983 30.7482 3.30033 29.2533 4.2882 27.9153C6.49159 24.9257 9.30966 22.7928 12.6684 21.5666L12.3775 21.5265L12.3765 21.5264C11.8322 21.4506 11.2952 21.4125 10.7837 21.4125C9.0728 21.4125 7.5435 21.8297 6.22056 22.6373L6.21976 22.6378C4.80079 23.5015 3.53822 24.865 2.48415 26.7326Z" stroke="url(#paint5_radial_524_770)" stroke-width="1.5"/>
<path d="M14.7915 77.9023L14.9095 77.9146C14.875 77.8618 14.8413 77.8095 14.8083 77.7578C14.8026 77.806 14.7971 77.8541 14.7915 77.9023ZM14.7915 77.9023L14.9104 77.916C14.967 78.0027 15.0257 78.0909 15.0866 78.1803C15.0875 78.1816 15.0884 78.183 15.0894 78.1844C15.2082 78.3589 15.3351 78.5382 15.4705 78.7214M14.7915 77.9023C14.7879 77.9371 14.7835 77.9719 14.7792 78.0068C14.7733 78.0549 14.7673 78.103 14.763 78.1516C14.7486 78.2958 14.7384 78.44 14.7283 78.5842C14.7263 78.6129 14.7243 78.6415 14.7222 78.6702C14.7207 78.6919 14.719 78.7138 14.7173 78.7357C14.7136 78.7835 14.7099 78.8318 14.7074 78.88M15.4705 78.7214C15.4726 78.6916 15.4746 78.6625 15.4767 78.6338C15.4868 78.4898 15.4961 78.3586 15.5093 78.2264L15.5102 78.2177L15.5101 78.2177C15.5144 78.1693 15.5174 78.1466 15.5213 78.1172C15.5251 78.0888 15.5296 78.0542 15.537 77.9845C15.5534 77.8422 15.5688 77.71 15.587 77.5802C17.3754 80.2864 21.2854 84.4081 28.958 85.6829C28.6281 85.8911 28.2935 86.0837 27.9549 86.2615M15.4705 78.7214C15.4704 78.7222 15.4703 78.723 15.4703 78.7237C15.4681 78.7545 15.4661 78.7804 15.4643 78.8039C15.4611 78.8457 15.4584 78.8797 15.4564 78.9189M15.4705 78.7214C17.4502 81.4014 21.2359 84.9125 27.9549 86.2615M27.9549 86.2615C28.3322 86.3372 28.7187 86.4061 29.1147 86.4677C26.1084 88.2878 22.7612 88.8877 19.6576 88.8877C18.8435 88.8877 18.0467 88.8457 17.2759 88.7754M27.9549 86.2615C25.3008 87.6546 22.4011 88.1377 19.6576 88.1377C19.0141 88.1377 18.3804 88.1106 17.7608 88.0634M17.2759 88.7754C16.7105 87.6469 16.1747 86.4333 15.7392 85.179M17.2759 88.7754L17.9464 88.4394C17.8841 88.315 17.8222 88.1896 17.7608 88.0634M17.2759 88.7754L17.3441 88.0285C17.4822 88.0411 17.6211 88.0527 17.7608 88.0634M15.7392 85.179C15.7384 85.1747 15.7369 85.171 15.7357 85.1679C15.7351 85.1665 15.7346 85.1653 15.7343 85.1642C15.6588 84.9432 15.5846 84.7209 15.5165 84.4975L15.5164 84.4971C15.514 84.491 15.5115 84.485 15.5091 84.4777M15.7392 85.179L16.4746 85.0316C16.4683 85.0004 16.4609 84.9731 16.454 84.9511M15.7392 85.179L16.4477 84.933C16.4498 84.939 16.4519 84.9451 16.454 84.9511M15.5091 84.4777C15.3 83.8061 15.1231 83.1271 14.987 82.4456C14.9798 82.4105 14.9736 82.376 14.9675 82.3416C14.9642 82.3227 14.9608 82.3039 14.9573 82.2851C14.9262 82.1277 14.8998 81.9691 14.8735 81.8116L14.8707 81.7949M15.5091 84.4777L15.7629 84.3987L16.2252 84.2548C16.2228 84.2471 16.2205 84.2395 16.2181 84.2319M15.5091 84.4777L15.8491 84.3641L16.2205 84.2401C16.2173 84.2307 16.2142 84.2224 16.2127 84.2184C16.2121 84.2169 16.2117 84.216 16.2117 84.216C16.2117 84.2159 16.212 84.2167 16.2127 84.2184L16.2181 84.2319M14.8707 81.7949C14.8595 81.7233 14.8496 81.653 14.8397 81.5826C14.8175 81.4332 14.7989 81.2838 14.7816 81.1344C14.7787 81.1097 14.7757 81.0851 14.7727 81.0604C14.7666 81.011 14.7606 80.9616 14.7556 80.9122C14.742 80.7591 14.7296 80.6048 14.7185 80.4517M14.8707 81.7949L15.6118 81.6797C15.6116 81.6783 15.6113 81.677 15.6111 81.6756M14.8707 81.7949L15.6104 81.6714L15.6111 81.6756M14.7185 80.4517C14.7166 80.4184 14.7141 80.385 14.7116 80.3518C14.7091 80.3199 14.7067 80.2881 14.7049 80.2566M14.7185 80.4517L15.4673 80.4092C15.4672 80.4071 15.467 80.405 15.4669 80.4029M14.7185 80.4517L15.4665 80.3973C15.4667 80.3992 15.4668 80.401 15.4669 80.4029M14.7049 80.2566C14.695 80.0394 14.6876 79.8233 14.6876 79.6085C14.6876 79.3665 14.695 79.1233 14.7074 78.88M14.7049 80.2566L15.4541 80.2225C15.454 80.2209 15.454 80.2192 15.4539 80.2176M14.7049 80.2566L15.4536 80.2134C15.4537 80.2148 15.4538 80.2162 15.4539 80.2176M14.7074 78.88L15.4563 78.9196C15.4563 78.9193 15.4564 78.9191 15.4564 78.9189M14.7074 78.88L15.4564 78.9182C15.4564 78.9184 15.4564 78.9186 15.4564 78.9189M15.4564 78.9189C15.4445 79.1519 15.4376 79.3819 15.4376 79.6085C15.4376 79.8052 15.4443 80.0068 15.4539 80.2176M17.7608 88.0634C17.2787 87.0721 16.8278 86.0249 16.454 84.9511M16.454 84.9511C16.4486 84.9338 16.4436 84.9198 16.44 84.9099M16.44 84.9099C16.4413 84.9139 16.4427 84.9178 16.444 84.9218M16.44 84.9099C16.4395 84.9086 16.439 84.9073 16.4385 84.9061C16.4354 84.8977 16.4312 84.8873 16.433 84.8918L16.4367 84.9014C16.4384 84.9058 16.441 84.9129 16.444 84.9218M16.44 84.9099C16.3668 84.6956 16.2972 84.4866 16.234 84.279L16.2246 84.2482L16.2181 84.2319M16.444 84.9218L16.444 84.9218L16.4456 84.9265C16.4451 84.9249 16.4445 84.9233 16.444 84.9218ZM16.2181 84.2319C16.019 83.59 15.8514 82.9441 15.7225 82.2987L15.7217 82.295L15.7217 82.295C15.7161 82.2675 15.7128 82.2486 15.7082 82.223C15.7048 82.2038 15.7008 82.1808 15.6946 82.1476L15.6931 82.1398L15.6931 82.1398C15.6642 81.9935 15.6393 81.8446 15.6125 81.6837L15.6111 81.6756M15.6111 81.6756C15.6012 81.6117 15.5922 81.5479 15.5824 81.4781L15.5816 81.472L15.5815 81.472C15.561 81.3342 15.5435 81.1939 15.5266 81.048L15.5265 81.0473C15.5225 81.013 15.519 80.9844 15.5158 80.9584C15.5106 80.9164 15.5063 80.8815 15.5023 80.8414M15.5023 80.8414C15.5024 80.8429 15.5025 80.8443 15.5027 80.8458L14.7556 80.9122L15.5019 80.8374C15.502 80.8388 15.5021 80.8401 15.5023 80.8414ZM15.5023 80.8414C15.4894 80.6959 15.4776 80.549 15.4669 80.4029M15.4669 80.4029C15.4647 80.3646 15.4619 80.3279 15.4596 80.2981L15.4595 80.297C15.4571 80.265 15.4553 80.2405 15.4539 80.2176M15.5493 77.5229C15.4878 77.4291 15.429 77.337 15.3726 77.2469C15.3718 77.2455 15.3709 77.2441 15.37 77.2427C15.2522 77.0541 15.1454 76.8742 15.0489 76.7044L14.9734 76.6886L15.5493 77.5229Z" stroke="url(#paint6_radial_524_770)" stroke-width="1.5"/>
<path d="M80.5522 79.089L80.5521 79.0891L80.5519 79.0774C80.551 79.0439 80.5507 79.0224 80.5505 79.0055C80.5502 78.9837 80.55 78.9697 80.5489 78.9479L80.5488 78.9465C80.5452 78.8717 80.5399 78.7962 80.5336 78.7175C78.5543 81.3979 74.7674 84.9114 68.0454 86.261C70.6992 87.6541 73.5983 88.1372 76.3428 88.1372C76.9875 88.1372 77.6229 88.1101 78.2427 88.0623C79.1228 86.2558 79.8916 84.2616 80.2858 82.275C80.2896 82.2522 80.2938 82.2323 80.2973 82.2167C80.3347 82.0235 80.3681 81.827 80.3998 81.6278L80.4035 81.6034L80.4072 81.5791L80.4094 81.5646C80.4098 81.5613 80.41 81.56 80.4099 81.5601L80.4116 81.5449L80.4138 81.5298C80.4409 81.3474 80.4645 81.1667 80.4844 80.9854L80.4852 80.9782L80.4861 80.9711C80.4902 80.939 80.4908 80.9336 80.4914 80.9267C80.4921 80.9196 80.4929 80.911 80.498 80.8696C80.5165 80.6794 80.5316 80.4892 80.5432 80.3003L80.5432 80.2994C80.5445 80.2787 80.5463 80.2591 80.5471 80.2505L80.5473 80.2484C80.5477 80.2441 80.5479 80.2416 80.548 80.2405C80.5593 80.0322 80.564 79.8204 80.564 79.608C80.564 79.4373 80.5594 79.2653 80.5522 79.089Z" stroke="url(#paint7_radial_524_770)" stroke-width="1.5"/>
<path d="M25.7807 133.214L25.8768 134.21C25.8947 134.22 25.9132 134.23 25.9325 134.241C26.1916 134.381 26.5811 134.583 27.0936 134.827C28.1188 135.315 29.6355 135.969 31.5853 136.625C35.4852 137.936 41.1123 139.25 48.0011 139.25C54.8893 139.25 60.5157 137.937 64.416 136.626C66.3659 135.971 67.8831 135.317 68.909 134.828C69.4219 134.584 69.8118 134.382 70.0714 134.242C70.0913 134.231 70.1103 134.221 70.1286 134.211L70.2414 133.03C65.4348 135.435 57.5976 138.34 47.813 138.34C37.2473 138.34 29.8199 135.39 25.7807 133.214Z" stroke="url(#paint8_radial_524_770)" stroke-width="1.5"/>
<path d="M63.2588 86.7265L64.6114 87.69C64.6115 87.6901 64.6116 87.6902 64.6118 87.6903L64.6122 87.6906L65.0473 87.0797L63.2588 86.7265ZM63.2588 86.7265C63.6119 89.1133 63.1325 91.673 61.3741 93.8032C61.0334 94.2158 60.6479 94.6085 60.2155 94.978C63.6849 93.6492 67.1913 92.3484 70.5357 92.3484C71.6747 92.3484 72.799 92.498 73.9092 92.8467C74.3384 92.9801 74.7496 93.14 75.1452 93.3224C75.5531 92.7339 76.038 92.0009 76.5486 91.1595C76.4796 91.1603 76.4107 91.1607 76.3421 91.1607L63.2588 86.7265ZM25.468 92.3484C28.812 92.3484 32.318 93.6489 35.7866 94.9775C35.3542 94.6079 34.9688 94.2151 34.6281 93.8023C32.8701 91.6717 32.391 89.1114 32.744 86.7241L31.3887 87.69C31.3886 87.6901 31.3885 87.6901 31.3884 87.6902C28.1451 90.0072 24.1869 91.1607 19.6579 91.1607C19.5904 91.1607 19.5228 91.1603 19.455 91.1595C19.9655 92.0012 20.4501 92.7345 20.8578 93.323C21.2551 93.1402 21.6672 92.9803 22.0937 92.8469C23.2042 92.498 24.3287 92.3484 25.468 92.3484Z" stroke="url(#paint9_radial_524_770)" stroke-width="1.5"/>
<mask id="path-11-inside-1_524_770" fill="white">
<path d="M41.694 43.8788C35.5758 42.3109 31.2232 37.5713 28.1598 32.1131C23.3965 33.4761 19.9099 37.6552 19.5437 42.6689C19.5251 42.9529 19.5016 43.243 19.4868 43.5393C21.428 42.9689 24.2502 42.364 27.4967 42.364C29.6705 42.364 31.7874 42.6381 33.7831 43.1825C37.5208 44.1986 39.9656 45.6184 41.892 46.9048C41.7324 46.2381 41.6445 45.5307 41.6445 44.7999C41.6445 44.4875 41.6606 44.1788 41.694 43.8788ZM76.4555 42.6689C76.0744 37.3701 72.2018 33.0033 67.0153 31.9119C62.4301 40.3849 57.0271 43.0368 53.9315 43.8677C53.9699 44.1727 53.9847 44.4838 53.9847 44.7999C53.9847 45.6443 53.8697 46.4555 53.6569 47.2086C55.655 45.8468 58.1877 44.2826 62.2198 43.1825C64.2143 42.6381 66.3275 42.364 68.5062 42.364C71.7491 42.364 74.5674 42.9689 76.5136 43.5393C76.4975 43.243 76.4741 42.9529 76.4555 42.6689ZM77.1496 75.5475C76.2922 75.5475 75.5969 74.8549 75.5969 73.9981C75.5969 73.1413 76.2922 72.4449 77.1496 72.4449C78.0082 72.4449 78.7023 73.1413 78.7023 73.9981C78.7023 74.8549 78.0082 75.5475 77.1496 75.5475ZM73.1521 79.4797C72.2934 79.4797 71.5993 78.787 71.5993 77.9302C71.5993 77.0734 72.2934 76.3771 73.1521 76.3771C74.0107 76.3771 74.7085 77.0734 74.7085 77.9302C74.7085 78.787 74.0107 79.4797 73.1521 79.4797ZM67.6624 82.1439C66.805 82.1439 66.1097 81.4513 66.1097 80.5945C66.1097 79.7377 66.805 79.0414 67.6624 79.0414C68.5223 79.0414 69.2189 79.7377 69.2189 80.5945C69.2189 81.4513 68.5223 82.1439 67.6624 82.1439ZM77.084 67.1238C76.3033 70.9869 74.2359 73.9721 71.1428 75.6462C67.8963 77.4006 63.7688 77.5302 60.8613 75.9623C56.0707 73.3771 55.8839 73.0536 53.5987 69.0918L53.4429 68.8214C52.5001 67.1892 51.613 66.5954 51.1849 66.7362C50.815 66.8584 50.3683 67.7177 50.539 69.2473C50.8916 72.4104 51.4855 75.7302 54.4957 78.4093L55.1935 79.0303C55.7317 79.0945 56.281 79.2167 56.8291 79.4142C57.715 79.734 58.596 80.2402 59.4435 81.0019C60.4271 81.8847 61.251 83.0501 61.8115 84.3588C61.8721 84.5032 61.9291 84.6514 61.9872 84.8008L65.7472 84.3316C74.3571 83.2625 78.1715 78.5611 79.6785 75.8549L80.4728 74.4326C79.5944 71.5425 78.1914 68.9239 77.084 67.1238ZM64.145 72.7573C56.3912 71.4857 56.453 63.941 57.6618 60.3212C58.8062 56.8964 67.1972 52.8346 71.5189 58.8002C75.8443 64.7633 71.9012 74.0252 64.145 72.7573ZM31.853 72.7573C24.098 74.0252 20.1537 64.7633 24.4803 58.8002C28.8007 52.8346 37.1929 56.8964 38.3374 60.3212C39.5474 63.941 39.6068 71.4857 31.853 72.7573ZM75.8381 62.0965C75.6005 59.6594 74.7766 57.8322 73.7435 56.4742C71.0154 55.2704 67.4187 53.9877 64.4815 53.9877C63.9173 53.9877 63.3989 54.0383 62.9374 54.1334C60.6633 54.6161 59.0574 56.0433 57.3562 57.5545C55.0562 59.5952 52.4506 61.9089 48.0002 61.9089C43.5486 61.9089 40.9455 59.5952 38.6467 57.5545C36.9455 56.0433 35.3395 54.6161 33.0655 54.1334C32.604 54.0383 32.0856 53.9877 31.5202 53.9877C28.5793 53.9877 24.9826 55.2704 22.2595 56.4742C21.2264 57.8359 20.3986 59.6669 20.166 62.1077C20.1227 63.0324 19.9817 63.8929 20.1759 65.2052C20.6869 70.5794 23.3928 73.1227 25.5889 74.3104C28.3553 75.8055 31.9817 75.9351 34.4165 74.6215C38.8261 72.2437 38.8681 72.1708 41.0803 68.335L41.2362 68.0646C42.9684 65.0608 44.5211 65.0386 45.2907 65.2892C46.5502 65.7003 47.2133 67.3176 46.977 69.4152C46.6578 72.3153 46.0924 75.5857 43.6587 78.3944C45.6495 78.7673 47.2554 79.6352 48.0002 80.092C48.7425 79.6352 50.3535 78.7673 52.3392 78.3944C49.9068 75.5808 49.3451 72.3153 49.0222 69.4152C48.7884 67.3176 49.4527 65.7003 50.711 65.2892C51.4818 65.0386 53.0346 65.0608 54.7655 68.0646L54.9226 68.335C57.1348 72.1708 57.1781 72.2437 61.5863 74.6215C64.02 75.9351 67.6476 75.8055 70.4141 74.3104C72.6102 73.1227 75.311 70.5794 75.8257 65.2089C75.9903 64.2077 75.9247 62.9212 75.8381 62.0965ZM28.3355 82.1439C27.4781 82.1439 26.7791 81.4513 26.7791 80.5945C26.7791 79.7377 27.4781 79.0414 28.3355 79.0414C29.1942 79.0414 29.8883 79.7377 29.8883 80.5945C29.8883 81.4513 29.1942 82.1439 28.3355 82.1439ZM22.8471 79.4797C21.9885 79.4797 21.2907 78.787 21.2907 77.9302C21.2907 77.0734 21.9885 76.3771 22.8471 76.3771C23.7058 76.3771 24.3986 77.0734 24.3986 77.9302C24.3986 78.787 23.7058 79.4797 22.8471 79.4797ZM18.8496 75.5475C17.991 75.5475 17.2969 74.8549 17.2969 73.9981C17.2969 73.1413 17.991 72.4449 18.8496 72.4449C19.707 72.4449 20.4024 73.1413 20.4024 73.9981C20.4024 74.8549 19.707 75.5475 18.8496 75.5475ZM44.8143 66.7362C44.3875 66.5979 43.5028 67.1892 42.5601 68.8214L42.4029 69.0918C40.1178 73.0536 39.9322 73.3771 35.1403 75.9623C32.2341 77.5302 28.1041 77.4043 24.8601 75.6462C21.767 73.9721 19.7008 70.9832 18.9189 67.1201C17.8079 68.9238 16.4073 71.5424 15.5301 74.4351L16.3244 75.8586C17.8313 78.5611 21.6421 83.2625 30.2508 84.3316L34.0157 84.8008C34.2903 84.0662 34.6492 83.3649 35.076 82.7254C35.5028 82.0785 36.0027 81.497 36.557 81.0019C37.9328 79.7686 39.3977 79.2007 40.8094 79.0303L41.5084 78.4093C44.5124 75.7302 45.1088 72.4104 45.4627 69.2473C45.6334 67.7177 45.188 66.8584 44.8143 66.7362Z"/>
</mask>
<path d="M41.694 43.8788C35.5758 42.3109 31.2232 37.5713 28.1598 32.1131C23.3965 33.4761 19.9099 37.6552 19.5437 42.6689C19.5251 42.9529 19.5016 43.243 19.4868 43.5393C21.428 42.9689 24.2502 42.364 27.4967 42.364C29.6705 42.364 31.7874 42.6381 33.7831 43.1825C37.5208 44.1986 39.9656 45.6184 41.892 46.9048C41.7324 46.2381 41.6445 45.5307 41.6445 44.7999C41.6445 44.4875 41.6606 44.1788 41.694 43.8788ZM76.4555 42.6689C76.0744 37.3701 72.2018 33.0033 67.0153 31.9119C62.4301 40.3849 57.0271 43.0368 53.9315 43.8677C53.9699 44.1727 53.9847 44.4838 53.9847 44.7999C53.9847 45.6443 53.8697 46.4555 53.6569 47.2086C55.655 45.8468 58.1877 44.2826 62.2198 43.1825C64.2143 42.6381 66.3275 42.364 68.5062 42.364C71.7491 42.364 74.5674 42.9689 76.5136 43.5393C76.4975 43.243 76.4741 42.9529 76.4555 42.6689ZM77.1496 75.5475C76.2922 75.5475 75.5969 74.8549 75.5969 73.9981C75.5969 73.1413 76.2922 72.4449 77.1496 72.4449C78.0082 72.4449 78.7023 73.1413 78.7023 73.9981C78.7023 74.8549 78.0082 75.5475 77.1496 75.5475ZM73.1521 79.4797C72.2934 79.4797 71.5993 78.787 71.5993 77.9302C71.5993 77.0734 72.2934 76.3771 73.1521 76.3771C74.0107 76.3771 74.7085 77.0734 74.7085 77.9302C74.7085 78.787 74.0107 79.4797 73.1521 79.4797ZM67.6624 82.1439C66.805 82.1439 66.1097 81.4513 66.1097 80.5945C66.1097 79.7377 66.805 79.0414 67.6624 79.0414C68.5223 79.0414 69.2189 79.7377 69.2189 80.5945C69.2189 81.4513 68.5223 82.1439 67.6624 82.1439ZM77.084 67.1238C76.3033 70.9869 74.2359 73.9721 71.1428 75.6462C67.8963 77.4006 63.7688 77.5302 60.8613 75.9623C56.0707 73.3771 55.8839 73.0536 53.5987 69.0918L53.4429 68.8214C52.5001 67.1892 51.613 66.5954 51.1849 66.7362C50.815 66.8584 50.3683 67.7177 50.539 69.2473C50.8916 72.4104 51.4855 75.7302 54.4957 78.4093L55.1935 79.0303C55.7317 79.0945 56.281 79.2167 56.8291 79.4142C57.715 79.734 58.596 80.2402 59.4435 81.0019C60.4271 81.8847 61.251 83.0501 61.8115 84.3588C61.8721 84.5032 61.9291 84.6514 61.9872 84.8008L65.7472 84.3316C74.3571 83.2625 78.1715 78.5611 79.6785 75.8549L80.4728 74.4326C79.5944 71.5425 78.1914 68.9239 77.084 67.1238ZM64.145 72.7573C56.3912 71.4857 56.453 63.941 57.6618 60.3212C58.8062 56.8964 67.1972 52.8346 71.5189 58.8002C75.8443 64.7633 71.9012 74.0252 64.145 72.7573ZM31.853 72.7573C24.098 74.0252 20.1537 64.7633 24.4803 58.8002C28.8007 52.8346 37.1929 56.8964 38.3374 60.3212C39.5474 63.941 39.6068 71.4857 31.853 72.7573ZM75.8381 62.0965C75.6005 59.6594 74.7766 57.8322 73.7435 56.4742C71.0154 55.2704 67.4187 53.9877 64.4815 53.9877C63.9173 53.9877 63.3989 54.0383 62.9374 54.1334C60.6633 54.6161 59.0574 56.0433 57.3562 57.5545C55.0562 59.5952 52.4506 61.9089 48.0002 61.9089C43.5486 61.9089 40.9455 59.5952 38.6467 57.5545C36.9455 56.0433 35.3395 54.6161 33.0655 54.1334C32.604 54.0383 32.0856 53.9877 31.5202 53.9877C28.5793 53.9877 24.9826 55.2704 22.2595 56.4742C21.2264 57.8359 20.3986 59.6669 20.166 62.1077C20.1227 63.0324 19.9817 63.8929 20.1759 65.2052C20.6869 70.5794 23.3928 73.1227 25.5889 74.3104C28.3553 75.8055 31.9817 75.9351 34.4165 74.6215C38.8261 72.2437 38.8681 72.1708 41.0803 68.335L41.2362 68.0646C42.9684 65.0608 44.5211 65.0386 45.2907 65.2892C46.5502 65.7003 47.2133 67.3176 46.977 69.4152C46.6578 72.3153 46.0924 75.5857 43.6587 78.3944C45.6495 78.7673 47.2554 79.6352 48.0002 80.092C48.7425 79.6352 50.3535 78.7673 52.3392 78.3944C49.9068 75.5808 49.3451 72.3153 49.0222 69.4152C48.7884 67.3176 49.4527 65.7003 50.711 65.2892C51.4818 65.0386 53.0346 65.0608 54.7655 68.0646L54.9226 68.335C57.1348 72.1708 57.1781 72.2437 61.5863 74.6215C64.02 75.9351 67.6476 75.8055 70.4141 74.3104C72.6102 73.1227 75.311 70.5794 75.8257 65.2089C75.9903 64.2077 75.9247 62.9212 75.8381 62.0965ZM28.3355 82.1439C27.4781 82.1439 26.7791 81.4513 26.7791 80.5945C26.7791 79.7377 27.4781 79.0414 28.3355 79.0414C29.1942 79.0414 29.8883 79.7377 29.8883 80.5945C29.8883 81.4513 29.1942 82.1439 28.3355 82.1439ZM22.8471 79.4797C21.9885 79.4797 21.2907 78.787 21.2907 77.9302C21.2907 77.0734 21.9885 76.3771 22.8471 76.3771C23.7058 76.3771 24.3986 77.0734 24.3986 77.9302C24.3986 78.787 23.7058 79.4797 22.8471 79.4797ZM18.8496 75.5475C17.991 75.5475 17.2969 74.8549 17.2969 73.9981C17.2969 73.1413 17.991 72.4449 18.8496 72.4449C19.707 72.4449 20.4024 73.1413 20.4024 73.9981C20.4024 74.8549 19.707 75.5475 18.8496 75.5475ZM44.8143 66.7362C44.3875 66.5979 43.5028 67.1892 42.5601 68.8214L42.4029 69.0918C40.1178 73.0536 39.9322 73.3771 35.1403 75.9623C32.2341 77.5302 28.1041 77.4043 24.8601 75.6462C21.767 73.9721 19.7008 70.9832 18.9189 67.1201C17.8079 68.9238 16.4073 71.5424 15.5301 74.4351L16.3244 75.8586C17.8313 78.5611 21.6421 83.2625 30.2508 84.3316L34.0157 84.8008C34.2903 84.0662 34.6492 83.3649 35.076 82.7254C35.5028 82.0785 36.0027 81.497 36.557 81.0019C37.9328 79.7686 39.3977 79.2007 40.8094 79.0303L41.5084 78.4093C44.5124 75.7302 45.1088 72.4104 45.4627 69.2473C45.6334 67.7177 45.188 66.8584 44.8143 66.7362Z" stroke="url(#paint10_radial_524_770)" stroke-width="3" mask="url(#path-11-inside-1_524_770)"/>
<path d="M70.0393 129.728L70.039 129.728C65.303 132.279 57.5961 135.317 47.8126 135.317C36.7477 135.317 29.4189 131.909 26.0677 129.902C26.0676 129.902 26.0676 129.902 26.0675 129.902L25.4263 129.517L24.6778 121.7C26.1076 122.04 27.5311 122.171 28.8631 122.171C31.5614 122.171 33.9255 121.637 35.2752 121.171L35.276 121.171C35.8151 120.984 36.4139 120.769 37.0565 120.538C38.0519 120.18 39.1523 119.784 40.2988 119.399C40.3031 119.419 40.3074 119.439 40.3117 119.459C40.7316 121.422 41.2868 124.016 42.2117 126.22C43.2616 128.722 44.9531 131.107 47.8164 131.107C50.7081 131.107 52.4043 128.68 53.4528 126.148C54.3587 123.961 54.9062 121.4 55.3214 119.457C55.334 119.398 55.3465 119.339 55.3589 119.281C56.584 119.687 57.7631 120.112 58.8288 120.497C59.5135 120.744 60.1514 120.974 60.7247 121.171L70.0393 129.728ZM70.0393 129.728L70.5833 129.435L71.3224 121.699M70.0393 129.728L71.3224 121.699M71.3224 121.699C69.8949 122.04 68.4707 122.171 67.1371 122.171C64.4418 122.171 62.0744 121.637 60.7254 121.171L71.3224 121.699Z" stroke="url(#paint11_radial_524_770)" stroke-width="1.5"/>
<path d="M71.4341 107.365V107.365C71.5295 104.851 71.0084 102.905 70.0705 101.563C69.1714 100.277 67.8497 99.4859 66.1525 99.2844C66.035 99.3218 65.9173 99.36 65.7995 99.399C65.8834 99.83 65.9239 100.262 65.9196 100.687L65.9196 100.693C65.9197 100.733 65.9199 100.815 65.9092 100.907C65.838 102.708 64.95 104.401 63.2884 105.072C61.6243 105.747 59.8031 105.167 58.4809 103.935L58.4714 103.926L58.4623 103.917C58.4436 103.898 58.4247 103.88 58.4016 103.858L58.4 103.856C58.3783 103.835 58.3527 103.81 58.3263 103.784C57.9615 103.42 57.6383 102.999 57.3614 102.536C57.3815 103.002 57.3545 103.461 57.2763 103.904C57.2588 104.019 57.2369 104.131 57.209 104.245C56.8158 105.959 55.6745 107.422 53.964 107.809C53.6437 107.882 53.3251 107.912 53.0114 107.905C54.7235 108.318 56.2564 108.967 57.5251 109.889C59.1656 111.071 60.3462 112.696 60.8795 114.786C60.9125 114.798 60.9455 114.809 60.9789 114.821L60.9789 114.821L60.9864 114.824C61.1896 114.898 61.3889 114.969 61.5856 115.038C61.6486 115.06 61.7114 115.082 61.7739 115.105C62.0433 115.124 62.3114 115.133 62.5825 115.133C64.9803 115.133 67.151 114.417 68.7336 113.107C70.304 111.806 71.3386 109.885 71.4341 107.365ZM51.6575 107.633C50.7282 107.279 49.9 106.601 49.2812 105.737C49.1879 105.61 49.1048 105.481 49.0297 105.356C48.8101 104.999 48.6223 104.612 48.4707 104.203C48.3152 104.207 48.1584 104.209 48.0005 104.209C47.8415 104.209 47.6842 104.207 47.5283 104.203C47.385 104.591 47.2081 104.962 46.9982 105.306C46.9111 105.458 46.8154 105.603 46.7204 105.735C46.1478 106.535 45.3951 107.175 44.5489 107.548C45.5941 107.408 46.6883 107.341 47.8161 107.341C49.1512 107.341 50.4404 107.435 51.6575 107.633ZM38.775 109.437C39.9073 108.747 41.2142 108.24 42.6473 107.898C42.4446 107.885 42.2405 107.856 42.0357 107.809C40.2618 107.408 39.1104 105.854 38.7554 104.062C38.7452 104.022 38.7392 103.991 38.7364 103.976L38.7361 103.974L38.7333 103.96L38.7289 103.943L38.7238 103.913C38.6444 103.466 38.6174 103.005 38.6382 102.538C38.3632 102.997 38.0415 103.414 37.683 103.774L37.6808 103.776L37.6743 103.783C37.6741 103.783 37.6739 103.783 37.6737 103.784C36.3373 105.121 34.4427 105.776 32.7117 105.071C30.9893 104.373 30.098 102.583 30.0813 100.705L30.0813 100.705V100.699V100.688C30.0762 100.262 30.1158 99.8316 30.2002 99.4C30.0728 99.3573 29.9466 99.3158 29.8213 99.2758C28.0989 99.4625 26.7586 100.25 25.8476 101.538C24.8983 102.881 24.37 104.835 24.4666 107.365L24.4666 107.365C24.5621 109.885 25.5964 111.806 27.1661 113.107C28.748 114.417 30.9174 115.133 33.3132 115.133C33.6235 115.133 33.9364 115.121 34.249 115.097C34.3999 115.043 34.5548 114.988 34.7129 114.932C35.2624 112.639 36.5766 110.896 38.4153 109.67V109.657L38.775 109.437ZM38.7323 103.954C38.7322 103.953 38.7322 103.953 38.7323 103.954L38.7323 103.954Z" stroke="url(#paint12_radial_524_770)" stroke-width="1.5"/>
<path d="M31.7576 60.9119L31.7576 60.9116C31.6102 60.471 31.2728 60.1032 30.919 59.8353C30.5514 59.5569 30.0927 59.3297 29.5978 59.2055C28.5962 58.9543 27.3408 59.1167 26.4997 60.2773C25.7111 61.3653 25.679 62.7452 26.1931 63.8006C26.7208 64.8836 27.8529 65.6655 29.3238 65.4243L31.7576 60.9119ZM31.7576 60.9119C31.9666 61.5375 32.0832 62.4991 31.7943 63.3974M31.7576 60.9119L31.7943 63.3974M31.7943 63.3974C31.4846 64.3606 30.7189 65.1961 29.3242 65.4243L31.7943 63.3974ZM26.0279 59.6894L26.0278 59.6896C25.0125 61.0905 24.9648 62.8878 25.631 64.2549C26.2836 65.5942 27.5919 66.48 29.3575 66.191L29.3576 66.191C31.2 65.8895 32.0402 64.886 32.4008 63.765C32.7824 62.579 32.6339 61.2112 32.3381 60.3257C32.2463 60.0513 31.9665 59.6712 31.4727 59.2971C30.9927 58.9335 30.3735 58.6246 29.7076 58.4576C28.3876 58.1264 26.9901 58.3612 26.0279 59.6894Z" stroke="url(#paint13_radial_524_770)" stroke-width="1.5"/>
<path d="M63.6628 60.3254L63.663 60.3248C63.7542 60.0508 64.0335 59.671 64.5269 59.297C65.0064 58.9335 65.6255 58.6246 66.2914 58.4576C67.6112 58.1265 69.0095 58.3611 69.9729 59.6894L63.6628 60.3254ZM63.6628 60.3254C63.3669 61.211 63.2181 62.5791 63.5993 63.7652M63.6628 60.3254L63.5993 63.7652M64.2048 63.3975C64.5148 64.3607 65.2807 65.1961 66.6753 65.4243L64.2048 63.3975ZM64.2048 63.3975C63.9159 62.4995 64.0322 61.5379 64.242 60.9118M64.2048 63.3975L64.242 60.9118M64.242 60.9118C64.389 60.471 64.7264 60.1031 65.0799 59.8353C65.4476 59.5569 65.9064 59.3296 66.4014 59.2055C67.403 58.9543 68.6587 59.1166 69.4999 60.2773C70.2885 61.3653 70.3206 62.7452 69.8064 63.8006C69.2788 64.8836 68.1466 65.6655 66.6757 65.4243L64.242 60.9118ZM63.5993 63.7652C63.9595 64.8862 64.7992 65.8895 66.6408 66.191M63.5993 63.7652L66.6408 66.191M66.6408 66.191C68.4072 66.4801 69.7158 65.5941 70.3687 64.2548M66.6408 66.191L70.3687 64.2548M70.3687 64.2548C71.035 62.8877 70.9876 61.0906 69.9731 59.6897L70.3687 64.2548Z" stroke="url(#paint14_radial_524_770)" stroke-width="1.5"/>
<path d="M48.0008 95.3931C52.013 95.3931 55.0579 94.7078 57.1221 93.4862C55.8484 93.8705 54.5224 93.5441 53.4184 92.7953C52.2741 92.0193 51.3231 90.767 50.7946 89.2375C50.2655 87.7078 50.2408 86.1358 50.6627 84.8201C51.0848 83.5041 51.9752 82.3989 53.2908 81.9459L53.2909 81.9459C54.6069 81.4931 55.9902 81.8155 57.1349 82.5916C58.2795 83.3676 59.231 84.6201 59.7595 86.1498C60.2477 87.5631 60.3056 89.0124 59.9787 90.2624C60.5388 88.7679 60.4756 87.0109 59.7212 85.2549L59.7211 85.2545C59.2851 84.2383 58.6596 83.354 57.9223 82.6922L57.9221 82.692C56.8266 81.7079 55.6278 81.2446 54.2179 81.2446H54.2167C51.7342 81.2446 49.5138 82.7213 49.316 82.8553L48.4326 83.4826L47.9973 83.7917L47.5628 83.4817L46.6776 82.8503C46.4217 82.6786 44.2332 81.2446 41.7849 81.2446C40.3735 81.2446 39.1734 81.7081 38.078 82.6911L38.0773 82.6916C37.6703 83.0561 37.2998 83.488 36.9768 83.9771L36.9768 83.9771L36.9744 83.9807C35.9286 85.5445 35.1846 88.0134 36.0234 90.2619C35.6969 89.012 35.7552 87.5629 36.2434 86.1498C36.7718 84.6201 37.7233 83.3676 38.8679 82.5916C40.0126 81.8155 41.3959 81.4931 42.7119 81.9459L42.712 81.9459C44.0276 82.3989 44.918 83.5041 45.3402 84.82C45.7623 86.1357 45.738 87.7075 45.2095 89.2372L45.2094 89.2375C44.6803 90.7671 43.7286 92.0195 42.5839 92.7954C41.4979 93.5316 40.1973 93.8595 38.9432 93.5048C41.0172 94.7049 44.0605 95.3931 48.0008 95.3931Z" stroke="url(#paint15_radial_524_770)" stroke-width="1.5"/>
<path d="M54.5868 85.6973L54.5863 85.6975C54.2998 85.7959 54.0398 86.0565 53.8967 86.5028C53.7534 86.9494 53.7487 87.5368 53.9589 88.1456C54.1697 88.7544 54.5366 89.2144 54.9259 89.4783C55.3151 89.7423 55.6811 89.7873 55.9666 89.689L55.9668 89.689C56.2526 89.5906 56.5125 89.3302 56.6556 88.8837C56.7988 88.4369 56.8034 87.8493 56.5932 87.2404C56.3829 86.6318 56.0164 86.1719 55.6273 85.9079C55.2383 85.6441 54.8723 85.599 54.5868 85.6973Z" stroke="url(#paint16_radial_524_770)" stroke-width="1.5"/>
<path d="M39.4092 87.241L39.4094 87.2404C39.6196 86.6318 39.9862 86.1719 40.3753 85.908C40.7642 85.6443 41.1306 85.5989 41.417 85.6973L39.4092 87.241ZM39.4092 87.241C39.1986 87.8493 39.2034 88.4366 39.3469 88.8834C39.4902 89.33 39.7505 89.5907 40.036 89.689C40.3214 89.7873 40.6874 89.7422 41.0764 89.4784C41.4655 89.2145 41.8321 88.7546 42.0423 88.1459L42.0425 88.1453M39.4092 87.241L42.0425 88.1453M42.0425 88.1453C42.2532 87.5368 42.2485 86.9494 42.1053 86.5026M42.0425 88.1453L42.1053 86.5026M42.1053 86.5026C41.9623 86.0562 41.7024 85.7957 41.4172 85.6974L42.1053 86.5026Z" stroke="url(#paint17_radial_524_770)" stroke-width="1.5"/>
<path d="M74.8917 96.6288L74.893 96.6296C78.7053 99.1284 80.4749 104.91 78.8706 110.46L78.8706 110.46C78.5155 111.69 77.997 112.865 77.3341 113.95L77.3335 113.951C75.9246 116.264 74.027 117.584 72.0704 118.317L72.0697 118.317C70.3835 118.95 68.6474 119.148 67.1371 119.148C64.9109 119.148 62.8637 118.711 61.7139 118.314C61.1938 118.133 60.6011 117.921 59.9633 117.689L59.9617 117.689C58.8116 117.274 57.518 116.809 56.1771 116.368C56.1811 116.361 56.1851 116.354 56.1891 116.346C57.4969 116.777 58.7606 117.234 59.902 117.646L59.9636 117.669L59.966 117.67L60.5939 117.894L60.5945 117.894L60.8488 117.985L60.8517 117.986L61.0472 118.056L61.1427 118.089L61.2436 118.097L61.4479 118.111C61.4483 118.111 61.4487 118.111 61.4491 118.111C61.8278 118.14 62.2087 118.155 62.5828 118.155C68.0014 118.155 72.3054 115.284 73.8544 110.779L73.8548 110.777C74.2059 109.75 74.4102 108.647 74.455 107.482C74.455 107.481 74.455 107.481 74.4551 107.481L73.7056 107.452C73.7353 106.698 73.713 105.979 73.645 105.29L74.8917 96.6288ZM74.8917 96.6288C74.6757 96.4866 74.4548 96.3566 74.2352 96.2448L74.2352 96.2449M74.8917 96.6288L74.2352 96.2449M60.8714 97.9621C64.4599 96.5882 67.6673 95.3708 70.5358 95.3708C71.4352 95.3708 72.2406 95.4908 73.0022 95.7311L60.8714 97.9621ZM60.8714 97.9621L60.8167 97.983C56.8173 99.5171 52.5247 101.164 48.0007 101.164C43.4791 101.164 39.1934 99.5197 35.1969 97.9868L35.1325 97.9621H60.8714ZM23.0014 95.7308C23.7656 95.4906 24.5683 95.3708 25.4681 95.3708C28.3365 95.3708 31.5437 96.5881 35.1321 97.9619L23.0014 95.7308ZM23.0014 95.7308C22.5841 95.864 22.171 96.0339 21.7768 96.2406L21.7689 96.2447L21.7609 96.2487C21.6457 96.3057 21.5266 96.3719 21.4064 96.4441L21.4029 96.4461C17.7632 98.6056 15.7837 103.785 16.8139 109.141L16.8149 109.147L16.8399 109.282C17.1745 110.945 17.7868 112.516 18.6654 113.949L18.6662 113.95C20.0791 116.264 21.9807 117.587 23.9338 118.316L23.9356 118.317C25.6205 118.95 27.3553 119.148 28.8631 119.148C31.0888 119.148 33.139 118.711 34.2856 118.314L34.2867 118.313C34.81 118.133 35.4015 117.92 36.0445 117.688L36.0488 117.686C36.049 117.686 36.0491 117.686 36.0493 117.686L23.0014 95.7308ZM74.2352 96.2449L74.2262 96.2402M74.2352 96.2449L74.2262 96.2402M74.2262 96.2402C73.8328 96.0333 73.4226 95.8639 73.0023 95.7312L74.2262 96.2402Z" stroke="url(#paint18_radial_524_770)" stroke-width="1.5"/>
<path d="M53.7149 114.588L53.7149 114.588L53.7179 114.584C54.1469 113.922 54.6639 113.442 55.2275 113.127C55.5599 112.934 55.8981 112.801 56.2274 112.714C56.0788 112.583 55.9213 112.458 55.7551 112.338L55.7535 112.337C54.026 111.082 51.3104 110.364 47.817 110.364C44.7654 110.364 42.2754 110.918 40.5475 111.902L40.3481 112.021C40.0014 112.233 39.688 112.464 39.4064 112.712C39.789 112.812 40.1832 112.972 40.5679 113.217L40.5697 113.218C41.0922 113.552 41.5785 114.031 41.9807 114.687L41.9807 114.687L41.9826 114.69C42.1883 115.03 42.3738 115.417 42.5306 115.852L42.5307 115.852L42.5342 115.862C42.5793 115.993 42.6239 116.131 42.6682 116.275L42.6682 116.275L42.6705 116.283C42.8 116.722 42.9255 117.236 43.0532 117.809L43.0533 117.809L43.0547 117.816C43.0787 117.928 43.1046 118.048 43.1314 118.172C43.1779 118.386 43.2274 118.614 43.2753 118.846C43.6737 120.699 44.1877 123.087 44.9809 125.011C45.3778 125.974 45.8238 126.768 46.3203 127.31C46.8077 127.842 47.2973 128.086 47.817 128.086C48.3375 128.086 48.8275 127.842 49.315 127.31C49.8116 126.768 50.2576 125.974 50.6545 125.011C51.4479 123.086 51.9614 120.696 52.3593 118.843L52.3594 118.842C52.381 118.742 52.4023 118.643 52.4232 118.546C52.4867 118.25 52.5472 117.969 52.6053 117.707L52.6053 117.707L52.6062 117.703C52.7366 117.131 52.8627 116.614 52.9973 116.175C53.0164 116.112 53.057 115.992 53.0799 115.925C53.0882 115.901 53.0942 115.883 53.096 115.877L53.0991 115.868L53.1025 115.858C53.2738 115.37 53.4821 114.953 53.7149 114.588Z" stroke="url(#paint19_radial_524_770)" stroke-width="1.5"/>
<path d="M86.2081 42.8748L86.2081 42.8738C86.1151 40.2514 85.6787 37.9283 84.9323 35.9557C83.0124 30.8874 79.3356 29.0664 77.3337 28.4267L77.3331 28.4265L76.3781 28.1205C74.4352 29.0798 72.2476 29.6154 69.9073 29.6043L69.9071 29.6043C69.5952 29.6027 69.2925 29.6058 68.9945 29.6118C68.9299 29.7533 68.8651 29.8935 68.8001 30.0323C74.308 31.7543 78.3035 36.6643 78.7257 42.503L78.7258 42.5045C78.7281 42.5365 78.7304 42.5687 78.7326 42.6011C78.7534 42.896 78.7751 43.2036 78.7945 43.5216C79.2536 43.6987 79.5304 43.8249 79.5954 43.8546L79.6013 43.8573L79.6013 43.8572L79.6121 43.8623L80.1268 44.1068L80.376 44.2251L80.4891 44.4767L80.7217 44.994L80.7217 44.994L80.7235 44.9981C80.819 45.2139 80.91 45.4325 80.9958 45.6549C82.7831 45.041 84.5695 44.2786 86.225 43.3342L86.2081 42.8748Z" stroke="url(#paint20_radial_524_770)" stroke-width="1.5"/>
<path d="M18.667 28.4281L18.667 28.4281C16.6664 29.0678 12.9919 30.8887 11.0732 35.9572L11.0729 35.9579C10.3244 37.9295 9.88921 40.252 9.79249 42.8747L9.77745 43.3348C11.4329 44.2801 13.218 45.0429 15.0067 45.6571C15.0934 45.4334 15.1852 45.2133 15.2817 44.9973L15.2825 44.9955L15.5151 44.4782L15.6282 44.2266L15.8774 44.1083L16.3921 43.8638L16.392 43.8637L16.4029 43.8588L16.4088 43.8561C16.4738 43.8264 16.7505 43.7002 17.2095 43.5232C17.2307 43.1706 17.2547 42.8305 17.2785 42.504C17.6783 36.9622 21.2962 32.2566 26.3728 30.3193C26.2562 30.0822 26.1416 29.8444 26.0292 29.6059C23.7135 29.6063 21.5496 29.0717 19.6247 28.1218L18.667 28.4281Z" stroke="url(#paint21_radial_524_770)" stroke-width="1.5"/>
<path d="M43.2602 38.5925C44.459 37.3441 46.0452 36.5629 47.813 36.5629C49.5465 36.5629 51.1096 37.3179 52.3013 38.5248C53.5591 35.9525 54.6121 32.785 54.8393 29.1576C54.8147 29.1043 54.7842 29.0387 54.7483 28.9618C54.6382 28.7265 54.4762 28.3852 54.2697 27.9635C53.8566 27.1198 53.2665 25.9567 52.5589 24.6797C51.2758 22.3641 49.6409 19.7384 48.0001 17.9442C47.9245 18.0337 47.8415 18.1328 47.7519 18.2409C47.2626 18.8315 46.5749 19.6936 45.7866 20.7738C44.2361 22.8983 42.3052 25.8545 40.7269 29.2395C40.7282 29.2511 40.7295 29.2632 40.7309 29.2758C40.7481 29.4307 40.7758 29.6603 40.8174 29.9536C40.9006 30.5405 41.039 31.3809 41.2592 32.386C41.6403 34.1261 42.2633 36.3455 43.2602 38.5925Z" stroke="url(#paint22_radial_524_770)" stroke-width="1.5"/>
<path d="M47.8526 3.46033C44.6999 10.4674 42.9919 15.8307 42.0689 19.4928C41.9153 20.1024 41.7834 20.6649 41.6702 21.18C42.5442 19.8274 43.4767 18.5713 44.3185 17.5103C45.1218 16.4976 45.8497 15.6538 46.3772 15.0625C46.6412 14.7667 46.8553 14.5337 47.0041 14.374C47.0785 14.2942 47.1366 14.2326 47.1765 14.1906L47.2223 14.1425L47.2346 14.1298L47.2379 14.1263L47.2389 14.1253L47.2392 14.125C47.2393 14.1249 47.2394 14.1248 47.7787 14.6459L47.2394 14.1248L48.2331 13.0965L48.4882 14.3695C48.5124 14.3982 48.5454 14.4358 48.5892 14.4837C48.7322 14.64 48.9383 14.8497 49.2082 15.1243L49.2091 15.1252C49.7415 15.667 50.4788 16.4177 51.2868 17.3392C52.1147 18.2834 53.0246 19.4154 53.875 20.7019C53.7091 19.9982 53.518 19.2651 53.3068 18.5123C52.6034 16.005 51.6898 13.3252 50.7818 10.8615C49.8743 8.39925 48.9752 6.16072 48.3029 4.53745C48.1381 4.13934 47.9869 3.77836 47.8526 3.46033Z" stroke="url(#paint23_radial_524_770)" stroke-width="1.5"/>
<path d="M57.7587 25.8892C57.7773 26.1466 57.7969 26.4883 57.8091 26.9015C57.8374 27.8696 57.8248 29.2337 57.6616 30.8275C57.37 33.6745 56.5941 37.2912 54.6822 40.6961C56.6194 39.8689 59.6488 38.1893 62.244 35.0584C62.2536 35.0109 62.2649 34.9542 62.2777 34.8891C62.3223 34.6629 62.3853 34.3343 62.4585 33.9271C62.6049 33.1121 62.7914 31.9849 62.9523 30.7356C63.2395 28.5051 63.431 25.9809 63.2105 24.139C61.7894 24.4092 60.4198 24.8466 59.3481 25.2446C58.7239 25.4765 58.2066 25.6927 57.8468 25.8504C57.8162 25.8638 57.7869 25.8767 57.7587 25.8892Z" stroke="url(#paint24_radial_524_770)" stroke-width="1.5"/>
<path d="M65.7465 17.2012C63.009 18.9128 60.0513 20.8777 58.1966 22.4329C58.579 22.2912 59.0122 22.1373 59.4793 21.9827C61.1461 21.431 63.3177 20.845 65.1537 20.8113L65.7888 20.7997L65.9048 21.4242L65.1674 21.5612C65.9048 21.4242 65.9049 21.4243 65.9049 21.4245L65.905 21.425L65.9052 21.4263L65.906 21.4306L65.9088 21.4458L65.9188 21.5023C65.9273 21.5511 65.9395 21.6223 65.9543 21.7137C65.9841 21.8964 66.0248 22.1606 66.0694 22.4905C66.1586 23.1498 66.2639 24.0745 66.3287 25.1395C66.3722 25.8552 66.398 26.6425 66.3869 27.4607C66.6267 26.905 66.8773 26.307 67.1325 25.6738C68.4294 22.4559 69.8324 18.3587 70.5447 14.302C70.3914 14.3917 70.2272 14.488 70.0532 14.5905C68.9257 15.2544 67.3881 16.1747 65.7465 17.2012Z" stroke="url(#paint25_radial_524_770)" stroke-width="1.5"/>
<path d="M33.2793 34.8891C33.2922 34.9542 33.3035 35.0108 33.3131 35.0584C35.9044 38.1842 38.9329 39.8645 40.8704 40.6921C38.9678 37.3023 38.1921 33.7011 37.8988 30.8599C37.7334 29.2576 37.7203 27.8855 37.7487 26.9114C37.7608 26.4938 37.7807 26.1487 37.7995 25.8892C37.7713 25.8767 37.7419 25.8638 37.7114 25.8504C37.3514 25.6927 36.8341 25.4765 36.2097 25.2446C35.1379 24.8466 33.7683 24.4092 32.3476 24.1391C32.1266 25.9808 32.3178 28.5051 32.6049 30.7356C32.7657 31.9849 32.9522 33.1121 33.0986 33.9271C33.1718 34.3343 33.2348 34.6629 33.2793 34.8891Z" stroke="url(#paint26_radial_524_770)" stroke-width="1.5"/>
<path d="M25.0126 14.302C25.7249 18.3587 27.1279 22.4559 28.4248 25.6738C28.6801 26.3073 28.9308 26.9056 29.1707 27.4614C29.1597 26.6429 29.1856 25.8553 29.2292 25.1394C29.2941 24.0744 29.3996 23.1497 29.4889 22.4904C29.5336 22.1604 29.5744 21.8963 29.6041 21.7135C29.619 21.6221 29.6312 21.551 29.6398 21.5021L29.6498 21.4457L29.6525 21.4304L29.6533 21.4261L29.6536 21.4248L29.6537 21.4244C29.6537 21.4242 29.6537 21.4241 30.3911 21.5612L29.6537 21.4241L29.7698 20.7997L30.4048 20.8113C32.2402 20.845 34.4118 21.431 36.0788 21.9827C36.5458 22.1373 36.9791 22.2912 37.3616 22.4329C35.5065 20.8777 32.5485 18.9128 29.811 17.2012C28.1692 16.1747 26.6316 15.2544 25.5041 14.5905C25.3301 14.488 25.1658 14.3917 25.0126 14.302Z" stroke="url(#paint27_radial_524_770)" stroke-width="1.5"/>
<path d="M51.8665 43.8742L51.8659 43.87C51.5014 41.351 49.7339 39.6384 47.8126 39.6384C47.0882 39.6384 46.3849 39.8832 45.7706 40.3237C45.9184 40.2915 46.0723 40.2743 46.2314 40.2743C47.0507 40.2743 47.7281 40.7297 48.1731 41.3383C48.6184 41.9473 48.8707 42.7519 48.8707 43.6071C48.8707 44.4627 48.6185 45.2676 48.1732 45.8769C47.7282 46.4856 47.0508 46.9411 46.2314 46.9411C45.4121 46.9411 44.7347 46.4856 44.2897 45.8769C44.0141 45.4998 43.8124 45.0477 43.6988 44.555C43.6957 44.6359 43.6941 44.7175 43.6941 44.7997C43.6941 47.7914 45.668 49.9609 47.8126 49.9609C49.9626 49.9609 51.9361 47.7908 51.9361 44.7997C51.9361 44.4839 51.9119 44.1755 51.8665 43.8742Z" stroke="url(#paint28_radial_524_770)" stroke-width="1.5"/>
<path d="M76.8322 55.4067C77.3876 55.6822 77.8575 55.9275 78.2177 56.1205C78.2952 55.8591 78.382 55.5417 78.468 55.1781C78.7301 54.0703 78.9808 52.5482 78.945 50.8768C78.9178 49.7124 78.7553 48.4847 78.3631 47.2744C78.2769 47.0121 78.1818 46.7516 78.0745 46.4934C78.018 46.4699 77.9527 46.4433 77.8789 46.4138L77.8781 46.4135C77.5417 46.2787 77.0335 46.0877 76.3781 45.8805L76.3772 45.8802C74.6016 45.3164 71.7819 44.6363 68.5065 44.6363C66.7092 44.6363 64.7809 44.8399 62.8179 45.3742C58.6759 46.5022 56.3044 48.1421 54.2715 49.5479C53.7541 49.9056 53.2587 50.2482 52.7616 50.5633C51.5273 52.0658 49.7812 53.0365 47.8124 53.0365C45.6409 53.0365 43.7421 51.8526 42.4998 50.0762C42.2571 49.9114 42.0114 49.7414 41.7602 49.5675C39.7275 48.1605 37.333 46.503 33.1858 45.3743C31.2187 44.8398 29.2939 44.6363 27.4969 44.6363C24.2176 44.6363 21.3967 45.3165 19.6212 45.8802L19.6207 45.8804C18.966 46.0877 18.4585 46.2786 18.1278 46.4124L18.1235 46.4142C18.0496 46.4435 17.9843 46.4701 17.9278 46.4935C17.8217 46.7505 17.7287 47.0095 17.6461 47.2713L17.6462 47.2713L17.644 47.278C17.1982 48.6458 17.0454 50.0387 17.0548 51.337C17.0696 52.9037 17.3215 54.3114 17.5713 55.3294C17.6449 55.6297 17.7182 55.8951 17.7845 56.1193C18.144 55.9264 18.6128 55.6816 19.1676 55.4066C19.7034 55.1386 20.3227 54.8454 20.9994 54.544C22.3874 53.9197 24.0316 53.2567 25.7385 52.7351C27.6435 52.1452 29.6648 51.7155 31.5204 51.7155C32.2126 51.7155 32.889 51.7716 33.5384 51.9109C36.4146 52.5225 38.371 54.2641 40.161 55.8575C40.3778 56.0505 40.5922 56.2414 40.8055 56.4278C42.8045 58.1749 44.7868 59.6367 48.0004 59.6367C51.2153 59.6367 53.198 58.1748 55.1971 56.4278C55.4104 56.2413 55.6249 56.0504 55.8418 55.8574C57.6317 54.2641 59.5879 52.5227 62.4643 51.9111C63.1149 51.7717 63.7914 51.7155 64.4817 51.7155C66.3423 51.7155 68.3625 52.1452 70.2676 52.7352C71.9796 53.2605 73.6239 53.9236 75.0081 54.5442L75.0083 54.5443C75.6808 54.846 76.2962 55.1392 76.8322 55.4067ZM76.8322 55.4067C76.8324 55.4067 76.8325 55.4068 76.8326 55.4069L76.4978 56.078L76.8311 55.4061C76.8315 55.4063 76.8318 55.4065 76.8322 55.4067Z" stroke="url(#paint29_radial_524_770)" stroke-width="1.5"/>
<defs>
<radialGradient id="paint0_radial_524_770" cx="0" cy="0" r="1" gradientUnits="userSpaceOnUse" gradientTransform="translate(85.7811 33.0215) rotate(-90) scale(10.2127 9.03541)">
<stop stop-color="#0CC7BC"/>
<stop offset="0.972204" stop-color="#0CC7BC" stop-opacity="0"/>
</radialGradient>
<radialGradient id="paint1_radial_524_770" cx="0" cy="0" r="1" gradientUnits="userSpaceOnUse" gradientTransform="translate(86.5857 12.808) rotate(-90) scale(13.3847 10.3869)">
<stop stop-color="#0CC7BC"/>
<stop offset="0.972204" stop-color="#0CC7BC" stop-opacity="0"/>
</radialGradient>
<radialGradient id="paint2_radial_524_770" cx="0" cy="0" r="1" gradientUnits="userSpaceOnUse" gradientTransform="translate(88.7448 27.8135) rotate(-90) scale(7.47356 7.83597)">
<stop stop-color="#0CC7BC"/>
<stop offset="0.972204" stop-color="#0CC7BC" stop-opacity="0"/>
</radialGradient>
<radialGradient id="paint3_radial_524_770" cx="0" cy="0" r="1" gradientUnits="userSpaceOnUse" gradientTransform="translate(10.2205 33.0215) rotate(-90) scale(10.2127 9.03613)">
<stop stop-color="#0CC7BC"/>
<stop offset="0.972204" stop-color="#0CC7BC" stop-opacity="0"/>
</radialGradient>
<radialGradient id="paint4_radial_524_770" cx="0" cy="0" r="1" gradientUnits="userSpaceOnUse" gradientTransform="translate(9.41432 12.808) rotate(-90) scale(13.3847 10.3869)">
<stop stop-color="#0CC7BC"/>
<stop offset="0.972204" stop-color="#0CC7BC" stop-opacity="0"/>
</radialGradient>
<radialGradient id="paint5_radial_524_770" cx="0" cy="0" r="1" gradientUnits="userSpaceOnUse" gradientTransform="translate(7.25816 27.8139) rotate(-90) scale(7.47356 7.83597)">
<stop stop-color="#0CC7BC"/>
<stop offset="0.972204" stop-color="#0CC7BC" stop-opacity="0"/>
</radialGradient>
<radialGradient id="paint6_radial_524_770" cx="0" cy="0" r="1" gradientUnits="userSpaceOnUse" gradientTransform="translate(22.3758 82.7443) rotate(-90) scale(6.42011 8.95828)">
<stop stop-color="#0CC7BC"/>
<stop offset="0.972204" stop-color="#0CC7BC" stop-opacity="0"/>
</radialGradient>
<radialGradient id="paint7_radial_524_770" cx="0" cy="0" r="1" gradientUnits="userSpaceOnUse" gradientTransform="translate(73.6252 82.7439) rotate(-90) scale(6.42011 8.959)">
<stop stop-color="#0CC7BC"/>
<stop offset="0.972204" stop-color="#0CC7BC" stop-opacity="0"/>
</radialGradient>
<radialGradient id="paint8_radial_524_770" cx="0" cy="0" r="1" gradientUnits="userSpaceOnUse" gradientTransform="translate(48.0079 135.865) rotate(-90) scale(4.32157 26.9289)">
<stop stop-color="#0CC7BC"/>
<stop offset="0.972204" stop-color="#0CC7BC" stop-opacity="0"/>
</radialGradient>
<radialGradient id="paint9_radial_524_770" cx="0" cy="0" r="1" gradientUnits="userSpaceOnUse" gradientTransform="translate(48.0019 91.9119) rotate(-90) scale(7.29359 34.8211)">
<stop stop-color="#0CC7BC"/>
<stop offset="0.972204" stop-color="#0CC7BC" stop-opacity="0"/>
</radialGradient>
<radialGradient id="paint10_radial_524_770" cx="0" cy="0" r="1" gradientUnits="userSpaceOnUse" gradientTransform="translate(48.0014 58.3563) rotate(-90) scale(27.6358 37.8355)">
<stop stop-color="#0CC7BC"/>
<stop offset="0.972204" stop-color="#0CC7BC" stop-opacity="0"/>
</radialGradient>
<radialGradient id="paint11_radial_524_770" cx="0" cy="0" r="1" gradientUnits="userSpaceOnUse" gradientTransform="translate(48.0001 127.189) rotate(-90) scale(9.27794 28.1658)">
<stop stop-color="#0CC7BC"/>
<stop offset="0.972204" stop-color="#0CC7BC" stop-opacity="0"/>
</radialGradient>
<radialGradient id="paint12_radial_524_770" cx="0" cy="0" r="1" gradientUnits="userSpaceOnUse" gradientTransform="translate(47.9503 107.199) rotate(-90) scale(9.07538 28.2501)">
<stop stop-color="#0CC7BC"/>
<stop offset="0.972204" stop-color="#0CC7BC" stop-opacity="0"/>
</radialGradient>
<radialGradient id="paint13_radial_524_770" cx="0" cy="0" r="1" gradientUnits="userSpaceOnUse" gradientTransform="translate(28.9087 62.2853) rotate(-90) scale(4.92305 5.20938)">
<stop stop-color="#0CC7BC"/>
<stop offset="0.972204" stop-color="#0CC7BC" stop-opacity="0"/>
</radialGradient>
<radialGradient id="paint14_radial_524_770" cx="0" cy="0" r="1" gradientUnits="userSpaceOnUse" gradientTransform="translate(67.0916 62.2853) rotate(-90) scale(4.92305 5.20907)">
<stop stop-color="#0CC7BC"/>
<stop offset="0.972204" stop-color="#0CC7BC" stop-opacity="0"/>
</radialGradient>
<radialGradient id="paint15_radial_524_770" cx="0" cy="0" r="1" gradientUnits="userSpaceOnUse" gradientTransform="translate(48.0052 88.3188) rotate(-90) scale(8.17674 15.2582)">
<stop stop-color="#0CC7BC"/>
<stop offset="0.972204" stop-color="#0CC7BC" stop-opacity="0"/>
</radialGradient>
<radialGradient id="paint16_radial_524_770" cx="0" cy="0" r="1" gradientUnits="userSpaceOnUse" gradientTransform="translate(55.2761 87.6932) rotate(-90) scale(2.92001 2.6004)">
<stop stop-color="#0CC7BC"/>
<stop offset="0.972204" stop-color="#0CC7BC" stop-opacity="0"/>
</radialGradient>
<radialGradient id="paint17_radial_524_770" cx="0" cy="0" r="1" gradientUnits="userSpaceOnUse" gradientTransform="translate(40.726 87.6932) rotate(-90) scale(2.92001 2.60022)">
<stop stop-color="#0CC7BC"/>
<stop offset="0.972204" stop-color="#0CC7BC" stop-opacity="0"/>
</radialGradient>
<radialGradient id="paint18_radial_524_770" cx="0" cy="0" r="1" gradientUnits="userSpaceOnUse" gradientTransform="translate(48.0019 107.259) rotate(-90) scale(13.2079 37.5294)">
<stop stop-color="#0CC7BC"/>
<stop offset="0.972204" stop-color="#0CC7BC" stop-opacity="0"/>
</radialGradient>
<radialGradient id="paint19_radial_524_770" cx="0" cy="0" r="1" gradientUnits="userSpaceOnUse" gradientTransform="translate(47.8151 119.225) rotate(-90) scale(10.0443 11.5986)">
<stop stop-color="#0CC7BC"/>
<stop offset="0.972204" stop-color="#0CC7BC" stop-opacity="0"/>
</radialGradient>
<radialGradient id="paint20_radial_524_770" cx="0" cy="0" r="1" gradientUnits="userSpaceOnUse" gradientTransform="translate(77.3634 36.9557) rotate(-90) scale(10.0779 11.218)">
<stop stop-color="#0CC7BC"/>
<stop offset="0.972204" stop-color="#0CC7BC" stop-opacity="0"/>
</radialGradient>
<radialGradient id="paint21_radial_524_770" cx="0" cy="0" r="1" gradientUnits="userSpaceOnUse" gradientTransform="translate(18.2202 36.9572) rotate(-90) scale(10.0779 10.7279)">
<stop stop-color="#0CC7BC"/>
<stop offset="0.972204" stop-color="#0CC7BC" stop-opacity="0"/>
</radialGradient>
<radialGradient id="paint22_radial_524_770" cx="0" cy="0" r="1" gradientUnits="userSpaceOnUse" gradientTransform="translate(47.7796 28.4115) rotate(-90) scale(12.0983 9.1111)">
<stop stop-color="#0CC7BC"/>
<stop offset="0.972204" stop-color="#0CC7BC" stop-opacity="0"/>
</radialGradient>
<radialGradient id="paint23_radial_524_770" cx="0" cy="0" r="1" gradientUnits="userSpaceOnUse" gradientTransform="translate(47.7787 13.457) rotate(-90) scale(12.3809 8.77807)">
<stop stop-color="#0CC7BC"/>
<stop offset="0.972204" stop-color="#0CC7BC" stop-opacity="0"/>
</radialGradient>
<radialGradient id="paint24_radial_524_770" cx="0" cy="0" r="1" gradientUnits="userSpaceOnUse" gradientTransform="translate(58.4768 32.6951) rotate(-90) scale(9.84499 6.50094)">
<stop stop-color="#0CC7BC"/>
<stop offset="0.972204" stop-color="#0CC7BC" stop-opacity="0"/>
</radialGradient>
<radialGradient id="paint25_radial_524_770" cx="0" cy="0" r="1" gradientUnits="userSpaceOnUse" gradientTransform="translate(64.0855 22.481) rotate(-90) scale(10.0443 8.66634)">
<stop stop-color="#0CC7BC"/>
<stop offset="0.972204" stop-color="#0CC7BC" stop-opacity="0"/>
</radialGradient>
<radialGradient id="paint26_radial_524_770" cx="0" cy="0" r="1" gradientUnits="userSpaceOnUse" gradientTransform="translate(37.0806 32.6951) rotate(-90) scale(9.84499 6.50056)">
<stop stop-color="#0CC7BC"/>
<stop offset="0.972204" stop-color="#0CC7BC" stop-opacity="0"/>
</radialGradient>
<radialGradient id="paint27_radial_524_770" cx="0" cy="0" r="1" gradientUnits="userSpaceOnUse" gradientTransform="translate(31.4724 22.481) rotate(-90) scale(10.0443 8.66706)">
<stop stop-color="#0CC7BC"/>
<stop offset="0.972204" stop-color="#0CC7BC" stop-opacity="0"/>
</radialGradient>
<radialGradient id="paint28_radial_524_770" cx="0" cy="0" r="1" gradientUnits="userSpaceOnUse" gradientTransform="translate(47.8151 44.7997) rotate(-90) scale(6.17755 5.67569)">
<stop stop-color="#0CC7BC"/>
<stop offset="0.972204" stop-color="#0CC7BC" stop-opacity="0"/>
</radialGradient>
<radialGradient id="paint29_radial_524_770" cx="0" cy="0" r="1" gradientUnits="userSpaceOnUse" gradientTransform="translate(48.0014 52.1365) rotate(-90) scale(8.62187 36.9333)">
<stop stop-color="#0CC7BC"/>
<stop offset="0.972204" stop-color="#0CC7BC" stop-opacity="0"/>
</radialGradient>
</defs>
</svg>
