<svg width="86" height="140" viewBox="0 0 86 140" fill="none" xmlns="http://www.w3.org/2000/svg">
<path d="M22.3697 22.6294H4.1277C4.18965 24.8897 4.23944 27.3331 4.26385 29.8855H21.3655H21.6406L21.8505 30.0633L28.96 36.0893L33.701 31.574C31.6331 29.8278 28.9304 27.6898 26.6558 25.9213C25.4005 24.9453 24.2786 24.0842 23.4706 23.4672C23.0666 23.1587 22.7412 22.9112 22.5168 22.741L22.3697 22.6294Z" stroke="url(#paint0_radial_524_805)" stroke-width="1.5"/>
<path d="M19.9365 122.807C20.6367 123.949 21.2797 125.049 21.8904 126.096C21.9256 126.156 21.9606 126.216 21.9955 126.276C22.7606 127.588 23.474 128.811 24.196 129.949C25.5727 132.118 26.9537 133.933 28.6998 135.371L42.3799 121.526L42.9134 120.986L43.4469 121.526L57.2047 135.452C58.9822 134.015 60.3799 132.192 61.769 130.007C62.5047 128.85 63.2303 127.603 64.0098 126.265L64.0886 126.13C64.7041 125.072 65.3524 123.962 66.0588 122.806C64.5925 122.675 63.1657 122.334 61.8177 121.876C54.8592 119.52 47.9806 119.04 43.0009 119.04C38.0196 119.04 31.141 119.52 24.1826 121.876C22.8339 122.335 21.4064 122.675 19.9365 122.807Z" stroke="url(#paint1_radial_524_805)" stroke-width="1.5"/>
<path d="M81.8595 23.0358L81.8595 23.0356C81.8633 22.9 81.8669 22.7645 81.8703 22.6294H63.4568L63.3096 22.741C63.0853 22.9112 62.7598 23.1587 62.3559 23.4672C61.5478 24.0842 60.426 24.9453 59.1707 25.9213C56.8961 27.6898 54.1933 29.8278 52.1254 31.574L56.8665 36.0893L63.9776 30.0633L64.1874 29.8855H64.4625H81.7355C81.7462 28.7173 81.7635 27.5713 81.7828 26.4596L81.7828 26.4593C81.7922 25.9341 81.8016 25.4122 81.8125 24.8994C81.8149 24.7603 81.8185 24.6224 81.8219 24.4881L81.822 24.4851C81.8256 24.3483 81.829 24.215 81.8313 24.0811H81.8312L81.8314 24.0739C81.8408 23.7215 81.8502 23.3785 81.8595 23.0358Z" stroke="url(#paint2_radial_524_805)" stroke-width="1.5"/>
<path d="M42.9147 132.165L36.2549 138.697C38.153 139.058 40.37 139.25 42.9991 139.25C45.5625 139.25 47.7342 139.067 49.6011 138.724L42.9147 132.165Z" stroke="url(#paint3_radial_524_805)" stroke-width="1.5"/>
<path d="M55.2638 1.30192C51.5681 0.952641 47.4912 0.750135 43.0154 0.750135C38.3725 0.750135 34.1629 0.968715 30.3581 1.33997L42.792 13.7887L55.2638 1.30192Z" stroke="url(#paint4_radial_524_805)" stroke-width="1.5"/>
<path d="M4.23278 8.71071C3.93897 8.88513 3.71192 9.02983 3.54862 9.13808C3.55221 9.19571 3.55612 9.25901 3.56033 9.32787C3.58481 9.72767 3.61952 10.3148 3.66053 11.0652C3.73488 12.426 3.82994 14.324 3.92226 16.617H22.6166H22.8724L23.0749 16.7733L37.5298 27.9309L42.3956 23.2936L42.913 22.8005L43.4304 23.2936L48.2963 27.9309L62.7512 16.7733L62.9537 16.617H63.2095H82.0717C82.1503 14.7183 82.2305 13.0909 82.2944 11.8206L82.2946 11.8178C82.3477 10.8344 82.3923 10.0597 82.4237 9.53051C82.4326 9.37955 82.4404 9.24858 82.4471 9.13845C82.2806 9.02794 82.0476 8.87932 81.7448 8.69979C81.0271 8.27425 79.9171 7.67488 78.3718 6.99787C75.3355 5.66769 70.6154 4.03642 63.8839 2.83596L43.2974 21.5604L42.7926 22.0194L42.288 21.5603L21.7793 2.90125C15.1706 4.1046 10.5337 5.71931 7.54969 7.03239C6.03032 7.70096 4.93868 8.29168 4.23278 8.71071ZM78.6567 15.7664C77.2426 15.7664 76.1008 14.6183 76.1008 13.2073C76.1008 11.7963 77.2426 10.6482 78.6567 10.6482C80.0709 10.6482 81.2127 11.7963 81.2127 13.2073C81.2127 14.6183 80.0709 15.7664 78.6567 15.7664ZM71.9751 13.9573C70.5618 13.9573 69.4176 12.81 69.4176 11.3982C69.4176 9.98636 70.5618 8.83908 71.9751 8.83908C73.3861 8.83908 74.5295 9.98719 74.5295 11.3982C74.5295 12.8092 73.3861 13.9573 71.9751 13.9573ZM64.7498 13.1717C63.3365 13.1717 62.1923 12.0244 62.1923 10.6126C62.1923 9.20072 63.3365 8.0535 64.7498 8.0535C66.1619 8.0535 67.3057 9.20113 67.3057 10.6126C67.3057 12.024 66.1619 13.1717 64.7498 13.1717ZM59.0071 16.4409C57.5929 16.4409 56.4511 15.2928 56.4511 13.8818C56.4511 12.4697 57.5925 11.3211 59.0071 11.3211C60.4176 11.3211 61.563 12.4688 61.563 13.8818C61.563 15.2937 60.4172 16.4409 59.0071 16.4409ZM54.3594 20.4206C52.9477 20.4206 51.8035 19.2749 51.8035 17.8615C51.8035 16.4501 52.9473 15.3024 54.3594 15.3024C55.7736 15.3024 56.9154 16.4505 56.9154 17.8615C56.9154 19.2745 55.7731 20.4206 54.3594 20.4206ZM49.3619 24.8244C47.9497 24.8244 46.806 23.6767 46.806 22.2653C46.806 20.8527 47.9493 19.7047 49.3619 19.7047C50.7756 19.7047 51.9194 20.8523 51.9194 22.2653C51.9194 23.6771 50.7752 24.8244 49.3619 24.8244ZM36.4642 24.8244C35.052 24.8244 33.9082 23.6767 33.9082 22.2653C33.9082 20.8527 35.0516 19.7047 36.4642 19.7047C37.8787 19.7047 39.0201 20.8532 39.0201 22.2653C39.0201 23.6763 37.8783 24.8244 36.4642 24.8244ZM31.4666 20.4206C30.054 20.4206 28.9122 19.274 28.9122 17.8615C28.9122 16.4509 30.0536 15.3024 31.4666 15.3024C32.8799 15.3024 34.0241 16.4497 34.0241 17.8615C34.0241 19.2753 32.8794 20.4206 31.4666 20.4206ZM26.8205 16.4409C25.4084 16.4409 24.2646 15.2932 24.2646 13.8818C24.2646 12.4693 25.4079 11.3211 26.8205 11.3211C28.2342 11.3211 29.378 12.4688 29.378 13.8818C29.378 15.2937 28.2338 16.4409 26.8205 16.4409ZM21.0778 13.1717C19.6656 13.1717 18.5219 12.024 18.5219 10.6126C18.5219 9.20115 19.6656 8.0535 21.0778 8.0535C22.4919 8.0535 23.6337 9.20155 23.6337 10.6126C23.6337 12.0236 22.4919 13.1717 21.0778 13.1717ZM13.8525 13.9573C12.4395 13.9573 11.2981 12.8087 11.2981 11.3982C11.2981 9.98763 12.4395 8.83908 13.8525 8.83908C15.2658 8.83908 16.41 9.98634 16.41 11.3982C16.41 12.81 15.2658 13.9573 13.8525 13.9573ZM7.17088 15.7664C5.75674 15.7664 4.61494 14.6183 4.61494 13.2073C4.61494 11.7963 5.75674 10.6482 7.17088 10.6482C8.58305 10.6482 9.72678 11.7959 9.72678 13.2073C9.72678 14.6187 8.58305 15.7664 7.17088 15.7664Z" stroke="url(#paint5_radial_524_805)" stroke-width="1.5"/>
<path d="M49.0081 78.8909L49.0075 78.8916C47.0771 81.3645 45.658 83.112 42.9936 83.1196C40.3422 83.112 38.9265 81.367 36.9984 78.8978C36.6291 78.4248 36.2506 77.9404 35.8564 77.4656L35.8559 77.4649C34.6213 75.9812 32.5148 75.1339 30.5517 74.631C28.9476 74.2202 27.3354 74.0143 26.1428 73.9108C26.27 73.009 26.4609 72.0776 26.7085 71.2792C26.8681 70.7645 27.0446 70.3271 27.2302 69.9952C27.4236 69.6494 27.5865 69.4914 27.6831 69.4358C27.8164 69.3598 28.4485 69.083 30.2536 69.092C32.5479 69.1097 35.1145 69.5896 35.3313 69.6304C35.8144 69.7255 36.3067 69.6069 36.6922 69.3172L36.6942 69.3157C39.9254 66.8713 41.8505 63.1669 43.0008 59.499C44.1499 63.1678 46.0737 66.8722 49.3039 69.3157L49.0081 78.8909ZM49.0081 78.8909C49.3761 78.4207 49.7542 77.9384 50.1463 77.4658L50.1468 77.4651M49.0081 78.8909L50.1468 77.4651M50.1468 77.4651C51.3806 75.9813 53.4864 75.1339 55.4492 74.631C57.0528 74.2202 58.6646 74.0144 59.8576 73.9109C59.7294 73.0084 59.5378 72.0766 59.2901 71.278C59.1304 70.7631 58.9541 70.3256 58.7689 69.9936C58.5762 69.6481 58.4145 69.4907 58.3194 69.4356C58.1278 69.3269 57.2666 68.9764 54.6727 69.1329L54.6721 69.133M50.1468 77.4651L54.6721 69.133M54.6721 69.133C52.7621 69.2467 50.9612 69.5759 50.6723 69.6287M54.6721 69.133L50.6723 69.6287M50.6723 69.6287C50.668 69.6295 50.664 69.6302 50.6604 69.6309M50.6723 69.6287L50.6604 69.6309M50.6604 69.6309L50.6604 69.631C50.1841 69.7226 49.6915 69.6089 49.304 69.3158L50.6604 69.6309ZM49.5987 79.3531C49.9674 78.8821 50.3392 78.4079 50.7235 77.9447L49.5987 79.3531Z" stroke="url(#paint6_radial_524_805)" stroke-width="1.5"/>
<path d="M4.18964 41.2131C4.25713 38.5537 4.28342 35.8973 4.28144 33.3163H20.3865L26.4664 38.4659L25.0181 39.8446C22.8115 39.2806 20.5092 38.9132 18.215 38.751L4.18964 41.2131ZM4.18964 41.2131C7.23224 39.4963 11.1576 38.6536 15.567 38.6536H15.5717C16.4377 38.6536 17.3178 38.6873 18.2148 38.751L4.18964 41.2131Z" stroke="url(#paint7_radial_524_805)" stroke-width="1.5"/>
<path d="M67.7643 38.7513L67.7651 38.7512C68.6681 38.6875 69.5481 38.6539 70.4159 38.6539C74.8314 38.6539 78.763 39.4963 81.8067 41.2212C81.7404 38.5577 81.7123 35.9013 81.714 33.3166H65.4449L59.366 38.4665L60.8464 39.8777C63.0881 39.2945 65.4349 38.9181 67.7643 38.7513Z" stroke="url(#paint8_radial_524_805)" stroke-width="1.5"/>
<path d="M3.10226 62.0434C3.10621 61.8159 3.11073 61.5893 3.11582 61.3634C3.11582 61.3633 3.11582 61.3633 3.11582 61.3632C3.11759 61.2846 3.11943 61.2062 3.12134 61.1278C3.15764 61.1559 3.19417 61.1839 3.23091 61.2119C6.30201 63.5442 11.4663 63.5681 16.377 63.5908C18.9129 63.6025 21.3812 63.6139 23.4586 63.9427C23.6396 63.9712 23.8215 64.0001 24.0042 64.0291C25.8308 64.3193 27.7359 64.6219 29.5622 64.6219C31.6712 64.6219 33.6709 64.2182 35.3175 62.9302M3.10226 62.0434C5.63166 63.7738 9.23375 64.1766 12.7793 64.2911C13.9717 64.3296 15.195 64.3353 16.3907 64.3409C17.0623 64.344 17.7252 64.3471 18.369 64.356C20.182 64.3808 21.8725 64.451 23.3414 64.6835L23.3421 64.6836C23.5238 64.7122 23.7072 64.7413 23.8922 64.7707C25.7085 65.0596 27.673 65.3719 29.5622 65.3719C31.7597 65.3719 33.9499 64.952 35.7794 63.5211M3.10226 62.0434C3.01561 67.0355 3.20384 72.4059 3.7011 77.8161C4.54315 77.2684 5.4738 76.8048 6.49258 76.4134L6.49351 76.413C7.74422 75.9344 9.10152 75.7375 10.5328 75.7375C14.281 75.7375 18.7014 77.112 23.2935 78.6453C23.8004 78.8145 24.3099 78.9859 24.8218 79.1581C28.2625 80.3156 31.806 81.5076 35.3346 82.3107M3.10226 62.0434C2.99187 61.9678 2.88352 61.8898 2.7773 61.8091L2.77691 61.8088C2.6367 61.7022 2.49837 61.5938 2.36299 61.4835C2.24907 66.7874 2.44581 72.5321 2.99411 78.3116L35.3346 82.3107M35.7794 63.5211L35.3175 62.9302M35.7794 63.5211C35.7794 63.521 35.7795 63.521 35.7796 63.5209L35.3175 62.9302M35.7794 63.5211C37.5614 62.1282 38.889 59.8554 39.606 56.3746C39.606 56.3744 39.6061 56.3742 39.6061 56.3741L38.8715 56.2228C38.1779 59.5906 36.9172 61.6798 35.3175 62.9302M39.1074 54.1773C39.2222 50.1546 37.0736 46.9163 33.7204 44.5096L34.2825 43.9907M39.1074 54.1773L82.7497 61.2119C79.6786 63.5442 74.5143 63.5681 69.6032 63.5908C67.0671 63.6025 64.5985 63.6139 62.5205 63.9427C62.345 63.9704 62.1685 63.9985 61.9913 64.0267C60.1649 64.3176 58.2544 64.6219 56.4231 64.6219C54.3141 64.6219 52.3098 64.2182 50.6632 62.9302C49.0635 61.6798 47.8012 59.5906 47.1091 56.2228C46.9639 55.5232 46.8857 54.8378 46.8717 54.1773C46.7629 50.1891 48.8694 46.9706 52.1758 44.5703L51.6142 44.0521M39.1074 54.1773L39.8573 54.1933C39.8572 54.1943 39.8572 54.1953 39.8572 54.1963M39.1074 54.1773L39.8571 54.1987C39.8572 54.1979 39.8572 54.1971 39.8572 54.1963M34.2825 43.9907C34.0769 43.8406 33.8673 43.6939 33.6537 43.5504L42.913 35.0034M34.2825 43.9907L42.9131 36.024M34.2825 43.9907C37.7005 46.487 39.9788 49.9026 39.8572 54.1963M42.913 35.0034L52.24 43.609C52.0274 43.7534 51.8187 43.9011 51.6142 44.0521M42.913 35.0034L43.4217 35.5545L42.9131 36.024M42.913 35.0034L42.4044 35.5546L42.9131 36.024M51.6142 44.0521C48.2405 46.5434 46.0064 49.9394 46.1219 54.196C46.1371 54.9032 46.2208 55.6332 46.3747 56.3745C47.0902 59.8557 48.4195 62.1283 50.2013 63.5211C52.031 64.9522 54.226 65.3719 56.4231 65.3719C58.3174 65.3719 60.287 65.0579 62.1029 64.7685C62.2826 64.7398 62.4609 64.7114 62.6374 64.6836L62.6377 64.6835C64.107 64.451 65.7978 64.3808 67.611 64.356C68.2549 64.3471 68.9179 64.344 69.5895 64.3409C70.7854 64.3353 72.0087 64.3296 73.2012 64.2911C76.7538 64.1764 80.363 63.7722 82.8932 62.0332C82.9821 67.0307 82.794 72.4065 82.2965 77.819M51.6142 44.0521L42.9131 36.024M35.3346 82.3107C34.9752 81.8757 34.6321 81.4358 34.2991 81.0081C34.247 80.9419 34.195 80.8759 34.1431 80.81C33.836 80.4196 33.5332 80.0349 33.2201 79.6599L33.219 79.6585C32.8926 79.2656 32.3314 78.8955 31.5644 78.5685C30.8084 78.2462 29.9133 77.9911 28.9856 77.7941C27.1291 77.3999 25.2257 77.2555 24.2308 77.2374L35.3346 82.3107ZM82.2965 77.819C81.4529 77.2723 80.5201 76.8063 79.5032 76.4138L79.5022 76.4134C78.2552 75.9343 76.8926 75.7375 75.462 75.7375C71.7137 75.7375 67.2933 77.112 62.7018 78.6453C62.194 78.8149 61.6835 78.9866 61.1707 79.1591C57.7322 80.316 54.1913 81.5073 50.666 82.3102C51.006 81.8991 51.3317 81.4839 51.6489 81.0795L51.7047 81.0084L51.706 81.0068C52.0626 80.5497 52.4182 80.098 52.7814 79.6573C53.1071 79.2662 53.6674 78.8971 54.4336 78.5705C55.1895 78.2483 56.0848 77.9931 57.0128 77.7958C58.8699 77.401 60.774 77.2555 61.7685 77.2374C61.7685 77.2374 61.7686 77.2374 61.7686 77.2374M82.2965 77.819L61.755 76.4875L61.7686 77.2374M82.2965 77.819L39.8572 54.1963M61.7686 77.2374C62.2283 77.2291 62.6754 77.0348 62.9921 76.6845M61.7686 77.2374L62.9921 76.6845M62.9921 76.6845C63.298 76.3554 63.4747 75.9055 63.4475 75.4324C63.4173 74.841 63.2931 73.0672 62.8426 71.2382C62.6169 70.3222 62.3032 69.366 61.8628 68.5285C61.4256 67.6971 60.8329 66.9243 60.0198 66.4569L60.0168 66.4551C58.7873 65.7559 56.9181 65.5623 54.4666 65.7074L54.4648 65.7075C53.0068 65.7975 51.6357 65.9899 50.8092 66.1227C48.235 63.8749 46.7207 60.3528 45.8452 56.8936C44.9461 53.3414 44.7502 49.9761 44.7126 48.422L44.7126 48.4199C44.6877 47.4983 43.9374 46.7496 43.0005 46.7496C42.0721 46.7496 41.3118 47.4944 41.2869 48.4199L41.2868 48.422C41.2492 49.9763 41.0545 53.3403 40.1553 56.8917C39.2795 60.3503 37.7637 63.8728 35.1842 66.1228C34.1327 65.9532 32.1686 65.6768 30.28 65.6638M62.9921 76.6845L30.28 65.6638M30.28 65.6638C30.2804 65.6638 30.2808 65.6638 30.2811 65.6638L30.2746 66.4138L30.2797 65.6638C30.2798 65.6638 30.2799 65.6638 30.28 65.6638ZM23.0129 76.6905C23.0119 76.6893 23.0108 76.6882 23.0098 76.6871L23.5602 76.1776L23.016 76.6937C23.0149 76.6926 23.0139 76.6915 23.0129 76.6905Z" stroke="url(#paint9_radial_524_805)" stroke-width="1.5"/>
<path d="M65.6647 88.5288L65.6641 88.527L65.3237 87.5151L65.3235 87.5145L64.7027 85.6634C67.3737 84.7666 69.8927 83.9564 72.0718 83.473C73.3741 83.7642 74.1904 84.6671 74.642 86.1303C75.1224 87.687 75.1538 89.8011 74.8504 92.2077C74.2456 97.0039 72.3534 102.652 70.6166 106.565L71.3021 106.87L70.6166 106.565C69.7893 108.429 68.835 109.636 67.7973 110.398C67.0653 110.936 66.265 111.273 65.3883 111.452L65.4569 111.236L65.4577 111.234L65.8894 109.862C65.8896 109.861 65.8898 109.861 65.8899 109.86C66.4681 108.048 65.4642 106.107 63.6496 105.532L63.6497 105.532L63.4222 106.247L63.6484 105.532L65.6647 88.5288ZM65.6647 88.5288C66.2663 90.3329 65.2996 92.2931 63.4933 92.8982L59.4868 94.2434C59.4863 94.2435 59.4859 94.2437 59.4855 94.2438C57.682 94.8533 55.7237 93.8796 55.1218 92.0732C55.1216 92.0727 55.1215 92.0722 55.1213 92.0717L54.8176 91.1717L54.8171 91.1703L54.1045 89.0436L54.3879 91.2307L54.388 91.2315L54.5129 92.1868C54.5129 92.1868 54.5129 92.1869 54.5129 92.1869C54.7602 94.0774 53.4311 95.8095 51.5406 96.0575L51.5397 96.0576L47.35 96.6022C47.35 96.6022 47.3499 96.6022 47.3498 96.6022C45.4617 96.848 43.7307 95.5166 43.485 93.6298L43.4849 93.6294L43.3069 92.2557L43.3068 92.2553L43.0879 90.5736C43.0587 90.5738 43.0297 90.574 43.0008 90.574C42.9721 90.574 42.9432 90.5738 42.9142 90.5736L42.7042 92.1972L42.704 92.1983L42.5166 93.6298L65.6647 88.5288ZM55.2897 106.493C55.863 104.675 57.8021 103.669 59.6192 104.249L42.5166 93.6303C42.2706 95.517 40.5396 96.8481 38.6516 96.6022L34.4603 96.0576L34.4593 96.0575C32.5702 95.8094 31.242 94.0774 31.487 92.1879C31.487 92.1878 31.4871 92.1877 31.4871 92.1876L31.6745 90.7387L31.6746 90.7381L31.8944 89.0505L31.3534 90.669L31.353 90.6701L30.8817 92.0725C30.8816 92.0728 30.8814 92.0731 30.8813 92.0734C30.2778 93.8795 28.3194 94.8537 26.5153 94.2435C26.5151 94.2435 26.515 94.2434 26.5148 94.2434L22.5099 92.8982C20.705 92.2935 19.7333 90.3342 20.3354 88.5288L20.3362 88.5265L20.7746 87.2259L20.7751 87.2244L21.2975 85.6643C19.5123 85.0666 17.795 84.5048 16.1943 84.0529C14.0319 84.2324 12.5136 85.1071 11.6884 86.8894C10.8077 88.7916 10.6451 91.8669 11.6705 96.5769L11.6706 96.5771C12.8061 101.8 13.7838 105.607 15.0481 108.109C15.6748 109.35 16.3468 110.216 17.0959 110.773C17.8308 111.319 18.683 111.6 19.7424 111.6C20.1165 111.6 20.5238 111.562 20.9643 111.485L20.6515 110.495L20.6504 110.491L20.4484 109.863L20.4478 109.861C19.8704 108.047 20.8785 106.106 22.6897 105.532C22.6898 105.532 22.69 105.532 22.6902 105.532L26.7191 104.249C26.7191 104.249 26.7192 104.249 26.7193 104.249C28.5348 103.669 30.4765 104.675 31.0481 106.494C31.0482 106.494 31.0482 106.494 31.0483 106.495L31.399 107.602L31.3992 107.602L31.7978 108.857C31.8419 108.85 31.8861 108.843 31.9302 108.836L31.7887 107.596L31.645 106.336L31.645 106.336C31.4294 104.443 32.7887 102.735 34.6796 102.519L38.8833 102.037L38.8836 102.037C40.7774 101.82 42.4808 103.186 42.6962 105.076L42.6962 105.076L42.8696 106.6L42.8696 106.6L43.032 108.025C43.1235 108.027 43.2149 108.028 43.3061 108.03L43.4694 106.612L43.4696 106.61L43.6428 105.076L43.6429 105.076C43.8582 103.187 45.5614 101.82 47.454 102.037L47.4542 102.037L51.6595 102.519C51.6596 102.519 51.6596 102.519 51.6597 102.519C53.5485 102.735 54.9097 104.443 54.6941 106.336L54.694 106.337L54.53 107.77L54.53 107.77L54.3308 109.516L54.8648 107.829L54.8651 107.829L55.2894 106.494C55.2895 106.494 55.2896 106.493 55.2897 106.493ZM64.5627 111.573L64.3174 112.344C64.5934 112.327 64.8648 112.299 65.1315 112.259L64.5627 111.573Z" stroke="url(#paint10_radial_524_805)" stroke-width="1.5"/>
<path d="M13.632 48.5133C13.9036 48.1733 14.2054 47.8591 14.5342 47.5703C13.9486 47.6966 13.3582 47.8741 12.8073 48.1213C12.0284 48.4706 11.3603 48.9452 10.8873 49.5814C10.4209 50.2086 10.1118 51.0358 10.1118 52.1565C10.1118 52.5139 10.1146 52.9665 10.3126 53.4967C10.5074 54.0185 10.9124 54.6665 11.8006 55.3415C11.9585 55.461 12.1575 55.5662 12.3929 55.6581C12.0412 54.6207 12.0393 53.7573 12.0393 53.3177C12.0393 53.3145 12.0393 53.3112 12.0393 53.3079C12.0393 53.2332 12.0393 53.1267 12.0481 53.015C12.1039 51.2444 12.6585 49.7321 13.632 48.5133Z" stroke="url(#paint11_radial_524_805)" stroke-width="1.5"/>
<path d="M28.6181 52.4419L28.6189 52.4453C28.6253 52.473 28.6268 52.4857 28.6298 52.512C28.6329 52.5385 28.6375 52.579 28.6505 52.663L28.6518 52.6713L28.6519 52.6713C28.6575 52.7049 28.6623 52.7331 28.6665 52.7575C28.6789 52.83 28.6856 52.8686 28.6889 52.9153L28.6891 52.9178C28.6923 52.9594 28.6918 52.9928 28.6911 53.05C28.6906 53.0833 28.6901 53.1247 28.6901 53.1805C28.6901 53.2556 28.6913 53.2995 28.6923 53.3324C28.6933 53.3712 28.694 53.3945 28.6917 53.4356C28.6819 53.5703 28.6597 53.721 28.6286 53.8904C28.6181 53.9436 28.6134 53.9901 28.6116 54.0073L28.6115 54.0087C28.6092 54.0182 28.6068 54.0284 28.604 54.0401L28.6036 54.0417C28.5984 54.0633 28.5919 54.0902 28.5853 54.1195C28.5795 54.1449 28.5739 54.1695 28.5685 54.1934C28.5414 54.3133 28.518 54.4165 28.4916 54.5165L28.4887 54.5272L28.4882 54.5288L28.4838 54.5426C28.4804 54.5536 28.4756 54.5691 28.4706 54.5873L29.1933 54.7877M28.6181 52.4419L17.964 56.9552M28.6181 52.4419C28.6065 52.3906 28.5923 52.3458 28.5684 52.2698C28.5617 52.2488 28.5544 52.2254 28.5461 52.1988L28.546 52.1988L28.5439 52.1919C28.5296 52.1444 28.5199 52.1106 28.5122 52.0838C28.5007 52.0436 28.4937 52.019 28.4822 51.9873C28.4658 51.944 28.4479 51.9061 28.4179 51.8426C28.4072 51.8199 28.3949 51.7939 28.3806 51.7633L28.3789 51.7595C28.3567 51.7111 28.342 51.6778 28.3304 51.6515C28.3151 51.6166 28.3052 51.5941 28.2902 51.565C28.2623 51.5141 28.2315 51.4653 28.1872 51.395C28.1791 51.3821 28.1705 51.3686 28.1615 51.3542L28.1615 51.3542L28.1579 51.3484C28.1411 51.3211 28.1271 51.2982 28.1149 51.2781C28.085 51.229 28.0658 51.1974 28.0414 51.1623L28.0404 51.1609C28.0142 51.1229 27.9908 51.0935 27.9549 51.0483C27.9357 51.0242 27.913 50.9956 27.8845 50.9589L27.8838 50.9581C27.8729 50.944 27.8628 50.9309 27.8534 50.9188C27.808 50.8602 27.7792 50.823 27.7474 50.7869L27.7474 50.7869L27.7399 50.7782C27.7001 50.7314 27.6582 50.6877 27.5986 50.6254C27.5885 50.6148 27.5779 50.6037 27.5667 50.592L27.5655 50.5908C27.5036 50.5257 27.4521 50.4717 27.4014 50.4219C27.3398 50.3643 27.2768 50.308 27.2094 50.2491L27.2094 50.2492L27.2042 50.2445C27.1908 50.2326 27.1783 50.2214 27.1665 50.2109C27.1078 50.1585 27.0659 50.121 27.0215 50.0853L27.0214 50.0853L27.0186 50.0829C26.9559 50.032 26.8904 49.9823 26.8125 49.9234C26.7917 49.9077 26.7726 49.8933 26.7545 49.8796C26.6988 49.8375 26.654 49.8037 26.6053 49.7695L26.6052 49.7695L26.5994 49.7653C26.5325 49.7175 26.4628 49.6699 26.3908 49.6223C26.3726 49.6103 26.3553 49.599 26.3387 49.5881C26.2752 49.5463 26.2224 49.5116 26.1674 49.4777L26.1652 49.4764C26.0934 49.4318 26.0207 49.3881 25.9448 49.3433C25.8679 49.2983 25.7893 49.2531 25.7116 49.209C25.6349 49.1675 25.5666 49.1306 25.4981 49.0957L25.491 49.092L25.4839 49.0882C25.4249 49.0565 25.3674 49.0272 25.302 48.9939C25.285 48.9853 25.2675 48.9764 25.2494 48.9672C25.1826 48.9338 25.1151 48.902 25.041 48.8679L25.0325 48.8639L25.0241 48.8598C24.9513 48.8241 24.8776 48.7899 24.8059 48.7587L24.7989 48.7557L24.792 48.7525C24.7492 48.7328 24.7122 48.7169 24.6679 48.6978C24.642 48.6866 24.6135 48.6744 24.58 48.6597C24.4967 48.6235 24.4309 48.5952 24.3666 48.5704L24.358 48.5671L24.3495 48.5636C24.284 48.5365 24.2225 48.5118 24.1626 48.4891H23.9363L23.9152 48.4679C23.5472 48.4468 23.1855 48.4359 22.835 48.4359H22.8335C21.6709 48.4359 19.8024 48.5682 18.2337 49.251C17.4574 49.5888 16.7862 50.048 16.3031 50.6628C15.8274 51.268 15.5037 52.0619 15.4721 53.1327M28.6181 52.4419L15.4721 53.1327M29.1933 54.7877L28.4712 54.5852C28.343 55.0424 28.193 55.4196 28.0268 55.72C28.0248 55.7233 28.0225 55.727 28.0201 55.731C28.0128 55.7428 28.0034 55.7588 27.993 55.7782C27.9435 55.8603 27.8971 55.9317 27.8523 55.9937L27.8016 56.0613C27.7608 56.1145 27.7144 56.1679 27.6633 56.2216L27.6543 56.2309L27.6544 56.231L27.6351 56.2522L27.63 56.2579L27.6227 56.265C27.2744 56.609 26.7686 56.8125 25.7512 56.814H25.7511H25.7511H25.7511H25.7511H25.751H25.751H25.751H25.751H25.7509H25.7509H25.7509H25.7508H25.7508H25.7508H25.7508H25.7507H25.7507H25.7507H25.7506H25.7506H25.7506H25.7506H25.7505H25.7505H25.7505H25.7505H25.7504H25.7504H25.7504H25.7503H25.7503H25.7503H25.7503H25.7502H25.7502H25.7502H25.7502H25.7501H25.7501H25.7501H25.75H25.75H25.75H25.75H25.7499H25.7499H25.7499H25.7499H25.7498H25.7498H25.7498H25.7497H25.7497H25.7497H25.7497H25.7496H25.7496H25.7496H25.7495H25.7495H25.7495H25.7495H25.7494H25.7494H25.7494H25.7494H25.7493H25.7493H25.7493H25.7492H25.7492H25.7492H25.7492H25.7491H25.7491H25.7491H25.7491H25.749H25.749H25.749H25.7489H25.7489H25.7489H25.7489H25.7488H25.7488H25.7488H25.7488H25.7487H25.7487H25.7487H25.7486H25.7486H25.7486H25.7486H25.7485H25.7485H25.7485H25.7485H25.7484H25.7484H25.7484H25.7483H25.7483H25.7483H25.7483H25.7482H25.7482H25.7482H25.7481H25.7481H25.7481H25.7481H25.748H25.748H25.748H25.748H25.7479H25.7479H25.7479H25.7478H25.7478H25.7478H25.7478H25.7477H25.7477H25.7477H25.7477H25.7476H25.7476H25.7476H25.7475H25.7475H25.7475H25.7475H25.7474H25.7474H25.7474H25.7473H25.7473H25.7473H25.7473H25.7472H25.7472H25.7472H25.7472H25.7471H25.7471H25.7471H25.747H25.747H25.747H25.747H25.7469H25.7469H25.7469H25.7469H25.7468H25.7468H25.7468H25.7467H25.7467H25.7467H25.7467H25.7466H25.7466H25.7466H25.7466H25.7465H25.7465H25.7465H25.7464H25.7464H25.7464H25.7464H25.7463H25.7463H25.7463H25.7463H25.7462H25.7462H25.7462H25.7461H25.7461H25.7461H25.7461H25.746H25.746H25.746H25.7459H25.7459H25.7459H25.7459H25.7458H25.7458H25.7458H25.7458H25.7457H25.7457H25.7457H25.7456H25.7456H25.7456H25.7456H25.7455H25.7455H25.7455H25.7455H25.7454H25.7454H25.7454H25.7453H25.7453H25.7453H25.7453H25.7452H25.7452H25.7452H25.7452H25.7451H25.7451H25.7451H25.745H25.745H25.745H25.745H25.7449H25.7449H25.7449H25.7448H25.7448H25.7448H25.7448H25.7447H25.7447H25.7447H25.7447H25.7446H25.7446H25.7446H25.7445H25.7445H25.7445H25.7445H25.7444H25.7444H25.7444H25.7444H25.7443H25.7443H25.7443H25.7442H25.7442H25.7442H25.7442H25.7441H25.7441H25.7441H25.7441H25.744H25.744H25.744H25.7439H25.7439H25.7439H25.7439H25.7438H25.7438H25.7438H25.7437H25.7437H25.7437H25.7437H25.7436H25.7436H25.7436H25.7436H25.7435H25.7435H25.7435H25.7434H25.7434H25.7434H25.7434H25.7433H25.7433H25.7433H25.7433H25.7432H25.7432H25.7432H25.7431H25.7431H25.7431H25.7431H25.743H25.743H25.743H25.743H25.7429H25.7429H25.7429H25.7428H25.7428H25.7428H25.7428H25.7427H25.7427H25.7427H25.7426H25.7426H25.7426H25.7426H25.7425H25.7425H25.7425H25.7425H25.7424H25.7424H25.7424H25.7423H25.7423H25.7423H25.7423H25.7422H25.7422H25.7422H25.7422H25.7421H25.7421H25.7421H25.742H25.742H25.742H25.742H25.7419H25.7419H25.7419H25.7419H25.7418H25.7418H25.7418H25.7417H25.7417H25.7417H25.7417H25.7416H25.7416H25.7416H25.7415H25.7415H25.7415H25.7415H25.7414H25.7414H25.7414H25.7414H25.7413H25.7413H25.7413H25.7412H25.7412H25.7412H25.7412H25.7411H25.7411H25.7411H25.7411H25.741H25.741H25.741H25.7409H25.7409H25.7409H25.7409H25.7408H25.7408H25.7408H25.7408H25.7407H25.7407H25.7407H25.7406H25.7406H25.7406H25.7406H25.7405H25.7405H25.7405H25.7404H25.7404H25.7404H25.7404H25.7403H25.7403H25.7403H25.7403H25.7402H25.7402H25.7402H25.7401H25.7401H25.7401H25.7401H25.74H25.74H25.74H25.74H25.7399H25.7399H25.7399H25.7398H25.7398H25.7398H25.7398H25.7397H25.7397H25.7397H25.7397H25.7396H25.7396H25.7396H25.7395H25.7395H25.7395H25.7395H25.7394H25.7394H25.7394H25.7393H25.7393H25.7393H25.7393H25.7392H25.7392H25.7392H25.7392H25.7391H25.7391H25.7391H25.739H25.739H25.739H25.739H25.7389H25.7389H25.7389H25.7389H25.7388H25.7388H25.7388H25.7387H25.7387H25.7387H25.7387H25.7386H25.7386H25.7386H25.7386H25.7385H25.7385H25.7385H25.7384H25.7384H25.7384H25.7384H25.7383H25.7383H25.7383H25.7383H25.7382H25.7382H25.7382H25.7381H25.7381H25.7381H25.7381H25.738H25.738H25.738H25.7379H25.7379H25.7379H25.7379H25.7378H25.7378H25.7378H25.7378H25.7377H25.7377H25.7377H25.7376C25.5236 56.814 25.3022 56.8054 25.0717 56.788C24.9367 56.7775 24.7989 56.7623 24.6465 56.7456C24.613 56.7419 24.5787 56.7381 24.5436 56.7343C24.5047 56.7297 24.4663 56.7262 24.4405 56.7239C24.4367 56.7236 24.4331 56.7233 24.4298 56.723C24.3986 56.7201 24.3828 56.7184 24.3707 56.7167L24.3634 56.7156L24.356 56.7147C23.8625 56.6541 23.3573 56.5734 22.8456 56.4916L22.8444 56.4914L22.5477 56.4445C22.5477 56.4445 22.5477 56.4445 22.5476 56.4445C21.4634 56.2728 20.2761 56.2288 19.1225 56.2131L19.1215 56.2131C18.7372 56.2084 18.3486 56.2052 17.9655 56.2052M29.1933 54.7877C29.1964 54.7765 29.1998 54.766 29.2031 54.7557C29.2081 54.7401 29.213 54.7249 29.2167 54.7079L28.206 56.7392C28.2731 56.6688 28.3388 56.5937 28.3997 56.5139L28.4559 56.4388C28.5231 56.3464 28.5872 56.2463 28.6497 56.1414C28.6545 56.1304 28.6604 56.1213 28.6664 56.1119C28.6681 56.1093 28.6698 56.1066 28.6715 56.1039C28.8777 55.7361 29.0511 55.2948 29.1933 54.7877ZM17.9655 56.2052C17.965 56.2052 17.9645 56.2052 17.964 56.2052V56.9552M17.9655 56.2052C17.9659 56.2052 17.9664 56.2052 17.9669 56.2052L17.964 56.9552M17.9655 56.2052C17.5754 56.2037 17.1775 56.1993 16.781 56.1934M17.964 56.9552C17.5563 56.9536 17.1407 56.9489 16.7283 56.9427C16.678 56.9427 16.6283 56.9413 16.578 56.9399C16.5518 56.9392 16.5254 56.9385 16.4987 56.938M16.781 56.1934C16.8422 56.2478 16.9062 56.3024 16.9734 56.3573L16.7327 56.6517L16.7283 56.6571L16.4987 56.938M16.781 56.1934C16.7673 56.1932 16.7535 56.193 16.7397 56.1928L16.7283 56.1926V56.1927C16.6871 56.1927 16.6542 56.1918 16.6122 56.1906C16.5848 56.1898 16.5536 56.1889 16.5137 56.1881L16.4987 56.938M16.781 56.1934C16.1219 55.607 15.8051 55.0539 15.6451 54.5992C15.4673 54.094 15.4646 53.6636 15.4646 53.3182C15.4646 53.3056 15.4644 53.2934 15.4642 53.2826M16.4987 56.938C14.7146 55.4794 14.7146 54.0303 14.7146 53.3182C14.7146 53.3009 14.714 53.2829 14.7135 53.2692C14.7132 53.2606 14.713 53.2536 14.713 53.2494M29.3917 52.5482C29.3951 52.5688 29.3987 52.5892 29.4022 52.6097C29.4165 52.6922 29.4307 52.7747 29.437 52.8612C29.4427 52.9364 29.4417 53.0149 29.4408 53.0931C29.4405 53.1223 29.4401 53.1515 29.4401 53.1805C29.4401 53.2145 29.4408 53.2479 29.4415 53.2813C29.4429 53.3479 29.4443 53.4143 29.4401 53.4841L29.3917 52.5482ZM29.3917 52.5482C29.387 52.518 29.383 52.4874 29.379 52.4568C29.3711 52.3956 29.3631 52.3344 29.3495 52.2759L29.3917 52.5482ZM14.713 53.2494L15.3058 53.3182L15.458 53.3359L15.4601 53.3182L15.4642 53.2826M14.713 53.2494H15.3005H15.463L15.4629 53.2376C15.4629 53.2365 15.4629 53.2363 15.4629 53.2377L15.4631 53.2438L15.4634 53.2536C15.4635 53.2577 15.4637 53.2627 15.4639 53.2684C15.464 53.2727 15.4641 53.2775 15.4642 53.2826M14.713 53.2494L15.4721 53.1327M15.4642 53.2826L15.4658 53.2686L15.4698 53.2339L15.4706 53.1991L15.4721 53.1327" stroke="url(#paint12_radial_524_805)" stroke-width="1.5"/>
<path d="M30.7223 57.8696C30.8169 57.7334 30.9048 57.5927 30.989 57.4458L30.99 57.4442C30.9981 57.4299 31.0047 57.4173 31.0097 57.4076C31.0147 57.3977 31.0188 57.3891 31.0219 57.3826C31.0232 57.3798 31.0245 57.377 31.0257 57.3743C31.0586 57.3136 31.0982 57.2341 31.1228 57.1849C31.1323 57.1659 31.1395 57.1515 31.1432 57.1443L31.1464 57.1381L31.1464 57.1381C31.1543 57.1225 31.1635 57.1046 31.1737 57.0848C31.2116 57.0115 31.2626 56.9126 31.3064 56.8143M30.7223 57.8696L30.6213 56.5092M30.7223 57.8696C30.716 57.8794 30.7103 57.8878 30.7055 57.8948C30.7019 57.9001 30.6984 57.9051 30.6953 57.9094L30.6914 57.9161L30.6716 57.9439C30.5835 58.0679 30.4914 58.1885 30.3938 58.3048C30.3625 58.3447 30.3323 58.3792 30.3146 58.3995L30.3141 58.4C30.2084 58.5239 30.099 58.6387 29.99 58.7446L29.9836 58.7511L29.9741 58.7606L29.9682 58.7665L29.9622 58.7722C29.8306 58.8983 29.6973 59.0091 29.5716 59.1071L29.5567 59.1187L29.5412 59.1296L29.532 59.1361L29.529 59.1382L29.5199 59.1455L29.5065 59.1553C29.403 59.231 29.291 59.3087 29.1712 59.3824C29.1343 59.4074 29.1009 59.4274 29.084 59.4375L29.0799 59.44L29.0761 59.4423C28.8013 59.6053 28.5135 59.7426 28.2129 59.8513C28.1927 59.8589 28.1752 59.8649 28.1681 59.8674C28.1631 59.8691 28.1605 59.87 28.1594 59.8704L28.1533 59.8728L28.1447 59.8758C28.0141 59.9225 27.8868 59.9602 27.77 59.9928C27.7502 59.9988 27.7328 60.0036 27.7218 60.0067L27.6947 60.0143L27.6814 60.0182L27.668 60.0216C27.3689 60.0978 27.0662 60.1519 26.7625 60.1882L26.7389 60.191L26.7153 60.1924C26.7151 60.1924 26.7131 60.1925 26.7083 60.193L26.6801 60.1962L26.672 60.1971L26.664 60.1979L26.6585 60.1984C26.5481 60.209 26.4207 60.2213 26.2892 60.2284L26.2881 60.2285L26.1955 60.2333L26.1921 60.2334C26.0493 60.2399 25.8976 60.2452 25.7409 60.2452C25.2474 60.2452 24.7548 60.2045 24.2832 60.155L24.2805 60.1547C23.5207 60.0723 22.761 59.9511 22.0478 59.8374L22.0154 59.8323C22.0152 59.8322 22.015 59.8322 22.0148 59.8322C21.1718 59.6994 20.1956 59.6581 19.1314 59.6436C18.754 59.6384 18.3616 59.6366 17.9623 59.6348C17.2597 59.6316 16.5358 59.6283 15.8347 59.6063L15.8342 59.6063C13.6487 59.5362 11.3217 59.2844 9.72914 58.0752L9.72896 58.0751C8.23764 56.9421 7.46371 55.7058 7.07189 54.6084C6.68472 53.524 6.68473 52.6111 6.68474 52.1626V52.157C6.68474 49.4191 7.8461 47.3008 9.82244 45.8934C11.7679 44.5081 14.4464 43.8483 17.4658 43.8483C17.9857 43.8483 18.5174 43.8677 19.0591 43.9065M30.7223 57.8696L31.9715 54.6834M31.3064 56.8143L30.6213 56.5092M31.3064 56.8143C31.3062 56.8149 31.3059 56.8154 31.3057 56.8159L30.6213 56.5092M31.3064 56.8143C31.3347 56.7509 31.3851 56.6208 31.4043 56.5712C31.4079 56.5618 31.4104 56.5553 31.4115 56.5527M30.6213 56.5092C30.6419 56.4632 30.6609 56.4138 30.6798 56.3643C30.6924 56.3314 30.705 56.2985 30.7182 56.2666M31.4115 56.5527C31.411 56.5538 31.4105 56.5549 31.4101 56.556L30.7182 56.2666M31.4115 56.5527C31.4151 56.5439 31.4189 56.535 31.4226 56.526C31.4662 56.4219 31.5168 56.3012 31.5645 56.171L31.5695 56.1573L31.574 56.1434C31.5846 56.1108 31.5947 56.0765 31.6016 56.0529L31.6046 56.0428C31.6129 56.0148 31.6176 55.9995 31.6215 55.9884L31.6232 55.9832L31.6232 55.9832C31.7554 55.5875 31.8744 55.1594 31.9715 54.6834M31.4115 56.5527C31.4116 56.5523 31.4117 56.552 31.4118 56.5518L30.7182 56.2666M30.7182 56.2666L31.9715 54.6834M31.9715 54.6834C32.4549 52.3392 31.8193 50.3236 30.4838 48.7084C29.1683 47.1175 27.1949 45.9351 24.9971 45.1375C23.1416 44.4636 21.0886 44.0502 19.0591 43.9065M19.0591 43.9065L19.0062 44.6546M19.0591 43.9065C19.0593 43.9065 19.0595 43.9065 19.0597 43.9065L19.0062 44.6546M19.0062 44.6546C20.973 44.7939 22.957 45.1945 24.7411 45.8424L19.0062 44.6546ZM31.2163 46.0702L31.2158 46.0699C29.0617 44.7237 26.3912 43.685 23.5091 43.0092C21.7143 42.5896 19.8466 42.3061 17.9743 42.1727C17.156 42.1158 16.3441 42.0837 15.5708 42.0837H15.5661C10.3326 42.0837 6.21329 43.4205 3.83655 45.7009C3.81174 45.7255 3.78795 45.7479 3.77152 45.7633L3.76876 45.7659C3.74839 45.7851 3.73719 45.7957 3.7272 45.8057L3.72504 45.8079C2.49167 47.0334 1.70926 48.555 1.40335 50.3474L1.40331 50.3476C1.30441 50.926 1.25 51.5504 1.25 52.204V52.207C1.25 53.2362 1.24999 55.245 3.06731 57.4051L3.06836 57.4064C3.52548 57.9521 4.10856 58.5118 4.84978 59.0747L4.85028 59.0751C5.96565 59.9235 7.63927 60.3965 9.70168 60.6435C11.7495 60.8888 14.0631 60.9001 16.3925 60.9095L16.3939 60.9095L16.549 60.9105C19.1256 60.9255 21.6311 60.9402 23.8749 61.2958C23.8752 61.2958 23.8755 61.2959 23.8758 61.2959L24.3755 61.3739L24.378 61.3743C26.1685 61.6598 27.9425 61.9424 29.5621 61.9424C31.4611 61.9424 32.7302 61.5577 33.6677 60.8198L33.6694 60.8185C34.818 59.9195 35.7207 58.2508 36.2496 55.6804L36.2502 55.6775C36.3616 55.1473 36.4227 54.6236 36.4311 54.1209L36.4314 54.1125C36.5225 50.8683 34.528 48.1365 31.2163 46.0702Z" stroke="url(#paint13_radial_524_805)" stroke-width="1.5"/>
<path d="M73.6069 55.6576C73.8418 55.5658 74.0405 55.4607 74.1981 55.3414C75.0863 54.6664 75.4912 54.0185 75.686 53.4967C75.884 52.9665 75.8868 52.5139 75.8868 52.1565C75.8868 51.0358 75.5776 50.2086 75.1113 49.5814C74.6382 48.9452 73.97 48.4707 73.1911 48.1213C72.6407 47.8744 72.0508 47.697 71.4656 47.5706C71.7943 47.8593 72.0959 48.1734 72.3674 48.5133C73.3399 49.7308 73.8944 51.2412 73.9504 53.0096C73.9609 53.125 73.9609 53.234 73.9609 53.3069C73.9609 53.3106 73.9609 53.3142 73.9609 53.3177C73.9609 53.7573 73.9589 54.6205 73.6069 55.6576Z" stroke="url(#paint14_radial_524_805)" stroke-width="1.5"/>
<path d="M57.3795 52.4419L57.3795 52.4419C57.3912 52.3903 57.4055 52.3453 57.4296 52.2688C57.4361 52.248 57.4434 52.225 57.4516 52.1988L57.4537 52.1919L57.4537 52.1919C57.467 52.1478 57.4762 52.116 57.4834 52.0911C57.4959 52.0477 57.5024 52.0253 57.5139 51.9955L57.5156 51.9908L57.5156 51.9908C57.536 51.9367 57.56 51.8854 57.5993 51.8012C57.6048 51.7892 57.6107 51.7766 57.617 51.7632L57.6187 51.7595L57.6187 51.7595C57.6391 51.7152 57.653 51.6838 57.6638 51.6593C57.6812 51.6202 57.6907 51.5988 57.7062 51.5701L57.7105 51.5622L57.7104 51.5622C57.7389 51.508 57.7747 51.4517 57.8324 51.3625L57.8369 51.3555L57.8413 51.3484C57.8676 51.3058 57.8856 51.2757 57.8999 51.2517C57.9211 51.2161 57.9342 51.1941 57.954 51.1654C57.9904 51.1145 58.0294 51.0658 58.0839 50.9976C58.0919 50.9875 58.1003 50.9771 58.109 50.9662L58.1155 50.9581L58.1217 50.9498C58.1778 50.8755 58.2141 50.8279 58.2502 50.7869L58.2578 50.7783L58.2577 50.7782C58.2914 50.7387 58.3244 50.7045 58.373 50.654C58.3905 50.6358 58.4101 50.6155 58.4325 50.592L58.4402 50.584L58.4401 50.5839C58.4976 50.5219 58.5479 50.4694 58.5968 50.4227L58.5977 50.4218C58.6537 50.3683 58.7141 50.3153 58.7898 50.2491L58.7951 50.2445L58.795 50.2445C58.8116 50.2297 58.827 50.216 58.8415 50.203C58.8958 50.1545 58.9373 50.1174 58.9808 50.0815C59.0421 50.0317 59.1064 49.9829 59.1823 49.9255C59.2232 49.8953 59.2549 49.8715 59.2835 49.8501L57.3795 52.4419ZM57.3795 52.4419L57.3788 52.4453C57.3721 52.4742 57.369 52.498 57.3624 52.549C57.3591 52.5746 57.3549 52.6071 57.3489 52.6505L57.349 52.6506L57.3475 52.6604C57.337 52.73 57.3293 52.7737 57.3236 52.8064C57.3158 52.8507 57.3116 52.8747 57.3087 52.9153L57.3085 52.9178C57.3053 52.9594 57.3058 52.9928 57.3065 53.05C57.307 53.0833 57.3075 53.1247 57.3075 53.1805C57.3075 53.2436 57.3067 53.2863 57.306 53.3208C57.3052 53.3655 57.3046 53.3966 57.3064 53.4411C57.3162 53.5718 57.3389 53.7184 57.3697 53.8939C57.3748 53.9201 57.3782 53.9429 57.3805 53.9601C57.3827 53.9764 57.3846 53.993 57.3854 54.0001C57.3854 54.0002 57.3854 54.0002 57.3854 54.0003L57.3861 54.0038C57.3868 54.0076 57.3883 54.0145 57.3932 54.0341C57.3938 54.0366 57.3946 54.0396 57.3954 54.043C57.3999 54.061 57.4075 54.0909 57.4141 54.1204L57.4142 54.1204L57.4154 54.1263C57.446 54.2671 57.4731 54.3904 57.503 54.5049C57.5035 54.5064 57.5041 54.5083 57.5049 54.5107L57.5057 54.5129C57.5098 54.5253 57.5194 54.5541 57.5286 54.5873C57.6569 55.05 57.8113 55.4329 57.9818 55.7371L57.9834 55.7399L57.9861 55.7443C57.9898 55.7505 57.9948 55.7588 58.0004 55.7686C58.0468 55.8482 58.0967 55.9243 58.1473 55.9942C58.1599 56.0112 58.1713 56.027 58.1789 56.0377L58.1801 56.0393C58.1883 56.0508 58.1929 56.057 58.1965 56.0619C58.2359 56.1133 58.2813 56.1659 58.3325 56.2212L58.3423 56.2311L58.3558 56.245C58.3583 56.2475 58.3599 56.2491 58.3607 56.2499L58.3677 56.2564L58.3764 56.265C58.7249 56.6091 59.2294 56.8125 60.2465 56.814H60.2465H60.2465H60.2466H60.2466H60.2466H60.2466H60.2467H60.2467H60.2467H60.2468H60.2468H60.2468H60.2468H60.2469H60.2469H60.2469H60.247H60.247H60.247H60.247H60.2471H60.2471H60.2471H60.2471H60.2472H60.2472H60.2472H60.2473H60.2473H60.2473H60.2473H60.2474H60.2474H60.2474H60.2474H60.2475H60.2475H60.2475H60.2476H60.2476H60.2476H60.2476H60.2477H60.2477H60.2477H60.2477H60.2478H60.2478H60.2478H60.2479H60.2479H60.2479H60.2479H60.248H60.248H60.248H60.2481H60.2481H60.2481H60.2481H60.2482H60.2482H60.2482H60.2482H60.2483H60.2483H60.2483H60.2484H60.2484H60.2484H60.2484H60.2485H60.2485H60.2485H60.2486H60.2486H60.2486H60.2486H60.2487H60.2487H60.2487H60.2487H60.2488H60.2488H60.2488H60.2489H60.2489H60.2489H60.2489H60.249H60.249H60.249H60.2491H60.2491H60.2491H60.2491H60.2492H60.2492H60.2492H60.2492H60.2493H60.2493H60.2493H60.2494H60.2494H60.2494H60.2494H60.2495H60.2495H60.2495H60.2496H60.2496H60.2496H60.2496H60.2497H60.2497H60.2497H60.2498H60.2498H60.2498H60.2498H60.2499H60.2499H60.2499H60.2499H60.25H60.25H60.25H60.2501H60.2501H60.2501H60.2501H60.2502H60.2502H60.2502H60.2503H60.2503H60.2503H60.2503H60.2504H60.2504H60.2504H60.2505H60.2505H60.2505H60.2505H60.2506H60.2506H60.2506H60.2507H60.2507H60.2507H60.2507H60.2508H60.2508H60.2508H60.2509H60.2509H60.2509H60.2509H60.251H60.251H60.251H60.2511H60.2511H60.2511H60.2511H60.2512H60.2512H60.2512H60.2513H60.2513H60.2513H60.2513H60.2514H60.2514H60.2514H60.2515H60.2515H60.2515H60.2515H60.2516H60.2516H60.2516H60.2517H60.2517H60.2517H60.2517H60.2518H60.2518H60.2518H60.2519H60.2519H60.2519H60.2519H60.252H60.252H60.252H60.2521H60.2521H60.2521H60.2521H60.2522H60.2522H60.2522H60.2523H60.2523H60.2523H60.2524H60.2524H60.2524H60.2524H60.2525H60.2525H60.2525H60.2526H60.2526H60.2526H60.2526H60.2527H60.2527H60.2527H60.2528H60.2528H60.2528H60.2529H60.2529H60.2529H60.2529H60.253H60.253H60.253H60.2531H60.2531H60.2531H60.2531H60.2532H60.2532H60.2532H60.2533H60.2533H60.2533H60.2534H60.2534H60.2534H60.2534H60.2535H60.2535H60.2535H60.2536H60.2536H60.2536H60.2537H60.2537H60.2537H60.2537H60.2538H60.2538H60.2538H60.2539H60.2539H60.2539H60.254H60.254H60.254H60.254H60.2541H60.2541H60.2541H60.2542H60.2542H60.2542H60.2543H60.2543H60.2543H60.2544H60.2544H60.2544H60.2544H60.2545H60.2545H60.2545H60.2546H60.2546H60.2546H60.2547H60.2547H60.2547H60.2547H60.2548H60.2548H60.2548H60.2549H60.2549H60.2549H60.255H60.255H60.255H60.2551H60.2551H60.2551H60.2551H60.2552H60.2552H60.2552H60.2553H60.2553H60.2553H60.2554H60.2554H60.2554H60.2555H60.2555H60.2555H60.2556H60.2556H60.2556H60.2556H60.2557H60.2557H60.2557H60.2558H60.2558H60.2558H60.2559H60.2559H60.2559H60.256H60.256H60.256H60.2561H60.2561H60.2561H60.2562H60.2562H60.2562H60.2562H60.2563H60.2563H60.2563H60.2564H60.2564H60.2564H60.2565H60.2565H60.2565H60.2566H60.2566H60.2566H60.2567H60.2567H60.2567H60.2568H60.2568H60.2568H60.2569H60.2569H60.2569H60.257H60.257H60.257H60.2571H60.2571H60.2571H60.2572H60.2572H60.2572H60.2572H60.2573H60.2573H60.2573H60.2574H60.2574H60.2574H60.2575H60.2575H60.2575H60.2576H60.2576H60.2576H60.2577H60.2577H60.2577H60.2578H60.2578H60.2578H60.2579H60.2579H60.2579H60.258H60.258H60.258H60.2581H60.2581H60.2581H60.2582H60.2582H60.2582H60.2583H60.2583H60.2583H60.2584H60.2584H60.2584H60.2585H60.2585H60.2585H60.2586H60.2586H60.2586H60.2587H60.2587H60.2587H60.2588H60.2588H60.2589H60.2589H60.2589H60.259H60.259H60.259H60.2591H60.2591H60.2591H60.2592H60.2592H60.2592H60.2593H60.2593H60.2593H60.2594H60.2594H60.2594H60.2595H60.2595H60.2595H60.2596H60.2596H60.2596H60.2597H60.2597H60.2597H60.2598H60.2598H60.2599H60.2599H60.2599H60.26H60.26H60.26H60.2601H60.2601H60.2601H60.2602H60.2602H60.2602H60.2603H60.2603H60.2603H60.2604H60.2604H60.2605H60.2605H60.2605H60.2606H60.2606H60.2606H60.2607H60.2607H60.2607H60.2608H60.2608H60.2608H60.2609H60.2609H60.261H60.261H60.261H60.2611H60.2611H60.2611H60.2612H60.2612H60.2612H60.2613H60.2613H60.2614H60.2614H60.2614H60.2615H60.2615H60.2615C60.4744 56.814 60.6975 56.8054 60.9245 56.788L60.9246 56.788C61.0632 56.7774 61.2026 56.7621 61.3567 56.7451C61.389 56.7416 61.4219 56.738 61.4556 56.7343L57.3795 52.4419ZM59.6097 49.6214C59.5324 49.6725 59.4627 49.7192 59.3982 49.7653L68.0336 56.9552L68.0307 56.2052C68.0312 56.2052 68.0317 56.2052 68.0321 56.2052C68.4222 56.2037 68.8202 56.1993 69.2166 56.1934C69.8757 55.607 70.1925 55.0539 70.3526 54.5992C70.5304 54.094 70.533 53.6636 70.533 53.3182C70.533 53.3056 70.5332 53.2934 70.5334 53.2826L70.5318 53.2686L70.5278 53.2339L70.527 53.1991L70.5255 53.135C70.5255 53.1342 70.5255 53.1335 70.5255 53.1328C70.494 52.062 70.1702 51.2681 69.6945 50.6628C69.2114 50.048 68.5402 49.5888 67.764 49.251C66.1953 48.5682 64.3268 48.4359 63.1642 48.4359C62.7731 48.4359 62.3668 48.4495 61.9544 48.4757L61.9276 48.4891H61.8366C61.7767 48.5119 61.7151 48.5365 61.6497 48.5636L61.6411 48.5671L61.6325 48.5704C61.567 48.5957 61.4982 48.6247 61.4202 48.6585C61.3731 48.6796 61.3411 48.6935 61.3126 48.7058C61.2789 48.7203 61.2502 48.7327 61.2072 48.7525L61.1979 48.7567L61.1886 48.7607C61.1212 48.7895 61.0515 48.8222 60.9751 48.8598L60.9667 48.8639L60.9582 48.8679C60.8792 48.9042 60.8128 48.9349 60.7482 48.9672C60.7304 48.9763 60.7132 48.985 60.6966 48.9935C60.6308 49.0269 60.573 49.0564 60.5138 49.0882L60.5138 49.0883L60.5049 49.0929C60.4341 49.1298 60.3625 49.1685 60.285 49.2104C60.2079 49.2533 60.1315 49.2973 60.0587 49.3408L60.0549 49.343C59.9738 49.3908 59.9018 49.4333 59.8324 49.4764L59.8302 49.4777C59.7626 49.5194 59.6942 49.565 59.6126 49.6195L59.6097 49.6214ZM70.5347 53.2376L70.5347 53.2377L70.5347 53.2376Z" stroke="url(#paint15_radial_524_805)" stroke-width="1.5"/>
<path d="M55.9984 58.7335C55.9988 58.7339 55.9993 58.7344 55.9998 58.735L55.9984 58.7335ZM55.9984 58.7335L55.9982 58.7332L55.998 58.7331C55.9981 58.7332 55.9983 58.7333 55.9984 58.7335ZM61.0016 45.1374L61.0016 45.1374C62.8582 44.4637 64.9094 44.0503 66.9402 43.9065C67.4807 43.8677 68.0126 43.8483 68.5327 43.8483C71.5528 43.8483 74.2314 44.5081 76.1767 45.8935C78.1529 47.3009 79.3138 49.4192 79.3138 52.157V52.1626C79.3138 52.611 79.3138 53.5239 78.9268 54.6083C78.5352 55.7056 77.7618 56.942 76.2712 58.075L76.2709 58.0752C74.6783 59.2844 72.3497 59.5362 70.1658 59.6063L70.1654 59.6063C69.4643 59.6283 68.7403 59.6316 68.0377 59.6348C67.6384 59.6366 67.246 59.6384 66.8687 59.6436C65.8042 59.6581 64.8278 59.6994 63.9846 59.8323L63.926 59.8416C63.2194 59.954 62.47 60.0733 61.7178 60.1547L61.7153 60.155C61.2437 60.2045 60.7511 60.2452 60.2591 60.2452C60.1024 60.2452 59.9507 60.2399 59.8067 60.2335L59.803 60.2333L59.7104 60.2285L59.7093 60.2284C59.5753 60.2212 59.4461 60.2086 59.335 60.1978L59.335 60.1979L59.3248 60.1967L59.3045 60.1945L59.2906 60.193C59.2848 60.1924 59.2824 60.1922 59.2821 60.1922L59.2601 60.1909L59.238 60.1883C58.9325 60.152 58.6296 60.0979 58.3305 60.0216L58.3109 60.0166L58.2934 60.0111C58.2934 60.0111 58.2933 60.0111 58.2932 60.0111C58.2924 60.0109 58.2889 60.0099 58.28 60.0074L58.2778 60.0068C58.2682 60.0042 58.2498 59.9992 58.229 59.993C58.1133 59.9607 57.9851 59.9228 57.8548 59.8756L57.8485 59.8735L57.8308 59.8674C57.82 59.8636 57.8017 59.8572 57.7798 59.8487C57.483 59.7407 57.196 59.6046 56.9224 59.4423L56.9224 59.4423L56.9186 59.44C56.8867 59.4208 56.858 59.4024 56.8313 59.3848C56.715 59.3126 56.5994 59.234 56.4889 59.1519L56.4779 59.1437L56.4708 59.138L56.4678 59.1359L56.4589 59.1296L56.4454 59.1202L56.4325 59.1102C56.2992 59.0078 56.1688 58.8975 56.0401 58.7759L56.0321 58.7683L56.0243 58.7605C56.0206 58.7568 56.0171 58.7532 56.014 58.75L56.0128 58.7488C55.8985 58.6381 55.7902 58.5221 55.6861 58.402C55.6596 58.3716 55.6342 58.3406 55.6167 58.3193C55.6149 58.3171 55.6132 58.315 55.6116 58.313C55.509 58.1913 55.4158 58.0667 55.3284 57.9439L55.3217 57.9344L55.3176 57.9282C55.3168 57.9272 55.3156 57.9255 55.3138 57.9231L55.3128 57.9217C55.3074 57.9142 55.2951 57.8973 55.2816 57.8773C55.1934 57.7488 55.1035 57.6091 55.017 57.4565C55.0075 57.4407 55 57.4273 54.9947 57.4174C54.9863 57.4017 54.9796 57.3879 54.9753 57.3791C54.942 57.3178 54.9009 57.2354 54.8757 57.1849C54.8662 57.1659 54.859 57.1515 54.8553 57.1443L54.8553 57.1443L54.8521 57.1381C54.8454 57.1248 54.8382 57.1108 54.8307 57.0961C54.7912 57.0188 54.7419 56.9222 54.696 56.8197C54.6613 56.7443 54.6158 56.6269 54.596 56.5757C54.5913 56.5634 54.588 56.5549 54.5867 56.5518L54.5867 56.5518L54.5851 56.548C54.576 56.5255 54.5661 56.5013 54.5556 56.4757C54.5189 56.3859 54.4752 56.2793 54.4355 56.171L54.4355 56.171L54.4323 56.1622C54.4163 56.1165 54.4032 56.073 54.3942 56.0426C54.3908 56.0311 54.388 56.0216 54.3856 56.0134C54.3811 55.998 54.3779 55.987 54.3744 55.9758C54.2431 55.582 54.1252 55.1568 54.0273 54.685L54.0272 54.6842C53.5434 52.3397 54.179 50.3238 55.5147 48.7084C56.8302 47.1174 58.8037 45.9351 61.0016 45.1374ZM54.9898 57.4051L54.9873 57.4007L54.9898 57.4051ZM49.5671 54.1125L49.5672 54.1125L49.5673 54.1209C49.5758 54.6223 49.6382 55.1459 49.7498 55.6775L49.7498 55.6774L49.7505 55.6808C50.2779 58.251 51.1805 59.9195 52.3291 60.8185L52.3303 60.8195C53.2698 61.5578 54.5377 61.9424 56.4364 61.9424C58.056 61.9424 59.83 61.6598 61.6221 61.3743L61.6242 61.3739L62.1227 61.2959C62.1229 61.2959 62.1231 61.2958 62.1234 61.2958C64.3673 60.9402 66.873 60.9255 69.4511 60.9105L69.6062 60.9095L69.6076 60.9095C71.937 60.9001 74.2502 60.8888 76.2978 60.6435C78.3598 60.3965 80.0335 59.9236 81.1497 59.0751C81.8903 58.5116 82.4746 57.9519 82.9293 57.4073L82.9313 57.4049C84.75 55.2449 84.75 53.2362 84.75 52.2071V52.204C84.75 51.5503 84.6956 50.9266 84.5955 50.3494L84.5951 50.3474C84.2891 48.5546 83.5081 47.0333 82.2737 45.8082L82.2671 45.8016L82.2606 45.7948C82.2595 45.7937 82.258 45.7921 82.2553 45.7895C82.2512 45.7856 82.2446 45.7792 82.233 45.7685L82.2274 45.7633C82.2124 45.7493 82.1873 45.726 82.1621 45.701C79.7853 43.4205 75.6675 42.0837 70.4339 42.0837H70.4277C69.6561 42.0837 68.8445 42.1158 68.0248 42.1726C66.1524 42.306 64.286 42.5895 62.4894 43.0092C59.6073 43.685 56.9368 44.7237 54.7827 46.0699L54.7822 46.0702C51.4705 48.1365 49.4759 50.8683 49.5671 54.1125Z" stroke="url(#paint16_radial_524_805)" stroke-width="1.5"/>
<path d="M24.001 114.232C22.4467 114.763 21.0494 115.029 19.7421 115.029C17.9823 115.029 16.4918 114.565 15.2251 113.67C13.9693 112.783 12.9778 111.505 12.1524 109.944C10.5147 106.848 9.4432 102.46 8.32049 97.3058L8.32038 97.3053C7.01951 91.3133 7.29476 86.8488 9.4838 83.9221L9.48439 83.9213C10.9928 81.9101 13.2421 80.817 16.0805 80.6216L16.0819 80.6215L16.4133 80.5981L16.5386 80.5892L16.6599 80.6217L16.9817 80.7078L16.9817 80.7077L16.9906 80.7102C19.1075 81.3044 21.4021 82.077 23.5982 82.8186L23.6366 82.831L23.6366 82.8309L23.646 82.8341C29.7292 84.8784 36.4791 87.1425 43.0005 87.1425C49.511 87.1425 56.2564 84.8831 62.3394 82.8388L62.3509 82.8349L62.3626 82.8314L62.413 82.8162L62.4768 82.7947C65.5335 81.7642 68.7448 80.6816 71.5027 80.0857L71.5027 80.0857L71.512 80.0838L71.8901 80.0071L72.0305 79.9786L72.1716 80.0039L72.5465 80.0712L72.5501 80.0719C74.6391 80.4573 76.2919 81.6905 77.2916 83.5974C78.1134 85.1583 78.4422 87.0962 78.4614 89.1661C78.4807 91.2442 78.1882 93.5107 77.7201 95.7688C76.7841 100.284 75.1285 104.847 73.7495 107.954L73.7493 107.955C72.7174 110.277 71.3789 112.059 69.6841 113.259C67.9829 114.464 65.9756 115.043 63.6765 115.043C60.8988 115.043 57.9143 114.215 54.8837 113.373L54.826 113.357C53.607 113.019 52.3561 112.675 51.0892 112.37L51.0891 112.37C48.5544 111.76 45.5426 111.444 42.1334 111.444C35.9857 111.444 29.0267 112.516 24.001 114.232ZM24.001 114.232L23.7586 113.522L24.001 114.232ZM82.1008 82.1039L82.095 82.0973C81.8106 81.7747 81.5073 81.4983 81.2044 81.2529L81.6765 80.6702L81.2044 81.2529C80.4192 80.6168 79.4353 80.0645 78.272 79.6128C77.509 79.3216 76.5936 79.1666 75.462 79.1666C71.9299 79.1666 67.3257 80.7075 62.2632 82.4137L62.263 82.4138L62.2237 82.4271C56.3274 84.412 49.4928 86.7129 43.0005 86.7129C36.5117 86.7129 29.6842 84.4156 23.7882 82.4318L23.735 82.4139L23.7347 82.4138C18.669 80.7075 14.0648 79.1666 10.5327 79.1666C9.40566 79.1666 8.49042 79.3216 7.71838 79.6189L7.7155 79.62C6.47695 80.091 5.48574 80.6644 4.67374 81.3532L4.67152 81.3551C4.3984 81.585 4.14202 81.8375 3.90836 82.1069L3.90557 82.1101C2.3644 83.8664 1.59165 86.4821 1.7244 90.205C1.8572 93.929 2.89432 98.6721 4.87155 104.57L4.87167 104.57C5.49001 106.418 6.16814 108.122 6.88949 109.645L6.8895 109.645L7.07511 110.037C9.96275 115.958 13.3769 118.889 17.4022 119.364L17.4052 119.364C17.7965 119.412 18.2004 119.436 18.6095 119.436C19.9774 119.436 21.4857 119.169 23.0827 118.626L23.0839 118.625C29.0066 116.622 35.707 115.609 43.0005 115.609C50.2924 115.609 56.9928 116.622 62.914 118.625L62.9141 118.625C64.5202 119.169 66.0225 119.436 67.3853 119.436C67.7943 119.436 68.1982 119.412 68.5895 119.364L68.5934 119.364C72.6858 118.886 76.1389 115.869 79.0514 109.759L79.0539 109.754L79.1237 109.611V109.61L79.1948 109.458C79.8754 108.009 80.5229 106.362 81.1282 104.564C86.1178 89.6824 84.2104 84.4409 82.1008 82.1039Z" stroke="url(#paint17_radial_524_805)" stroke-width="1.5"/>
<path d="M42.4045 31.8264L42.913 31.3571L43.4216 31.8263L54.5683 42.1081C55.2673 41.7034 56.0881 41.271 56.9516 40.9007L56.2482 40.2306L56.2481 40.2305L47.6407 32.0337L47.6403 32.0334L42.9134 27.5379L38.1907 32.0334L38.1906 32.0335L29.5832 40.2303L29.5828 40.2306L28.6607 41.1099C29.4746 41.4269 30.3558 41.7923 31.1862 42.1799L42.4045 31.8264Z" stroke="url(#paint18_radial_524_805)" stroke-width="1.5"/>
<defs>
<radialGradient id="paint0_radial_524_805" cx="0" cy="0" r="1" gradientUnits="userSpaceOnUse" gradientTransform="translate(19.0886 29.4883) rotate(-90) scale(7.95164 18.3313)">
<stop stop-color="#0CC7BC"/>
<stop offset="0.972204" stop-color="#0CC7BC" stop-opacity="0.12"/>
</radialGradient>
<radialGradient id="paint1_radial_524_805" cx="0" cy="0" r="1" gradientUnits="userSpaceOnUse" gradientTransform="translate(42.997 127.37) rotate(-90) scale(9.4898 28.3994)">
<stop stop-color="#0CC7BC"/>
<stop offset="0.972204" stop-color="#0CC7BC" stop-opacity="0.12"/>
</radialGradient>
<radialGradient id="paint2_radial_524_805" cx="0" cy="0" r="1" gradientUnits="userSpaceOnUse" gradientTransform="translate(66.8222 29.4883) rotate(-90) scale(7.95164 18.4296)">
<stop stop-color="#0CC7BC"/>
<stop offset="0.972204" stop-color="#0CC7BC" stop-opacity="0.12"/>
</radialGradient>
<radialGradient id="paint3_radial_524_805" cx="0" cy="0" r="1" gradientUnits="userSpaceOnUse" gradientTransform="translate(42.9319 135.557) rotate(-90) scale(4.64309 9.54382)">
<stop stop-color="#0CC7BC"/>
<stop offset="0.972204" stop-color="#0CC7BC" stop-opacity="0.12"/>
</radialGradient>
<radialGradient id="paint4_radial_524_805" cx="0" cy="0" r="1" gradientUnits="userSpaceOnUse" gradientTransform="translate(42.813 7.42902) rotate(-90) scale(7.76356 16.4255)">
<stop stop-color="#0CC7BC"/>
<stop offset="0.972204" stop-color="#0CC7BC" stop-opacity="0.12"/>
</radialGradient>
<radialGradient id="paint5_radial_524_805" cx="0" cy="0" r="1" gradientUnits="userSpaceOnUse" gradientTransform="translate(42.9974 15.4757) rotate(-90) scale(14.0478 46.8691)">
<stop stop-color="#0CC7BC"/>
<stop offset="0.972204" stop-color="#0CC7BC" stop-opacity="0.12"/>
</radialGradient>
<radialGradient id="paint6_radial_524_805" cx="0" cy="0" r="1" gradientUnits="userSpaceOnUse" gradientTransform="translate(43.0007 70.2255) rotate(-90) scale(14.2588 20.6213)">
<stop stop-color="#0CC7BC"/>
<stop offset="0.972204" stop-color="#0CC7BC" stop-opacity="0.12"/>
</radialGradient>
<radialGradient id="paint7_radial_524_805" cx="0" cy="0" r="1" gradientUnits="userSpaceOnUse" gradientTransform="translate(15.4944 37.5813) rotate(-90) scale(5.24086 14.0919)">
<stop stop-color="#0CC7BC"/>
<stop offset="0.972204" stop-color="#0CC7BC" stop-opacity="0.12"/>
</radialGradient>
<radialGradient id="paint8_radial_524_805" cx="0" cy="0" r="1" gradientUnits="userSpaceOnUse" gradientTransform="translate(70.4198 37.587) rotate(-90) scale(5.24659 14.1865)">
<stop stop-color="#0CC7BC"/>
<stop offset="0.972204" stop-color="#0CC7BC" stop-opacity="0.12"/>
</radialGradient>
<radialGradient id="paint9_radial_524_805" cx="0" cy="0" r="1" gradientUnits="userSpaceOnUse" gradientTransform="translate(42.9982 59.2549) rotate(-90) scale(25.344 47.3842)">
<stop stop-color="#0CC7BC"/>
<stop offset="0.972204" stop-color="#0CC7BC" stop-opacity="0.12"/>
</radialGradient>
<radialGradient id="paint10_radial_524_805" cx="0" cy="0" r="1" gradientUnits="userSpaceOnUse" gradientTransform="translate(43.0051 97.5283) rotate(-90) scale(15.4895 38.2091)">
<stop stop-color="#0CC7BC"/>
<stop offset="0.972204" stop-color="#0CC7BC" stop-opacity="0.12"/>
</radialGradient>
<radialGradient id="paint11_radial_524_805" cx="0" cy="0" r="1" gradientUnits="userSpaceOnUse" gradientTransform="translate(13.5923 51.6409) rotate(-90) scale(5.3439 4.92939)">
<stop stop-color="#0CC7BC"/>
<stop offset="0.972204" stop-color="#0CC7BC" stop-opacity="0.12"/>
</radialGradient>
<radialGradient id="paint12_radial_524_805" cx="0" cy="0" r="1" gradientUnits="userSpaceOnUse" gradientTransform="translate(22.078 52.6249) rotate(-90) scale(5.16152 8.5816)">
<stop stop-color="#0CC7BC"/>
<stop offset="0.972204" stop-color="#0CC7BC" stop-opacity="0.12"/>
</radialGradient>
<radialGradient id="paint13_radial_524_805" cx="0" cy="0" r="1" gradientUnits="userSpaceOnUse" gradientTransform="translate(18.8422 52.0131) rotate(-90) scale(11.1604 21.3723)">
<stop stop-color="#0CC7BC"/>
<stop offset="0.972204" stop-color="#0CC7BC" stop-opacity="0.12"/>
</radialGradient>
<radialGradient id="paint14_radial_524_805" cx="0" cy="0" r="1" gradientUnits="userSpaceOnUse" gradientTransform="translate(72.4071 51.6409) rotate(-90) scale(5.3439 4.92845)">
<stop stop-color="#0CC7BC"/>
<stop offset="0.972204" stop-color="#0CC7BC" stop-opacity="0.12"/>
</radialGradient>
<radialGradient id="paint15_radial_524_805" cx="0" cy="0" r="1" gradientUnits="userSpaceOnUse" gradientTransform="translate(63.92 52.6249) rotate(-90) scale(5.16152 8.5812)">
<stop stop-color="#0CC7BC"/>
<stop offset="0.972204" stop-color="#0CC7BC" stop-opacity="0.12"/>
</radialGradient>
<radialGradient id="paint16_radial_524_805" cx="0" cy="0" r="1" gradientUnits="userSpaceOnUse" gradientTransform="translate(67.1571 52.0131) rotate(-90) scale(11.1604 21.3732)">
<stop stop-color="#0CC7BC"/>
<stop offset="0.972204" stop-color="#0CC7BC" stop-opacity="0.12"/>
</radialGradient>
<radialGradient id="paint17_radial_524_805" cx="0" cy="0" r="1" gradientUnits="userSpaceOnUse" gradientTransform="translate(42.9988 99.3011) rotate(-90) scale(21.8253 48.9837)">
<stop stop-color="#0CC7BC"/>
<stop offset="0.972204" stop-color="#0CC7BC" stop-opacity="0.12"/>
</radialGradient>
<radialGradient id="paint18_radial_524_805" cx="0" cy="0" r="1" gradientUnits="userSpaceOnUse" gradientTransform="translate(42.803 34.7892) rotate(-90) scale(8.65981 18.0874)">
<stop stop-color="#0CC7BC"/>
<stop offset="0.972204" stop-color="#0CC7BC" stop-opacity="0.12"/>
</radialGradient>
</defs>
</svg>
