<svg width="120" height="120" viewBox="0 0 120 120" fill="none" xmlns="http://www.w3.org/2000/svg">
<rect width="120" height="120" rx="60" fill="#0CC7BC" fill-opacity="0.1"/>
<path fill-rule="evenodd" clip-rule="evenodd" d="M58.2545 81.7699C58.2545 79.453 54.5141 80.7315 54.5141 82.2566C48.7038 82.2566 44.2429 78.7651 42.3629 73.8069C41.59 71.7627 40.8039 69.3874 43.339 68.6476C46.9417 67.6027 51.4485 80.738 58.2479 76.617C58.3462 74.2742 58.6082 70.8671 58.2479 66.811C58.2479 65.831 53.8984 64.7602 53.8984 66.3697C53.8984 69.8547 56.6496 70.1921 55.1626 71.2305C51.7498 73.6122 49.1362 65.5001 51.5009 62.6381C52.3721 61.5867 56.8003 63.7154 58.2479 63.7154C58.5689 60.146 58.6475 58.8416 58.2479 56.2716C56.5317 56.2716 52.1691 58.277 51.5009 57.3035C49.7257 54.7011 51.7171 45.4208 55.1626 48.8409C56.8592 50.5217 53.8984 50.0804 53.8984 52.6244C53.8984 54.8374 58.2479 53.163 58.2479 52.0598C58.5689 48.6721 58.5886 47.0043 58.2479 43.4414C51.0686 37.7369 47.2169 52.2285 43.339 51.5082C41.2624 51.1188 41.4721 48.6462 42.3629 45.953C44.053 40.8325 49.182 37.8992 54.5141 37.8992C54.5141 39.6449 58.2545 40.7482 58.2545 38.5287C58.5034 35.8809 58.2217 34.1676 58.2545 32C46.0247 32 33.6311 43.0391 32 55.6616C33.3691 55.6616 37.1094 56.3365 37.1094 57.7383C37.1094 59.2829 32.8188 58.3289 32.8188 60.0292C32.8188 61.7295 37.1029 60.9118 37.1094 62.5407C37.1094 63.8971 33.4215 64.598 32 64.598C33.3494 74.5208 43.1883 88 58.2545 88C58.6148 84.7097 58.2807 83.9958 58.2545 81.7763V81.7699ZM34.3778 65.234C36.795 64.5526 38.1837 63.6764 38.1837 62.7225C38.1837 60.0941 34.9019 61.2428 34.9019 60.1136C34.9019 58.8935 38.1575 60.0357 38.1575 57.4073C38.1575 56.3949 36.7491 55.4929 34.3844 54.8504C34.4368 53.3772 34.4826 52.6698 34.9281 51.612C39.6903 51.612 42.5332 55.6681 42.5332 59.9968C42.5332 64.7537 40.1947 68.6476 35.2949 68.6476C34.8953 67.7131 34.4302 66.5644 34.3844 65.234H34.3778Z" fill="url(#paint0_radial_84_109)"/>
<path fill-rule="evenodd" clip-rule="evenodd" d="M61.6931 55.8239C64.0709 57.1348 70.2415 60.782 70.8114 56.5831C71.2765 53.1825 70.5167 48.8214 65.6169 48.8214C65.6169 49.9376 67.8637 51.9754 66.7829 53.6238C65.7348 55.2333 61.9486 53.4226 61.6931 52.2934C61.6538 49.1589 61.49 47.5235 61.6931 43.3765C69.1869 40.216 70.9948 50.9436 77.0475 50.9436C78.0956 50.2946 78.0236 48.7176 78.0105 47.6208C77.9777 42.429 71.4403 37.1529 66.2457 37.1529C64.8243 37.1529 63.7041 39.5086 61.6866 38.2237C61.5817 35.5953 61.608 34.9074 61.6866 32C74.1653 32 85.3536 41.9877 88 54.6816C85.8056 54.6816 80.8992 55.3761 80.8992 59.8799C80.8992 64.6175 85.8973 65.3638 88 65.3638C85.0719 79.2324 73.805 88 61.6866 88C61.7848 85.3652 61.608 84.236 61.6866 81.4778C63.8351 80.5952 64.6736 83.6259 66.2457 83.6259C72.6063 83.6259 77.6436 78.3692 78.0105 72.3078C78.0956 70.906 78.0105 69.8157 77.0475 69.2187C71.2634 69.2187 69.4948 78.4211 61.6931 76.5456C61.7062 74.2223 61.3394 71.3668 61.6931 67.5443C62.2368 66.4476 66.1671 65.7661 66.7829 67.3626C67.379 68.9266 65.6234 70.1272 65.6169 71.1461C70.3005 71.1461 71.2176 67.2004 70.8114 63.4233C70.3463 59.0817 64.2085 62.8133 61.6931 63.936C61.6931 60.9053 61.6145 58.8091 61.6931 55.8174V55.8239ZM84.8427 67.7455C85.2095 67.5249 85.6811 67.2718 85.6222 66.6293C81.5936 66.7915 79.1437 63.2481 79.1437 59.8734C79.1437 56.4988 81.9866 53.2799 85.6222 53.1306C85.8514 52.6763 85.2619 52.1442 84.8427 51.9689C82.8513 51.9689 76.9886 54.2014 76.9886 59.8734C76.9886 65.5455 82.4059 67.7455 84.8427 67.7455Z" fill="url(#paint1_radial_84_109)"/>
<defs>
<radialGradient id="paint0_radial_84_109" cx="0" cy="0" r="1" gradientUnits="userSpaceOnUse" gradientTransform="translate(78.125 47.3991) rotate(135) scale(29.8411 905.459)">
<stop stop-color="#19C5FB"/>
<stop offset="1" stop-color="#0CC7BC"/>
</radialGradient>
<radialGradient id="paint1_radial_84_109" cx="0" cy="0" r="1" gradientUnits="userSpaceOnUse" gradientTransform="translate(78.125 47.3991) rotate(135) scale(29.8411 905.459)">
<stop stop-color="#19C5FB"/>
<stop offset="1" stop-color="#0CC7BC"/>
</radialGradient>
</defs>
</svg>
